<svg width="2417" height="900" viewBox="0 0 2417 900" fill="none" xmlns="http://www.w3.org/2000/svg">
<path d="M0 17.8979V569.036H139.482V396.008H209.595C283.428 396.008 338.638 378.855 373.695 343.803C408.751 308.751 426.651 264.006 426.651 209.568C426.651 155.13 409.495 109.641 375.183 73.0798C341.614 36.5399 289.402 17.8979 219.289 17.8979H0ZM139.482 270.723V145.437H219.289C258.066 145.437 283.428 172.284 283.428 208.08C283.428 243.132 260.298 270.723 216.291 270.723H139.461H139.482Z" fill="white"/>
<path d="M572.278 0H441.002V569.036H572.278V0Z" fill="white"/>
<path d="M608.291 389.291C608.291 510.857 682.89 579.473 805.959 579.473C929.029 579.473 1004.37 510.857 1004.37 389.291V157.362H872.352V390.801C872.352 431.826 846.99 459.417 805.959 459.417C766.417 459.417 740.311 431.826 740.311 390.801V157.362H608.291V389.291Z" fill="white"/>
<path d="M1347.64 191.67C1316.31 161.847 1277.53 146.925 1232.04 146.925C1171.62 146.925 1121.64 166.311 1082.12 205.848C1042.57 245.385 1022.44 295.954 1022.44 359.107C1022.44 420.751 1041.09 470.597 1078.37 510.135C1115.66 549.65 1164.9 569.057 1226.06 569.057C1273.79 569.057 1311.84 555.623 1340.93 528.033V536.982C1340.93 591.674 1300.64 632.444 1226.81 632.444C1179.82 632.444 1132.82 616.651 1085.09 584.83L1037.37 681.653C1093.3 722.678 1158.2 743.552 1232.04 743.552C1299.92 743.552 1355.85 724.166 1399.86 685.373C1443.86 646.601 1466.23 593.885 1466.23 528.755V157.362H1347.62V191.67H1347.64ZM1341.67 360.468C1341.67 414.778 1302.13 455.675 1248.43 455.675C1194.73 455.675 1155.18 414.778 1155.18 360.468C1155.18 306.391 1194.7 267.747 1248.43 267.747C1302.13 267.747 1341.67 307.156 1341.67 360.595V360.468Z" fill="white"/>
<path d="M1694.62 897.003C1790.84 897.003 1875.13 861.951 1947.47 791.847V553.2H1696.1V672.534H1821.41V720.255C1794.56 744.87 1746.06 764.256 1697.59 764.256C1652.1 764.256 1614.81 749.334 1587.19 719.511C1559.6 689.688 1545.42 653.892 1545.42 612.123C1545.42 569.61 1559.6 533.814 1587.94 504.736C1616.28 475.657 1652.82 461.479 1697.59 461.479C1746.08 461.479 1789.33 478.633 1827.38 512.197L1916.14 408.529C1865.41 360.808 1785.61 327.988 1699.08 327.988C1614.79 327.988 1543.93 354.835 1487.25 408.529C1431.32 462.223 1402.96 530.839 1402.96 613.611C1402.96 695.64 1429.81 763.512 1484.26 817.206C1538.7 870.156 1608.81 897.003 1694.59 897.003H1694.62Z" fill="white"/>
<path d="M2192.49 900C2258.88 900 2313.32 879.126 2354.33 837.357C2396.11 795.588 2416.98 744.126 2416.98 682.971C2416.98 621.816 2396.11 570.354 2354.33 528.585C2313.3 486.072 2258.86 465.198 2192.49 465.198C2126.09 465.198 2072.39 486.072 2030.64 528.585C1989.61 570.354 1968.73 621.816 1968.73 682.971C1968.73 744.126 1989.61 795.588 2030.64 837.357C2072.41 879.126 2126.11 900 2192.49 900ZM2192.49 776.946C2166.38 776.946 2144.76 767.997 2126.84 750.099C2108.94 731.457 2099.99 709.074 2099.99 682.227C2099.99 656.124 2108.94 634.506 2126.84 616.587C2144.74 597.945 2166.38 588.996 2192.49 588.996C2218.59 588.996 2240.21 597.945 2258.11 615.843C2276.76 633.741 2285.71 656.124 2285.71 682.227C2285.71 709.074 2276.76 731.457 2258.86 750.099C2240.96 767.997 2218.57 776.946 2192.46 776.946H2192.49Z" fill="white"/>
<path fill-rule="evenodd" clip-rule="evenodd" d="M2289.47 418.476C2286.64 416.415 2265.02 410.973 2259.98 409.591C2254.9 408.21 2249.84 406.764 2244.78 405.319C2239.04 403.682 2235.75 401.769 2231.94 405.893C2227.78 410.399 2223.42 431.953 2221.19 439.797C2219.51 445.706 2217.74 451.637 2216.02 457.546C2214.15 463.965 2214.08 467.749 2217.93 470.64C2220.65 472.702 2242.38 478.101 2247.31 479.504C2252.37 480.949 2257.45 482.373 2262.51 483.798C2277.95 488.134 2276.63 484.733 2281.29 467.388L2291.3 431.826C2293.04 425.704 2293.28 421.261 2289.47 418.476ZM2166.21 454.612L2171.35 470.151C2185.68 493.108 2213.96 505.33 2237.87 512.048C2257.69 517.617 2286.49 521.315 2306.99 513.195C2309.05 512.366 2310.84 511.474 2312.64 510.623L2318.13 507.647C2320 506.223 2321.59 505.777 2323.46 504.353C2329.59 499.698 2332.99 495.361 2336.24 486.88L2331.46 488.729C2329.88 489.346 2328.4 489.728 2326.69 490.302C2314.28 494.447 2296.49 494.128 2284.09 492.385C2279.75 491.769 2281.99 491.684 2279.18 493.661C2270.8 499.527 2261.32 494.894 2251.8 492.215C2243.66 489.92 2235.11 487.666 2227.22 485.392C2205.71 479.142 2213.51 477.973 2206.88 475.338C2191.15 469.067 2179.45 466.197 2166.21 454.676V454.612ZM2302.42 425.279C2313.88 428.722 2334.41 425.682 2339.77 426.575C2341.64 417.541 2345.17 406.764 2348.02 397.836C2354.12 378.578 2358.82 365.25 2367.09 346.885C2370.45 339.424 2374.08 330.942 2377.84 323.821C2372.32 324.161 2367.15 324.672 2361.79 324.438C2342.28 323.609 2329.76 321.313 2310.47 317.062C2296.1 313.894 2253.41 301.013 2241.36 294.211C2240.74 318.061 2235.22 346.438 2229.67 369.969C2227.46 379.322 2224.25 388.632 2222.12 397.539L2225.08 398.665C2226.25 395.328 2230.35 392.82 2233.09 392.501C2239.85 391.736 2261.47 398.389 2268.87 400.43C2276.8 402.619 2291.83 405.595 2298.02 410.527C2302.48 414.055 2302.82 418.2 2302.44 425.279H2302.42ZM2344.89 465.793C2360.9 468.663 2384.18 469.492 2394.53 486.008C2396.4 488.963 2397.08 493.852 2396.98 497.976C2396.64 511.814 2384.26 521.4 2378.55 526.289L2365.92 534.494C2346.55 545.888 2316.11 553.732 2293.96 554.646C2270.34 555.623 2249.29 553.774 2225.56 547.333C2181.98 535.493 2141.82 507.52 2119.74 475.805C2116.89 471.703 2114.44 467.536 2111.91 463.37L2105.3 449.766C2102.77 442.454 2097.52 427.808 2103.54 415.437C2114.21 393.458 2146.5 406.488 2164.78 415.012C2168.7 402.662 2173.16 390.864 2176.92 378.28C2180.73 365.612 2183.62 352.836 2186.47 340.019C2191.57 317.147 2194.46 292.128 2195.59 270.042C2195.89 264.091 2195.25 258.521 2199.88 254.886C2209.47 247.34 2228.88 247.787 2240.19 249.105C2262.32 251.677 2281.63 254.95 2303.31 261.03C2323.95 266.811 2344.13 274.23 2363.49 283.519C2370.51 286.877 2401.78 302.288 2397.32 315.701C2396.51 318.103 2394.89 321.292 2393.77 323.651C2374.93 363.124 2366.09 384.742 2354.29 426.915C2350.59 440.094 2348.27 452.869 2344.91 465.815L2344.89 465.793Z" fill="#004A33"/>
<path fill-rule="evenodd" clip-rule="evenodd" d="M2339.77 426.554C2334.41 425.661 2313.9 428.68 2302.42 425.257C2302.8 418.179 2302.44 414.034 2297.99 410.505C2291.79 405.574 2276.78 402.598 2268.85 400.408C2261.43 398.368 2239.81 391.715 2233.07 392.48C2230.33 392.777 2226.24 395.307 2225.05 398.644L2222.1 397.518C2224.23 388.632 2227.44 379.301 2229.65 369.948C2235.22 346.417 2240.72 318.039 2241.34 294.19C2253.39 300.992 2296.08 313.873 2310.45 317.04C2329.73 321.292 2342.28 323.609 2361.77 324.416C2367.13 324.65 2372.3 324.14 2377.82 323.8C2374.06 330.942 2370.43 339.402 2367.07 346.863C2358.8 365.229 2354.1 378.557 2348 397.815C2345.17 406.743 2341.62 417.52 2339.75 426.554H2339.77Z" fill="#429157"/>
<path fill-rule="evenodd" clip-rule="evenodd" d="M2237.87 512.048C2213.96 505.33 2185.68 493.108 2171.35 470.151L2166.21 454.612C2179.45 466.155 2191.17 469.024 2206.88 475.274C2213.49 477.91 2205.69 479.079 2227.22 485.328C2235.11 487.624 2243.66 489.856 2251.8 492.151C2261.32 494.83 2270.8 499.485 2279.18 493.597C2281.99 491.641 2279.73 491.726 2284.09 492.322C2296.49 494.065 2314.28 494.383 2326.69 490.238C2328.37 489.664 2329.88 489.303 2331.46 488.665L2336.24 486.816C2332.99 495.297 2329.59 499.655 2323.46 504.289C2321.59 505.713 2320.02 506.159 2318.13 507.584L2312.64 510.56C2310.84 511.41 2309.05 512.303 2306.99 513.132C2286.49 521.252 2257.71 517.553 2237.87 511.984L2237.87 512.048Z" fill="#429157"/>
<path fill-rule="evenodd" clip-rule="evenodd" d="M2275.82 432.059L2241.36 422.26L2231.73 456.866L2266.28 466.516L2275.82 432.081V432.059ZM2289.47 418.476C2293.28 421.261 2293.04 425.704 2291.3 431.826L2281.29 467.388C2276.63 484.712 2277.95 488.134 2262.51 483.798C2257.45 482.373 2252.37 480.949 2247.31 479.504C2242.36 478.101 2220.65 472.702 2217.93 470.64C2214.11 467.749 2214.17 463.965 2216.02 457.546C2217.74 451.637 2219.51 445.706 2221.19 439.797C2223.42 431.953 2227.78 410.399 2231.94 405.893C2235.75 401.769 2239.04 403.682 2244.78 405.319C2249.84 406.764 2254.92 408.188 2259.98 409.591C2265.02 410.973 2286.62 416.415 2289.47 418.476Z" fill="#DBAC67"/>
<path fill-rule="evenodd" clip-rule="evenodd" d="M2266.28 466.495L2231.73 456.844L2241.36 422.26L2275.82 432.059L2266.28 466.495Z" fill="#004A33"/>
</svg>
