<svg width="185" height="247" viewBox="0 0 185 247" fill="none" xmlns="http://www.w3.org/2000/svg">
<path d="M177.365 0.252766H168.551V246.126L177.365 246.133V246.126C181.31 246.306 184.758 243.147 184.758 239.031V7.3453C184.758 3.2291 181.31 0.0703869 177.365 0.250233V0.252766Z" fill="black"/>
<path d="M177.366 246.377L168.551 246.369C168.417 246.369 168.309 246.26 168.309 246.126V0.250297C168.309 0.116046 168.417 0.00712475 168.551 0.00712475H177.363C179.34 -0.0815319 181.297 0.660651 182.741 2.04116C184.2 3.43687 185.002 5.32146 185.002 7.34537V239.031C185.002 241.055 184.198 242.939 182.741 244.335C181.313 245.703 179.376 246.442 177.416 246.369C177.401 246.371 177.383 246.374 177.368 246.374L177.366 246.377ZM168.794 245.885L177.31 245.893C177.333 245.888 177.356 245.885 177.378 245.885C179.224 245.971 181.057 245.277 182.407 243.985C183.77 242.683 184.519 240.923 184.519 239.033V7.34537C184.519 5.45571 183.768 3.69524 182.407 2.39326C181.057 1.1014 179.222 0.40988 177.378 0.49347C177.376 0.49347 177.371 0.49347 177.368 0.49347H168.797V245.883L168.794 245.885Z" fill="black"/>
<path d="M166.734 0.412244L108.821 13.1535C103.838 14.2503 100.285 18.673 100.285 23.7872V222.591C100.285 227.703 103.838 232.128 108.821 233.225L166.734 245.966C171.156 246.939 175.341 243.567 175.341 239.031V7.3452C175.341 2.81104 171.156 -0.56298 166.734 0.409711V0.412244Z" fill="#F0F0E6"/>
<path d="M168.267 246.376C167.741 246.376 167.21 246.318 166.682 246.204L108.769 233.463C103.712 232.351 100.043 227.779 100.043 222.594V23.7848C100.043 18.5996 103.712 14.0275 108.769 12.9155L166.682 0.174222C168.861 -0.304524 171.109 0.22235 172.846 1.62313C174.586 3.0239 175.582 5.1086 175.582 7.34528V239.031C175.582 241.265 174.586 243.352 172.846 244.753C171.529 245.814 169.918 246.376 168.264 246.376H168.267ZM166.788 0.647902L108.878 13.3891C104.041 14.453 100.531 18.8251 100.531 23.7848V222.591C100.531 227.551 104.041 231.923 108.878 232.987L166.788 245.728C168.823 246.176 170.922 245.682 172.545 244.373C174.168 243.063 175.101 241.118 175.101 239.028V7.34528C175.101 5.25805 174.171 3.31014 172.545 2.00308C170.922 0.69603 168.823 0.202086 166.788 0.647902Z" fill="black"/>
<path d="M168.273 75.7783V85.3178C168.273 88.1497 166.007 90.4573 163.175 90.508C149.033 90.7385 110.325 91.3743 110.325 91.3743C108.57 90.9868 107.293 89.396 107.293 87.5975V23.785C107.293 21.984 108.57 20.3958 110.325 20.0082C110.325 20.0082 152.212 10.7955 164.743 8.03701C166.543 7.64185 168.25 9.01223 168.25 10.8614C168.278 30.2088 168.278 58.66 168.275 75.7783H168.273Z" fill="#3DA555"/>
<path d="M110.324 91.6148C110.306 91.6148 110.288 91.6148 110.271 91.6097C108.402 91.1968 107.047 89.5098 107.047 87.5948V23.7848C107.047 21.8724 108.402 20.1828 110.271 19.7699C110.271 19.7699 152.158 10.5547 164.689 7.79874C165.62 7.59356 166.58 7.819 167.324 8.4168C168.065 9.0146 168.492 9.9037 168.492 10.8587C168.522 31.9438 168.52 63.2826 168.517 75.7756V85.3151C168.517 88.2585 166.123 90.6953 163.182 90.7459C149.04 90.9765 110.331 91.6123 110.331 91.6123H110.326L110.324 91.6148ZM165.367 8.20909C165.177 8.20909 164.985 8.22936 164.793 8.27242C152.261 11.0309 110.374 20.2436 110.374 20.2436C108.728 20.6084 107.532 22.0978 107.532 23.7848V87.5974C107.532 89.2742 108.716 90.7561 110.349 91.131C111.537 91.1107 149.253 90.4926 163.172 90.2647C165.852 90.2165 168.032 87.9976 168.032 85.3176V75.7782C168.034 63.2826 168.039 31.9463 168.006 10.8612C168.006 10.0532 167.647 9.30084 167.02 8.79676C166.545 8.41427 165.963 8.21162 165.367 8.21162V8.20909Z" fill="black"/>
<path d="M4.88084 220.479L3.98828 231.216H27.1215L27.8447 222.715L4.88084 220.479Z" fill="#FFAD95"/>
<path d="M27.1241 231.459H3.9909C3.92263 231.459 3.85942 231.431 3.81391 231.381C3.76839 231.33 3.74564 231.264 3.75069 231.196L4.64325 220.458C4.64831 220.392 4.67865 220.334 4.72922 220.291C4.77979 220.251 4.843 220.23 4.90875 220.235L27.8751 222.472C28.0066 222.485 28.1052 222.601 28.0925 222.733L27.3694 231.234C27.3593 231.361 27.2531 231.457 27.1292 231.457L27.1241 231.459ZM4.25386 230.976H26.9016L27.5868 222.936L5.10344 220.745L4.25134 230.976H4.25386Z" fill="black"/>
<path d="M51.9615 214.918L51.0664 225.656H74.2022L74.9253 217.155L51.9615 214.918Z" fill="#FFAD95"/>
<path d="M74.1983 225.899H51.0651C50.9969 225.899 50.9336 225.871 50.8881 225.821C50.8426 225.77 50.8199 225.704 50.8249 225.636L51.7175 214.898C51.7225 214.832 51.7529 214.774 51.8034 214.731C51.854 214.688 51.9172 214.67 51.983 214.675L74.9493 216.912C75.0808 216.925 75.1794 217.041 75.1668 217.173L74.4436 225.674C74.4335 225.801 74.3273 225.897 74.2034 225.897L74.1983 225.899ZM51.3281 225.416H73.9784L74.6636 217.376L52.1802 215.185L51.3281 225.416Z" fill="black"/>
<path d="M77.0159 218.366C75.8098 219.84 48.7448 220.78 47.4047 218.635C46.0646 216.484 49.0128 182.584 49.0128 178.559C49.0128 174.534 44.8585 164.734 44.8585 164.734C42.1808 181.105 32.1301 223.658 30.5219 224.595C28.9138 225.537 3.18887 223.252 2.2508 220.97C1.31526 218.69 4.64782 193.651 7.34319 183.387C10.6935 170.636 14.4432 160.572 15.2473 158.421C15.9755 156.476 15.8238 146.503 15.2928 136.766C15.2397 135.746 15.1765 134.732 15.1158 133.729C15.0829 133.192 15.0551 132.66 15.0298 132.128C14.5772 122.136 15.7833 113.057 15.7833 113.057H64.8235C64.8235 113.057 66.1839 118.903 67.9462 126.675C68.3407 128.45 68.7654 130.325 69.1953 132.253C71.8072 143.907 74.763 157.53 75.5418 162.854C77.0159 172.923 78.2195 216.892 77.0159 218.369V218.366Z" fill="#3DA555"/>
<path d="M28.0354 225.053C22.1263 225.053 8.22963 223.617 3.70615 222.09C2.70992 221.753 2.17641 221.426 2.0247 221.064C1.03353 218.65 4.40655 193.61 7.10698 183.329C10.0476 172.14 13.3246 162.869 15.0187 158.338C15.7469 156.397 15.5572 146.113 15.049 136.779C14.9959 135.761 14.9327 134.745 14.872 133.742C14.8391 133.205 14.8088 132.67 14.786 132.136C14.336 122.234 15.5294 113.113 15.542 113.022C15.5572 112.9 15.6609 112.811 15.7823 112.811H64.8225C64.9337 112.811 65.0323 112.89 65.0576 112.999C65.0703 113.057 66.4382 118.934 68.1803 126.619C68.3598 127.427 68.5469 128.253 68.7366 129.096C68.9641 130.109 69.1968 131.145 69.4294 132.197C71.8846 143.15 74.9794 157.352 75.7784 162.816C77.1261 172.024 78.5674 216.841 77.202 218.52C76.1855 219.762 60.9083 220.496 52.6857 219.967C48.2608 219.681 47.434 219.144 47.1988 218.764C46.2962 217.312 47.1407 203.662 48.1672 188.59C48.5035 183.658 48.769 179.76 48.769 178.559C48.769 175.281 45.9295 168.006 44.9561 165.61C43.6362 173.402 40.7562 186.931 37.5223 200.508C35.8358 207.59 31.7902 224.134 30.6422 224.805C30.3489 224.977 29.4083 225.053 28.0354 225.053ZM15.9946 113.295C15.8202 114.716 14.8594 123.09 15.269 132.113C15.2943 132.645 15.3221 133.174 15.3549 133.711C15.4156 134.715 15.4788 135.73 15.5319 136.751C16.0073 145.447 16.2753 156.362 15.4712 158.505C13.7822 163.026 10.5103 172.28 7.57475 183.448C4.74536 194.218 1.61003 218.779 2.47225 220.876C2.5127 220.975 2.73015 221.246 3.86039 221.629C9.63042 223.579 29.1251 225.129 30.3995 224.384C31.9191 223.219 41.889 181.376 44.6198 164.693C44.6375 164.587 44.7234 164.506 44.8296 164.491C44.9358 164.478 45.0395 164.536 45.0825 164.637C45.2519 165.04 49.2545 174.524 49.2545 178.557C49.2545 179.775 48.989 183.678 48.6527 188.62C47.927 199.259 46.7159 217.066 47.611 218.505C47.7096 218.662 48.3695 219.199 52.7185 219.48C61.5278 220.05 76.0566 219.136 76.8278 218.211C77.9479 216.616 76.7367 172.672 75.3005 162.885C74.5041 157.436 71.4117 143.246 68.9591 132.301C68.7265 131.249 68.4938 130.213 68.2663 129.2C68.0766 128.357 67.8921 127.528 67.7125 126.723C66.1423 119.808 64.8806 114.356 64.6328 113.295H15.9946Z" fill="black"/>
<path d="M44.8547 164.974C44.837 164.974 44.8218 164.974 44.8041 164.969C44.6726 164.941 44.5892 164.812 44.6195 164.681L50.5134 137.298C50.5413 137.167 50.6702 137.083 50.8017 137.113C50.9332 137.141 51.0166 137.27 50.9863 137.402L45.0923 164.784C45.0671 164.898 44.9684 164.977 44.8572 164.977L44.8547 164.974Z" fill="black"/>
<path d="M49.0224 145.619C48.9567 145.619 48.8909 145.591 48.8429 145.541C48.7544 145.442 48.762 145.288 48.8606 145.199C48.896 145.166 52.4814 141.893 52.9947 139.646C53.5206 137.346 53.7912 131.561 53.7937 131.503C53.7987 131.368 53.9151 131.262 54.0465 131.272C54.1805 131.277 54.2842 131.391 54.2766 131.525C54.2665 131.764 54.001 137.412 53.4675 139.755C52.9214 142.152 49.3385 145.422 49.1868 145.559C49.1412 145.602 49.0831 145.622 49.0249 145.622L49.0224 145.619Z" fill="black"/>
<path d="M37.6993 246.133H0.242188C0.242188 246.133 0.295286 244.76 0.436882 242.822C0.750415 238.585 1.47104 231.626 2.91734 230.388C4.34594 229.159 27.1353 229.762 27.9393 229.894C28.7434 230.028 30.0152 234.859 30.7536 235.598C31.4868 236.338 36.5135 237.944 37.1153 238.483C37.2872 238.633 37.444 240.826 37.5527 242.822C37.6412 244.55 37.6993 246.133 37.6993 246.133Z" fill="#F0F0E6"/>
<path d="M37.7001 246.377H0.242909C0.177168 246.377 0.113955 246.349 0.0684425 246.303C0.0229296 246.255 -0.00235538 246.192 0.000173117 246.126C0.000173117 246.113 0.0558001 244.725 0.197396 242.805C0.571613 237.739 1.32005 231.439 2.76129 230.203C3.00403 229.995 3.73982 229.362 15.6642 229.387C21.7048 229.4 27.5684 229.588 27.9805 229.656C28.5115 229.745 28.9616 230.77 29.7909 232.931C30.1879 233.967 30.6405 235.14 30.9262 235.426C31.2929 235.796 33.0704 236.495 34.4965 237.055C36.0338 237.66 36.9896 238.043 37.2778 238.301C37.3966 238.408 37.5635 238.555 37.7962 242.808C37.8821 244.52 37.9428 246.108 37.9428 246.123C37.9428 246.189 37.92 246.253 37.8745 246.301C37.829 246.349 37.7658 246.374 37.7001 246.374V246.377ZM0.495759 245.893H37.4472C37.427 245.379 37.3764 244.142 37.3107 242.835C37.1261 239.456 36.982 238.78 36.9314 238.646C36.6381 238.42 35.4092 237.936 34.3195 237.508C32.6987 236.87 31.0223 236.211 30.5849 235.771C30.2258 235.411 29.8162 234.345 29.3409 233.106C28.9262 232.027 28.2308 230.218 27.9021 230.135C26.6025 229.919 4.32896 229.499 3.07735 230.573C2.06596 231.442 1.1911 235.913 0.680339 242.843C0.574142 244.277 0.518515 245.412 0.495759 245.895V245.893Z" fill="black"/>
<path d="M23.7628 232.465C23.1332 232.465 22.625 232.977 22.625 233.605C22.625 234.233 23.1358 234.745 23.7628 234.745C24.3899 234.745 24.9006 234.233 24.9006 233.605C24.9006 232.977 24.3899 232.465 23.7628 232.465Z" fill="#3DA555"/>
<path d="M23.7634 234.99C23.0023 234.99 22.3828 234.37 22.3828 233.607C22.3828 232.845 23.0023 232.224 23.7634 232.224C24.5245 232.224 25.1439 232.845 25.1439 233.607C25.1439 234.37 24.5245 234.99 23.7634 234.99ZM23.7634 232.708C23.2678 232.708 22.8658 233.111 22.8658 233.607C22.8658 234.104 23.2678 234.507 23.7634 234.507C24.259 234.507 24.661 234.104 24.661 233.607C24.661 233.111 24.259 232.708 23.7634 232.708Z" fill="black"/>
<path d="M26.712 235.955C26.0824 235.955 25.5742 236.467 25.5742 237.095C25.5742 237.723 26.085 238.235 26.712 238.235C27.3391 238.235 27.8499 237.723 27.8499 237.095C27.8499 236.467 27.3391 235.955 26.712 235.955Z" fill="#3DA555"/>
<path d="M26.7126 238.481C25.9515 238.481 25.332 237.86 25.332 237.098C25.332 236.335 25.9515 235.715 26.7126 235.715C27.4737 235.715 28.0931 236.335 28.0931 237.098C28.0931 237.86 27.4737 238.481 26.7126 238.481ZM26.7126 236.199C26.217 236.199 25.815 236.601 25.815 237.098C25.815 237.594 26.217 237.997 26.7126 237.997C27.2082 237.997 27.6102 237.594 27.6102 237.098C27.6102 236.601 27.2082 236.199 26.7126 236.199Z" fill="black"/>
<path d="M11.8858 243.066C11.7872 243.066 11.6961 243.005 11.6582 242.909C9.06398 235.89 1.43298 234.998 1.35712 234.99C1.22311 234.975 1.12703 234.856 1.1422 234.724C1.15737 234.59 1.27621 234.494 1.40769 234.509C1.4886 234.517 9.41292 235.434 12.1134 242.742C12.1589 242.868 12.0957 243.008 11.9718 243.053C11.9439 243.063 11.9161 243.068 11.8883 243.068L11.8858 243.066Z" fill="black"/>
<path d="M85.2644 240.576H47.8047C47.8047 240.576 47.8628 239.203 48.0044 237.265C48.318 233.027 49.0386 226.069 50.4849 224.83C51.9135 223.602 74.7028 224.205 75.5069 224.336C76.311 224.471 77.5828 229.301 78.3211 230.041C79.0544 230.781 84.081 232.386 84.6828 232.926C84.8548 233.075 85.0115 235.269 85.1203 237.265C85.2088 238.993 85.2669 240.576 85.2669 240.576H85.2644Z" fill="#F0F0E6"/>
<path d="M85.2651 240.816H47.8054C47.7397 240.816 47.6765 240.789 47.6309 240.743C47.5854 240.695 47.5601 240.631 47.5627 240.566C47.5627 240.553 47.6234 239.165 47.7624 237.247C48.1366 232.181 48.8851 225.882 50.3263 224.645C50.5691 224.438 51.3074 223.802 63.2292 223.83C69.2698 223.842 75.1334 224.03 75.5455 224.098C76.0765 224.187 76.5266 225.215 77.356 227.373C77.7529 228.409 78.2055 229.582 78.4913 229.869C78.8579 230.238 80.6354 230.937 82.0615 231.497C83.5988 232.103 84.5546 232.485 84.8428 232.744C84.9566 232.842 85.1311 232.997 85.3612 237.25C85.4471 238.962 85.5078 240.55 85.5078 240.566C85.5078 240.631 85.4851 240.695 85.4396 240.743C85.394 240.791 85.3308 240.816 85.2651 240.816ZM48.0583 240.333H85.0148C84.9945 239.818 84.944 238.582 84.8782 237.275C84.6962 233.896 84.5495 233.22 84.499 233.085C84.2057 232.86 82.9768 232.376 81.887 231.948C80.2663 231.31 78.5899 230.651 78.1524 230.21C77.7934 229.851 77.3838 228.784 76.9084 227.546C76.4937 226.467 75.7984 224.658 75.4697 224.574C74.17 224.359 51.894 223.939 50.6449 225.013C49.6335 225.879 48.7587 230.352 48.2479 237.283C48.1442 238.716 48.0835 239.851 48.0608 240.333H48.0583Z" fill="black"/>
<path d="M71.3292 226.907C70.6996 226.907 70.1914 227.419 70.1914 228.047C70.1914 228.676 70.7022 229.187 71.3292 229.187C71.9563 229.187 72.4671 228.676 72.4671 228.047C72.4671 227.419 71.9563 226.907 71.3292 226.907Z" fill="#3DA555"/>
<path d="M71.3259 229.43C70.5648 229.43 69.9453 228.81 69.9453 228.047C69.9453 227.285 70.5648 226.664 71.3259 226.664C72.0869 226.664 72.7064 227.285 72.7064 228.047C72.7064 228.81 72.0869 229.43 71.3259 229.43ZM71.3259 227.148C70.8303 227.148 70.4283 227.551 70.4283 228.047C70.4283 228.544 70.8303 228.947 71.3259 228.947C71.8215 228.947 72.2235 228.544 72.2235 228.047C72.2235 227.551 71.8215 227.148 71.3259 227.148Z" fill="black"/>
<path d="M74.2784 230.396C73.6489 230.396 73.1406 230.907 73.1406 231.535C73.1406 232.164 73.6514 232.675 74.2784 232.675C74.9055 232.675 75.4163 232.164 75.4163 231.535C75.4163 230.907 74.9055 230.396 74.2784 230.396Z" fill="#3DA555"/>
<path d="M74.2751 232.921C73.514 232.921 72.8945 232.3 72.8945 231.538C72.8945 230.775 73.514 230.155 74.2751 230.155C75.0362 230.155 75.6556 230.775 75.6556 231.538C75.6556 232.3 75.0362 232.921 74.2751 232.921ZM74.2751 230.639C73.7795 230.639 73.3775 231.041 73.3775 231.538C73.3775 232.034 73.7795 232.437 74.2751 232.437C74.7707 232.437 75.1727 232.034 75.1727 231.538C75.1727 231.041 74.7707 230.639 74.2751 230.639Z" fill="black"/>
<path d="M59.4483 237.506C59.3497 237.506 59.2587 237.445 59.2207 237.349C56.6265 230.33 48.998 229.438 48.9196 229.43C48.7856 229.415 48.6895 229.296 48.7047 229.164C48.7199 229.033 48.8362 228.934 48.9702 228.949C49.0511 228.957 56.9729 229.874 59.6733 237.181C59.7188 237.308 59.6556 237.447 59.5317 237.493C59.5039 237.503 59.4761 237.508 59.4483 237.508V237.506Z" fill="black"/>
<path d="M37.5527 242.823C37.6412 244.55 37.6993 246.133 37.6993 246.133H0.242188C0.242188 246.133 0.295286 244.76 0.436882 242.823H37.5527Z" fill="black"/>
<path d="M85.2644 240.576H47.8047C47.8047 240.576 47.8628 239.203 48.0044 237.265H85.1203C85.2088 238.992 85.2669 240.576 85.2669 240.576H85.2644Z" fill="black"/>
<path d="M38.5879 113.054C37.8597 117.505 36.029 126.513 32.8077 129.583C29.6724 132.577 19.968 135.49 15.2903 136.766C15.2372 135.745 15.174 134.732 15.1133 133.729C15.0804 133.192 15.0526 132.66 15.0273 132.128C20.6077 130.55 27.7887 128.103 29.685 126.295C31.4044 124.656 33.0682 118.285 33.9911 113.057H38.5904L38.5879 113.054Z" fill="#F0F0E6"/>
<path d="M15.2886 137.007C15.238 137.007 15.1874 136.992 15.147 136.961C15.0888 136.918 15.0509 136.85 15.0484 136.776C14.9953 135.758 14.9321 134.742 14.8714 133.739C14.8385 133.202 14.8082 132.668 14.7854 132.133C14.7803 132.022 14.8537 131.921 14.9624 131.888C20.5352 130.312 27.6909 127.855 29.519 126.112C31.2257 124.486 32.8667 118.037 33.7542 113.006C33.7744 112.89 33.8756 112.806 33.9919 112.806H38.5912C38.662 112.806 38.7303 112.837 38.7758 112.892C38.8213 112.945 38.8415 113.019 38.8289 113.087C38.0248 117.994 36.1942 126.685 32.9754 129.752C29.8679 132.718 20.6009 135.563 15.3543 136.994C15.3341 136.999 15.3113 137.002 15.2911 137.002L15.2886 137.007ZM15.2759 132.306C15.2987 132.772 15.324 133.24 15.3543 133.711C15.4099 134.616 15.4656 135.533 15.5161 136.452C19.8626 135.257 29.567 132.341 32.6417 129.408C35.7997 126.398 37.6253 117.353 38.3055 113.298H34.1941C33.2864 118.369 31.6201 124.785 29.8527 126.469C27.9842 128.253 21.137 130.644 15.2785 132.308L15.2759 132.306Z" fill="black"/>
<path d="M69.1926 132.25C67.3291 131.688 64.7627 130.525 63.099 128.187C60.927 125.145 58.9118 116.13 58.2695 113.054H62.9043C63.8803 117.518 65.5415 123.8 66.7855 125.545C67.099 125.983 67.4985 126.358 67.9436 126.672C68.338 128.448 68.7628 130.322 69.1926 132.25Z" fill="#F0F0E6"/>
<path d="M69.1921 132.491C69.1693 132.491 69.144 132.488 69.1213 132.48C67.2249 131.908 64.6079 130.725 62.8986 128.326C60.7444 125.309 58.7772 116.674 58.0288 113.103C58.0136 113.032 58.0313 112.956 58.0768 112.9C58.1223 112.844 58.1906 112.811 58.2639 112.811H62.8986C63.0124 112.811 63.111 112.89 63.1363 113.001C64.2387 118.037 65.8545 123.825 66.9796 125.403C67.2603 125.796 67.632 126.158 68.0795 126.472C68.1276 126.507 68.163 126.558 68.1756 126.616C68.3551 127.422 68.5422 128.25 68.7294 129.094C68.9569 130.107 69.1895 131.143 69.4222 132.194C69.4399 132.278 69.4146 132.366 69.3514 132.425C69.3059 132.468 69.2477 132.491 69.187 132.491H69.1921ZM58.5673 113.295C59.2171 116.368 61.2071 125.119 63.2956 128.045C64.8102 130.17 67.0884 131.3 68.8659 131.89C68.6636 130.978 68.4613 130.082 68.2641 129.203C68.0821 128.39 67.9025 127.594 67.7281 126.814C67.2704 126.48 66.8861 126.1 66.5902 125.684C65.3614 123.962 63.7432 117.979 62.7115 113.295H58.5699H58.5673Z" fill="black"/>
<path d="M68.704 79.2964C68.704 79.2964 69.9809 78.8049 72.6358 75.2029C75.4045 71.4439 78.8281 64.3691 81.0987 59.6323C83.2403 55.1665 84.6714 52.7981 87.3289 51.8482C91.0812 50.5057 94.8309 53.862 94.8309 53.862C94.8309 53.862 81.0633 74.4962 75.4702 79.2964C67.6774 85.9861 61.3789 86.5662 61.3789 86.5662L68.7014 79.2964H68.704Z" fill="#FFAD95"/>
<path d="M61.3791 86.8097C61.2856 86.8097 61.1996 86.7565 61.1592 86.6703C61.1162 86.5766 61.1364 86.4677 61.2072 86.3968L68.5297 79.1269C68.5525 79.1041 68.5803 79.0864 68.6106 79.0737C68.6359 79.0636 69.9002 78.5038 72.4363 75.0614C75.2833 71.1985 78.9219 63.6069 80.8764 59.5313C83.1293 54.8324 84.5832 52.5755 87.2431 51.6231C91.0865 50.2476 94.8312 53.5431 94.9879 53.685C95.079 53.766 95.0941 53.9003 95.0284 54.0016C94.8893 54.2093 81.1773 74.7194 75.6247 79.4866C67.8622 86.1485 61.4626 86.8071 61.3994 86.8147C61.3918 86.8147 61.3842 86.8147 61.3766 86.8147L61.3791 86.8097ZM68.8433 79.4993L62.0897 86.2043C63.9582 85.8268 69.1947 84.3653 75.3137 79.1117C80.5401 74.6257 93.1345 55.9546 94.51 53.9079C93.7641 53.3076 90.5555 50.9518 87.41 52.0765C84.9093 52.9707 83.5111 55.1617 81.3163 59.739C79.3542 63.8298 75.7031 71.4467 72.8307 75.3476C70.4261 78.6102 69.1189 79.3676 68.8458 79.4993H68.8433Z" fill="black"/>
<path d="M52.0925 47.8235L47.3945 45.2727V52.117L51.2985 54.6678L52.0925 47.8235Z" fill="#F0F0E6"/>
<path d="M51.2979 54.9109C51.2524 54.9109 51.2069 54.8982 51.1664 54.8704L47.265 52.3196C47.1967 52.274 47.1562 52.198 47.1562 52.117V45.2727C47.1562 45.1865 47.2018 45.108 47.2751 45.0649C47.3484 45.0219 47.4394 45.0194 47.5153 45.0599L52.2132 47.6107C52.2992 47.6588 52.3498 47.7525 52.3371 47.8513L51.5432 54.6956C51.5331 54.7792 51.4825 54.8526 51.4067 54.8881C51.3738 54.9033 51.3384 54.9109 51.303 54.9109H51.2979ZM47.6367 51.9878L51.1032 54.2523L51.834 47.9602L47.6392 45.683V51.9903L47.6367 51.9878Z" fill="black"/>
<path d="M62.4545 35.4267C62.007 35.7408 59.8173 35.338 59.8173 35.338C59.8173 35.338 60.9374 42.3166 56.9576 45.0016C54.7375 46.5037 49.0105 45.2701 49.0105 45.2701L49.7412 51.8839L46.1735 50.4249L35.2504 45.9439C35.2504 45.9439 36.143 40.1736 35.9432 36.0042C35.8699 34.5123 33.5791 33.5852 33.1998 31.4954C32.5626 27.9593 37.2808 24.5903 37.2808 24.5903C37.2808 24.5903 41.3694 20.3779 45.6577 19.7699C49.946 19.1671 59.5442 21.2948 59.5442 21.2948C59.5442 21.2948 59.8021 27.8655 60.2926 29.7375C60.8616 31.921 62.8919 35.1177 62.4495 35.4292L62.4545 35.4267Z" fill="#FFAD95"/>
<path d="M49.7403 52.1271C49.71 52.1271 49.6771 52.122 49.6493 52.1093L35.161 46.1668C35.0574 46.1237 34.9967 46.0174 35.0144 45.9059C35.0245 45.8476 35.9019 40.1128 35.7047 36.0143C35.6743 35.3887 35.1737 34.8491 34.5946 34.226C33.9296 33.5092 33.1762 32.6986 32.9663 31.5384C32.3215 27.9668 36.7565 24.6714 37.1257 24.4054C37.4443 24.0812 41.3963 20.1296 45.629 19.5293C49.9123 18.9264 59.2096 20.9706 59.6015 21.0567C59.7077 21.0795 59.7861 21.1732 59.7911 21.2847C59.7936 21.3505 60.0541 27.8503 60.532 29.6767C60.7924 30.6797 61.3689 31.8981 61.8771 32.9722C62.6736 34.6592 62.9821 35.3558 62.5927 35.6268C62.1755 35.9206 60.8303 35.7534 60.1021 35.6344C60.2766 37.0884 60.6963 42.7725 57.0932 45.2042C55.1008 46.5518 50.557 45.8147 49.2877 45.5741L49.9831 51.8586C49.9932 51.9447 49.9578 52.0283 49.8895 52.0789C49.8465 52.1119 49.796 52.1271 49.7429 52.1271H49.7403ZM35.5175 45.7919L49.4546 51.5065L48.7694 45.298C48.7618 45.2194 48.7896 45.1434 48.8478 45.0903C48.9059 45.0371 48.9843 45.0168 49.0602 45.032C49.1158 45.0447 54.7114 46.2251 56.8227 44.799C60.6255 42.233 59.5888 35.4444 59.5787 35.376C59.5661 35.2975 59.5914 35.219 59.6495 35.1632C59.7051 35.1075 59.7861 35.0847 59.8619 35.0974C60.8227 35.2747 61.9808 35.3684 62.2792 35.2468C62.2867 34.9682 61.819 33.9778 61.4397 33.1773C60.9239 32.0831 60.3373 30.8419 60.0642 29.7957C59.6141 28.0758 59.3613 22.5968 59.3158 21.4873C57.9731 21.2011 49.5709 19.4609 45.6947 20.0055C41.5404 20.5931 37.4974 24.7119 37.4569 24.7549C37.4468 24.7651 37.4367 24.7752 37.424 24.7828C37.3785 24.8157 32.8373 28.1062 33.4416 31.4473C33.6262 32.4681 34.2988 33.1925 34.9486 33.8916C35.5656 34.5578 36.1497 35.186 36.1876 35.9865C36.3646 39.7101 35.6692 44.7534 35.5201 45.7868L35.5175 45.7919Z" fill="black"/>
<path d="M49.74 51.8838L46.1723 50.4248C44.3265 46.496 44.3164 43.1245 44.3164 43.1245C46.4631 44.733 49.0068 45.27 49.0068 45.27L49.7375 51.8838H49.74Z" fill="black"/>
<path d="M49.742 52.1272C49.7116 52.1272 49.6787 52.1221 49.6509 52.1094L46.0832 50.6504C46.0276 50.6276 45.9821 50.5845 45.9568 50.5288C44.1085 46.595 44.0781 43.2665 44.0781 43.1272C44.0781 43.036 44.1287 42.9524 44.2121 42.9094C44.293 42.8689 44.3917 42.8765 44.465 42.9322C46.5409 44.4875 49.0365 45.0295 49.0618 45.0346C49.1629 45.0574 49.2413 45.141 49.2514 45.2449L49.9822 51.8586C49.9923 51.9448 49.9569 52.0284 49.8886 52.079C49.8456 52.112 49.7951 52.1272 49.742 52.1272ZM46.3538 50.2375L49.4562 51.5066L48.7887 45.4703C48.2173 45.3284 46.3462 44.8066 44.5864 43.6136C44.6647 44.6673 44.9909 47.2992 46.3538 50.2375Z" fill="black"/>
<path d="M48.3395 47.8233L49.7428 51.8863L52.0918 47.8233L52.6936 54.6676C52.6936 54.6676 55.3055 55.696 58.5673 62.9887C61.9504 70.56 64.7292 76.4037 64.7292 76.4037L58.5673 82.5844L41.1484 53.5024L48.3395 47.8208V47.8233Z" fill="#F0F0E6"/>
<path d="M58.5671 82.8276C58.5671 82.8276 58.5469 82.8276 58.5368 82.8276C58.4635 82.8175 58.3977 82.7744 58.3598 82.7111L40.941 53.6292C40.8778 53.5253 40.903 53.3885 40.9991 53.3151L48.1902 47.6334C48.2509 47.5853 48.3318 47.5701 48.4076 47.5904C48.4835 47.6132 48.5416 47.6689 48.5694 47.7449L49.7983 51.3064L51.8818 47.7018C51.9349 47.6106 52.0411 47.5651 52.1447 47.5853C52.2484 47.6081 52.3243 47.6942 52.3344 47.8006L52.926 54.5081C53.5228 54.8298 55.9122 56.4485 58.7896 62.89C62.1348 70.3701 64.9238 76.2417 64.9516 76.3C64.9946 76.3937 64.9769 76.5026 64.9035 76.5761L58.7391 82.7567C58.6935 82.8023 58.6329 82.8276 58.5671 82.8276ZM41.4669 53.5608L58.6152 82.1944L64.4383 76.3557C63.9756 75.3805 61.3915 69.9015 58.3471 63.0901C55.1638 55.9697 52.6327 54.9058 52.6075 54.8957C52.5215 54.8628 52.4633 54.7842 52.4557 54.6905L51.9197 48.6087L49.9551 52.008C49.907 52.0891 49.816 52.1372 49.7224 52.1271C49.6289 52.1169 49.548 52.0536 49.5176 51.965L48.2256 48.2236L41.4694 53.5633L41.4669 53.5608Z" fill="black"/>
<path d="M57.1836 81.2443C57.1836 81.2443 63.7147 74.2303 64.4176 74.2658C65.1205 74.2987 69.242 77.5537 69.2749 78.5618C69.3077 79.57 62.9005 86.5713 62.9005 86.5713L57.1836 81.2468V81.2443Z" fill="#F0F0E6"/>
<path d="M62.8985 86.8095C62.8379 86.8095 62.7797 86.7867 62.7342 86.7436L57.0173 81.4191C56.9692 81.3761 56.9414 81.3153 56.9414 81.2494C56.9414 81.1861 56.9616 81.1228 57.0071 81.0746C58.987 78.9494 63.6622 74.0176 64.4232 74.0176C64.4258 74.0176 64.4283 74.0176 64.4308 74.0176C65.2602 74.0581 69.4777 77.3688 69.5182 78.5467C69.5536 79.5979 64.1603 85.5455 63.0806 86.7284C63.0376 86.7765 62.9769 86.8044 62.9112 86.8069C62.9087 86.8069 62.9036 86.8069 62.9011 86.8069L62.8985 86.8095ZM57.5255 81.2317L62.8859 86.2243C65.9429 82.8731 69.0403 79.1369 69.0327 78.5669C69.0074 77.7741 65.0655 74.5369 64.4055 74.5065C63.9074 74.6255 60.5167 78.0274 57.5255 81.2317Z" fill="black"/>
<path d="M34.4957 27.354C35.9673 26.28 38.425 26.8854 39.3302 30.1074C39.7954 31.7691 39.7879 33.6334 40.6703 33.6309C41.7146 33.6309 41.2392 29.8719 42.7133 29.1018C44.1874 28.3292 45.6287 28.3064 45.8613 27.43C46.0939 26.5536 45.2924 22.0549 46.9334 21.5533C48.5744 21.0492 54.8779 23.5316 59.5658 23.2302C64.2511 22.9288 67.9022 12.1253 66.9641 9.6404C66.0261 7.15548 64.686 10.2433 63.6822 9.6404C62.6783 9.03753 63.0804 6.84391 62.0083 6.621C60.9362 6.39809 59.5076 10.1115 58.256 9.44029C57.0044 8.76903 54.1472 4.87573 53.0751 4.87573C52.003 4.87573 52.7768 8.36627 50.9613 8.32068C49.1458 8.27508 48.0282 6.17265 47.4037 6.39556C46.7792 6.61847 46.9562 8.22949 46.3316 8.36374C45.7071 8.49799 38.162 7.55823 34.8093 11.9429C31.459 16.3276 34.4957 27.3565 34.4957 27.3565V27.354Z" fill="black"/>
<path d="M40.668 33.8714C39.8437 33.8714 39.6439 32.8202 39.4138 31.6069C39.3228 31.1357 39.2318 30.6468 39.0978 30.1731C38.6705 28.6533 37.8512 27.6148 36.7893 27.2449C36.0433 26.9866 35.2595 27.098 34.64 27.5514C34.5768 27.5996 34.4934 27.6097 34.4175 27.5844C34.3417 27.559 34.286 27.4957 34.2633 27.4197C34.1369 26.9638 31.2341 16.2236 34.6173 11.7959C37.5301 7.98617 43.3937 8.09003 45.6011 8.13056C45.902 8.13562 46.213 8.14069 46.2812 8.12549C46.4506 8.09003 46.5543 7.67461 46.6352 7.34024C46.7591 6.8387 46.8906 6.31943 47.3204 6.16491C47.7149 6.02306 48.1068 6.37515 48.6049 6.81844C49.2219 7.36811 49.9905 8.05203 50.9665 8.07483C51.7251 8.09763 51.9248 7.31998 52.1221 6.2257C52.2637 5.44046 52.4078 4.62988 53.0753 4.62988C53.7428 4.62988 54.6961 5.58991 56.1879 7.17306C57.0122 8.04697 57.8643 8.95126 58.37 9.2223C58.8706 9.4908 59.566 8.60677 60.1804 7.82659C60.8201 7.01348 61.4219 6.24597 62.0565 6.38022C62.7645 6.52714 62.9491 7.28198 63.1261 8.0115C63.2677 8.59157 63.4143 9.1919 63.8062 9.43001C64.0465 9.57439 64.3701 9.35402 64.8379 9.00192C65.2981 8.6549 65.7734 8.30027 66.2842 8.44719C66.6533 8.55611 66.9492 8.9158 67.1894 9.5516C67.8645 11.3374 66.3803 16.5327 64.2487 19.8434C62.7898 22.113 61.1741 23.3668 59.5786 23.4682C56.9464 23.6379 53.8136 22.9413 51.2978 22.3815C49.3534 21.9483 47.6744 21.576 47.0044 21.7812C46.0082 22.0877 46.084 24.5143 46.132 25.9658C46.1548 26.6598 46.1725 27.2069 46.0967 27.4906C45.9146 28.1695 45.1889 28.4177 44.3495 28.7014C43.8817 28.8585 43.3532 29.0383 42.8273 29.3144C42.1497 29.6691 41.9297 30.8469 41.735 31.8855C41.5352 32.9519 41.3633 33.8714 40.673 33.8714H40.668ZM35.9877 26.6218C36.3063 26.6218 36.63 26.675 36.946 26.7865C38.1622 27.2095 39.0902 28.3645 39.563 30.0414C39.7021 30.5354 39.7956 31.0344 39.8892 31.5157C40.0738 32.4782 40.2457 33.3876 40.668 33.3876C40.9587 33.3876 41.1231 32.5036 41.2546 31.7968C41.4695 30.6494 41.7122 29.3499 42.5972 28.8864C43.156 28.5925 43.7047 28.4076 44.1876 28.243C44.9538 27.9821 45.5075 27.7946 45.6238 27.3665C45.682 27.1512 45.6643 26.5838 45.6441 25.9835C45.5859 24.1901 45.5075 21.7356 46.8577 21.3201C47.6517 21.077 49.3053 21.4443 51.3989 21.9103C53.887 22.4625 56.9818 23.1515 59.5457 22.9869C61.3587 22.8704 62.8808 21.0719 63.8391 19.5825C66.0465 16.1527 67.2956 11.2133 66.7342 9.72384C66.5572 9.25523 66.3524 8.97406 66.1451 8.91327C65.867 8.83221 65.4902 9.11591 65.1236 9.38948C64.6381 9.75424 64.0894 10.1671 63.5509 9.84543C62.982 9.50347 62.805 8.77142 62.6482 8.12549C62.4687 7.38837 62.3321 6.93496 61.9503 6.8539C61.609 6.78297 61.0224 7.52769 60.5521 8.12549C59.8213 9.05512 58.9945 10.1089 58.1348 9.64785C57.5609 9.33882 56.7189 8.44719 55.8288 7.50489C54.825 6.43848 53.5734 5.1137 53.0677 5.1137C52.8048 5.1137 52.696 5.72163 52.5898 6.31183C52.4179 7.27439 52.1802 8.5865 50.9463 8.55864C49.7933 8.53078 48.9159 7.74807 48.2762 7.17813C47.9905 6.92482 47.6011 6.57526 47.4772 6.62086C47.2901 6.68925 47.189 7.09707 47.0979 7.45677C46.969 7.96844 46.8375 8.50038 46.3748 8.59917C46.2559 8.6245 46.0461 8.62197 45.5859 8.61437C43.4468 8.57637 37.7602 8.47505 34.9965 12.0897C32.0711 15.9171 34.1824 25.1374 34.6426 26.9714C35.0572 26.7409 35.5149 26.6218 35.9852 26.6218H35.9877Z" fill="black"/>
<path d="M36.6384 33.1215C36.5777 33.1215 36.5171 33.0987 36.469 33.0531C35.4045 32.017 35.2756 30.7986 35.6953 30.178C35.9835 29.7525 36.5019 29.6385 37.048 29.8842C37.1694 29.9399 37.225 30.0818 37.1694 30.2059C37.1138 30.3275 36.9722 30.3832 36.8483 30.3275C36.6131 30.2211 36.292 30.1578 36.0948 30.4516C35.7889 30.905 35.9709 31.8955 36.8028 32.706C36.8989 32.7998 36.9014 32.9517 36.8078 33.048C36.7598 33.0961 36.6966 33.1215 36.6334 33.1215H36.6384Z" fill="black"/>
<path d="M55.0839 27.4324C54.5832 27.3994 54.1231 28.2024 54.0548 29.2258C53.989 30.2491 54.3405 31.1053 54.8411 31.1382C55.3418 31.1712 55.802 30.3682 55.8702 29.3448C55.936 28.3215 55.5845 27.4653 55.0839 27.4324Z" fill="black"/>
<path d="M54.8746 31.3815C54.8594 31.3815 54.8443 31.3815 54.8291 31.3815C54.1742 31.3384 53.7393 30.4062 53.8177 29.2106C53.8531 28.6787 53.9871 28.1822 54.1995 27.8124C54.4422 27.3894 54.7608 27.169 55.1022 27.1893C55.441 27.2121 55.7318 27.473 55.9164 27.9239C56.0782 28.319 56.149 28.8282 56.1136 29.3601C56.0782 29.892 55.9442 30.3885 55.7318 30.7583C55.4992 31.1611 55.1983 31.3815 54.8746 31.3815ZM55.0567 27.6731C54.9176 27.6731 54.7558 27.8149 54.6192 28.053C54.4448 28.357 54.3285 28.7876 54.3006 29.241C54.2349 30.2391 54.5838 30.8774 54.862 30.8951C55.001 30.9027 55.1704 30.7634 55.312 30.5152C55.4865 30.2112 55.6028 29.7806 55.6306 29.3272C55.661 28.8763 55.6003 28.4305 55.4688 28.1088C55.3601 27.8453 55.2109 27.6832 55.0718 27.6731C55.0668 27.6731 55.0643 27.6731 55.0592 27.6731H55.0567Z" fill="black"/>
<path d="M57.7071 26.989C57.6464 26.989 57.5857 26.9662 57.5402 26.9231C56.6173 26.0416 55.6994 25.611 54.8145 25.6389C53.75 25.6743 53.1027 26.3684 53.0951 26.376C53.0041 26.4748 52.8523 26.4824 52.7537 26.3912C52.6551 26.3 52.6501 26.148 52.7386 26.0492C52.7714 26.0138 53.535 25.1981 54.7993 25.1576C55.8208 25.1247 56.855 25.6009 57.8739 26.5761C57.97 26.6673 57.9751 26.8218 57.8815 26.9181C57.8335 26.9687 57.7703 26.9941 57.7071 26.9941V26.989Z" fill="black"/>
<path d="M51.9549 38.7602C50.5238 38.7602 49.2292 38.2156 48.2911 37.2176C47.5199 36.3944 47.085 35.3406 47.1609 34.4667C47.1735 34.3325 47.2898 34.2362 47.4238 34.2463C47.5578 34.259 47.6565 34.3755 47.6438 34.5098C47.5806 35.2494 47.9624 36.1613 48.6426 36.8858C49.5149 37.8154 50.7362 38.3068 52.0864 38.2739C52.2229 38.2739 52.3316 38.3752 52.3342 38.5095C52.3367 38.6437 52.233 38.7552 52.099 38.7577C52.051 38.7577 52.0029 38.7577 51.9549 38.7577V38.7602Z" fill="black"/>
<path d="M31.4492 52.1829C31.4492 52.1829 31.6212 48.6189 34.6301 44.1987C34.6301 44.1987 44.7668 46.2556 48.3396 47.8235C48.3396 47.8235 45.4596 51.1114 43.8515 55.3391C43.8515 55.3391 39.8818 52.5831 31.4492 52.1829Z" fill="#F0F0E6"/>
<path d="M43.8497 55.5824C43.8017 55.5824 43.7536 55.5672 43.7132 55.5393C43.6727 55.5114 39.6878 52.8163 31.4373 52.4262C31.3741 52.4237 31.3134 52.3958 31.2704 52.3477C31.2274 52.2995 31.2047 52.2362 31.2072 52.1729C31.2148 52.0234 31.4171 48.4898 34.4311 44.0646C34.4867 43.9835 34.5828 43.9455 34.6788 43.9633C35.0935 44.0469 44.8813 46.0454 48.4364 47.6033C48.5072 47.6337 48.5578 47.697 48.5755 47.773C48.5932 47.849 48.5729 47.9275 48.5224 47.9857C48.4946 48.0187 45.65 51.2939 44.0773 55.4278C44.052 55.4962 43.9938 55.552 43.923 55.5722C43.9003 55.5798 43.875 55.5824 43.8522 55.5824H43.8497ZM31.7129 51.955C38.866 52.3375 42.7346 54.3766 43.7309 54.9795C45.0912 51.5548 47.2581 48.7583 47.9408 47.9224C44.4591 46.509 35.9987 44.7333 34.737 44.4724C32.3223 48.0719 31.8115 51.1014 31.7104 51.9576L31.7129 51.955Z" fill="black"/>
<path d="M67.2292 103.659V107.821C67.2292 107.821 69.9979 110.683 67.9448 113.817C65.4391 117.637 56.4224 120.438 37.307 119.724C17.658 118.987 6.84871 115.251 15.7794 105.496C15.7794 105.496 18.7832 87.1463 20.7807 74.9826C23.1929 60.3087 29.1273 50.9212 31.7873 50.2905C34.4473 49.6598 46.182 51.481 50.0784 59.949C53.186 66.7046 54.8118 72.209 59.0116 77.9362L67.2292 103.662V103.659Z" fill="#F0F0E6"/>
<path d="M42.9188 120.073C41.1261 120.073 39.2525 120.038 37.298 119.965C22.4026 119.407 14.3544 117.196 12.6907 113.204C11.8031 111.076 12.7665 108.444 15.5529 105.384C15.7577 104.133 18.6174 86.6651 20.5442 74.9421C22.8653 60.8204 28.7213 50.7692 31.7328 50.0549C33.0375 49.7459 36.638 49.984 40.5572 51.481C43.819 52.7273 48.1579 55.1919 50.2995 59.8477C51.1643 61.7297 51.9152 63.5105 52.6384 65.2329C54.5449 69.7671 56.1934 73.6807 59.2074 77.7918C59.2226 77.8121 59.2352 77.8374 59.2428 77.8602L67.4604 103.586C67.468 103.609 67.4731 103.634 67.4731 103.659V107.727C67.8979 108.214 70.0951 110.98 68.1482 113.949C65.5287 117.941 56.6536 120.073 42.9188 120.073ZM33.0324 50.4222C32.5318 50.4222 32.1272 50.4602 31.844 50.5261C29.4419 51.096 23.4469 60.258 21.0195 75.0206C19.0195 87.1843 16.0182 105.534 16.0182 105.534C16.0106 105.579 15.9903 105.622 15.9575 105.658C13.2722 108.591 12.3215 111.066 13.1357 113.016C14.6958 116.763 22.8325 118.936 37.3157 119.478C59.928 120.327 66.0824 116.211 67.7411 113.683C69.6678 110.747 67.0812 108.016 67.0559 107.988C67.0129 107.943 66.9876 107.882 66.9876 107.819V103.695L58.7927 78.0426C55.7585 73.896 54.0265 69.7772 52.1908 65.4153C51.4677 63.6979 50.7218 61.9197 49.857 60.0453C46.4233 52.5778 36.8732 50.4171 33.0299 50.4171L33.0324 50.4222Z" fill="black"/>
<path d="M38.7532 112.155C36.3612 112.155 33.3953 112.026 29.8706 111.641C19.2585 110.478 15.7337 105.835 15.5896 105.638C15.5112 105.529 15.534 105.379 15.6402 105.298C15.7464 105.22 15.8981 105.242 15.979 105.349C16.0144 105.394 19.5442 110.022 29.9237 111.157C40.3815 112.302 45.8709 111.172 45.924 111.162C46.0555 111.134 46.1844 111.218 46.2122 111.35C46.2401 111.481 46.1566 111.611 46.0251 111.638C45.9897 111.646 43.5143 112.158 38.7532 112.158V112.155Z" fill="black"/>
<path d="M110.44 70.6384C107.897 69.9672 106.822 66.4766 106.822 66.4766C106.822 66.4766 104.425 68.6221 101.998 75.1346C98.4956 84.5575 86.2551 97.4406 75.1803 103.256C65.3091 108.442 53.415 107.781 47.0078 101.205C45.7461 99.9129 44.6993 98.388 43.918 96.6351L60.8918 84.1953C60.8918 84.1953 61.3823 84.5803 62.3532 84.7272C63.9715 84.9831 66.9475 84.5651 71.2535 80.5705C79.3574 73.0575 81.7038 66.1195 83.0869 62.2743C84.47 58.4266 85.6306 56.2355 89.9189 56.1899C89.9189 56.1899 92.1061 52.5195 95.4108 52.7475C98.713 52.9704 99.6587 54.4446 99.6587 54.4446C99.6587 54.4446 103.578 53.1933 106.491 56.8181C106.491 56.8181 111.444 57.7579 112.718 62.9253C113.995 68.0927 112.986 71.3147 110.443 70.641L110.44 70.6384Z" fill="#FFAD95"/>
<path d="M61.5795 106.937C55.7766 106.937 50.4213 105.05 46.8384 101.372C45.5337 100.037 44.4793 98.4768 43.7005 96.7315C43.655 96.6277 43.6854 96.5035 43.7789 96.4377L60.7527 83.9979C60.8412 83.9346 60.96 83.9346 61.0435 84.0029C61.046 84.0055 61.5062 84.3525 62.3937 84.4868C63.7641 84.7021 66.7124 84.4564 71.0943 80.3908C78.9478 73.1108 81.3321 66.4641 82.7557 62.4923L82.8644 62.1909C84.1969 58.4875 85.403 56.0432 89.79 55.9469C90.2072 55.301 92.3235 52.2892 95.4336 52.502C98.2453 52.6919 99.416 53.7685 99.7573 54.1636C100.549 53.9737 103.998 53.3835 106.632 56.5928C107.32 56.7575 111.76 57.9911 112.959 62.8621C113.839 66.4236 113.664 69.2403 112.493 70.3954C111.952 70.9273 111.224 71.092 110.385 70.8716C108.225 70.3017 107.098 67.875 106.731 66.9251C106.053 67.6775 104.144 70.0864 102.23 75.2183C98.6979 84.7198 86.3664 97.6586 75.2992 103.469C70.8718 105.795 66.0904 106.935 61.5821 106.935L61.5795 106.937ZM44.2239 96.7138C44.9698 98.3324 45.9661 99.7864 47.1848 101.035C53.4049 107.418 65.1321 108.264 75.0716 103.044C86.0503 97.2787 98.2781 84.4614 101.775 75.0537C104.197 68.5615 106.567 66.3907 106.665 66.2995C106.726 66.2437 106.812 66.2235 106.89 66.2463C106.969 66.2691 107.032 66.3299 107.057 66.4084C107.067 66.4413 108.122 69.7773 110.506 70.4081C111.179 70.5854 111.732 70.4663 112.149 70.056C113.181 69.0377 113.31 66.3273 112.483 62.9862C111.262 58.0265 106.496 57.0665 106.448 57.0589C106.392 57.0488 106.342 57.0184 106.304 56.9728C103.532 53.5278 99.8863 54.6297 99.732 54.6778C99.6284 54.7108 99.5146 54.6702 99.4539 54.5765C99.4463 54.5639 98.5108 53.2011 95.3956 52.9908C92.278 52.7781 90.149 56.2813 90.1288 56.3167C90.0858 56.3902 90.0074 56.4332 89.924 56.4358C85.8733 56.4788 84.7532 58.366 83.317 62.3606L83.2083 62.662C81.7696 66.6744 79.3599 73.392 71.4204 80.753C67.1144 84.7451 64.0954 85.2517 62.3178 84.9706C61.6023 84.8617 61.1295 84.6286 60.9019 84.4918L44.2239 96.7138Z" fill="black"/>
<path d="M106.821 66.7225C106.768 66.7225 106.712 66.7048 106.667 66.6668C106.563 66.5832 106.548 66.4287 106.634 66.3248C107.352 65.4459 108.075 64.9722 108.783 64.9165C109.448 64.8633 109.845 65.2078 109.863 65.223C109.964 65.3116 109.972 65.4661 109.883 65.5649C109.795 65.6662 109.64 65.6739 109.542 65.5852C109.532 65.5776 109.269 65.3572 108.808 65.4003C108.247 65.4509 107.625 65.8765 107.008 66.6313C106.96 66.6896 106.892 66.72 106.821 66.72V66.7225Z" fill="black"/>
<path d="M98.6482 65.3978C98.6204 65.3978 98.5951 65.3927 98.5673 65.3826C98.4409 65.337 98.3752 65.2002 98.4207 65.0735C98.5496 64.7113 101.627 56.2307 106.504 56.5752C106.638 56.5853 106.737 56.6993 106.729 56.8335C106.722 56.9678 106.605 57.0716 106.471 57.059C101.948 56.7474 98.9087 65.1521 98.8783 65.2382C98.8429 65.337 98.7494 65.4003 98.6508 65.4003L98.6482 65.3978Z" fill="black"/>
<path d="M93.5629 62.2263C93.53 62.2263 93.4997 62.2187 93.4668 62.2061C93.3429 62.1529 93.2873 62.011 93.3404 61.8869C93.4618 61.6032 96.3746 54.9185 99.606 54.2067C99.735 54.1763 99.8664 54.2599 99.8943 54.3916C99.9221 54.5233 99.8412 54.6525 99.7097 54.6804C96.7185 55.339 93.8132 62.011 93.7829 62.0794C93.7424 62.1706 93.6539 62.2263 93.5604 62.2263H93.5629Z" fill="black"/>
<path d="M62.3532 84.7273C60.4619 87.7442 54.8487 95.9943 47.0078 101.202C45.7461 99.9104 44.6993 98.3855 43.918 96.6327L60.8918 84.1929C60.8918 84.1929 61.3823 84.5779 62.3532 84.7248V84.7273Z" fill="black"/>
<path d="M47.0103 101.445C46.9471 101.445 46.8839 101.42 46.8384 101.372C45.5337 100.037 44.4793 98.4767 43.7005 96.7314C43.655 96.6276 43.6854 96.5035 43.7789 96.4376L60.7527 83.9978C60.8412 83.9345 60.96 83.9345 61.0435 84.0029C61.046 84.0054 61.5062 84.3524 62.3937 84.4867C62.4746 84.4994 62.5429 84.55 62.5783 84.626C62.6137 84.702 62.6061 84.7856 62.5631 84.8565C60.5251 88.1064 54.9422 96.2274 47.1469 101.405C47.1064 101.433 47.0584 101.445 47.0129 101.445H47.0103ZM44.2214 96.7137C44.9395 98.2715 45.8877 99.6748 47.0432 100.891C54.4416 95.9133 59.8121 88.2761 61.9588 84.8996C61.4405 84.7805 61.0865 84.6032 60.8994 84.4892L44.2214 96.7112V96.7137Z" fill="black"/>
<path d="M87.6856 61.6208C87.6629 61.6208 87.6401 61.6183 87.6173 61.6107C87.4884 61.5727 87.4176 61.4359 87.4555 61.3092C87.496 61.1725 88.4619 57.9656 89.7185 56.0557C89.7918 55.9442 89.941 55.9138 90.0548 55.9873C90.1661 56.0608 90.1964 56.2102 90.1231 56.3242C88.9069 58.1733 87.9283 61.4182 87.9208 61.4511C87.8904 61.5575 87.7943 61.6233 87.6881 61.6233L87.6856 61.6208Z" fill="black"/>
<path d="M58.9231 76.4115C57.9395 76.0594 38.3791 90.7283 38.2906 92.2507C38.2021 93.773 42.0429 98.6922 43.2034 98.7834C44.364 98.8721 63.8815 83.4584 63.8815 82.6555C63.8815 81.8525 59.8612 76.7484 58.9231 76.414V76.4115Z" fill="#F0F0E6"/>
<path d="M43.199 99.0241C43.199 99.0241 43.1889 99.0241 43.1838 99.0241C41.8462 98.9202 37.9574 93.7832 38.0484 92.2355C38.1319 90.8271 51.0727 81.0217 56.0792 77.7034C58.595 76.0367 58.8428 76.1228 59.0046 76.181C60.0084 76.5407 64.1223 81.7411 64.1223 82.6505C64.1223 82.7999 64.054 82.9671 63.1817 83.7777C59.7227 86.987 44.4885 99.0215 43.1965 99.0241H43.199ZM58.8656 76.6497C58.279 76.7231 54.0993 79.5019 48.2737 83.9296C41.9878 88.707 38.6148 91.7416 38.5314 92.2684C38.4454 93.7376 42.2306 98.4643 43.2218 98.5428C44.3596 98.4187 62.853 83.998 63.6368 82.6226C63.518 81.9007 59.8264 77.0524 58.8656 76.6497Z" fill="black"/>
<path d="M49.5789 55.5796C49.5537 55.5796 49.5284 55.5745 49.5031 55.5669C49.3994 55.5315 49.3311 55.4352 49.3362 55.3263L49.5006 51.8738C49.5056 51.7395 49.6194 51.6331 49.7534 51.6432C49.8874 51.6483 49.9911 51.7623 49.9835 51.8966L49.8495 54.731C50.3729 54.3308 51.3413 53.9002 52.7775 54.4423C52.9039 54.4904 52.9671 54.6297 52.9191 54.7538C52.871 54.8805 52.732 54.9438 52.6081 54.8957C50.6814 54.1712 49.8141 55.42 49.7787 55.4732C49.7332 55.5416 49.6573 55.5796 49.5764 55.5796H49.5789Z" fill="black"/>
<path d="M39.8951 90.6625C39.8218 90.6625 39.751 90.6296 39.703 90.5688C39.6499 90.5004 34.4867 83.7422 34.4766 75.4262C34.4639 65.2029 40.9369 60.0734 41.0026 60.0228C41.1088 59.9417 41.2605 59.9594 41.3414 60.0658C41.4224 60.1722 41.4047 60.3242 41.2985 60.4053C41.2353 60.4534 34.9469 65.4486 34.9621 75.4262C34.9722 83.5776 40.0367 90.2066 40.0873 90.2724C40.1682 90.3788 40.1505 90.5308 40.0443 90.6119C40.0013 90.6473 39.9482 90.6625 39.8951 90.6625Z" fill="black"/>
<path d="M170.308 185.492L112.436 180.694C112.436 180.694 85.9423 186.196 81.5352 223.353L137.503 231.213C137.503 231.213 139.643 198.555 170.308 185.489V185.492Z" fill="#3DC184"/>
<path d="M137.499 231.459C137.499 231.459 137.476 231.459 137.466 231.459L81.4981 223.599C81.3666 223.581 81.2755 223.462 81.2907 223.331C83.5765 204.057 91.9003 193.431 98.4794 187.909C105.617 181.918 112.318 180.477 112.384 180.461C112.406 180.456 112.429 180.456 112.452 180.456L170.324 185.254C170.435 185.264 170.526 185.348 170.544 185.457C170.562 185.565 170.501 185.674 170.4 185.717C154.64 192.433 146.599 204.444 142.632 213.338C138.326 222.986 137.747 231.153 137.742 231.234C137.737 231.302 137.707 231.363 137.653 231.406C137.61 231.441 137.555 231.459 137.502 231.459H137.499ZM81.7989 223.148L137.279 230.94C137.416 229.466 138.275 221.912 142.182 213.153C146.111 204.34 153.995 192.498 169.328 185.654L112.449 180.94C111.936 181.057 105.559 182.589 98.7702 188.294C92.2947 193.735 84.1075 204.196 81.8015 223.148H81.7989Z" fill="black"/>
<path d="M159.443 184.593C145.476 192.59 138.078 204.65 134.454 214.594C128.914 213.776 123.572 217.001 121.612 222.254L98.226 218.969C100.213 214.268 97.2045 208.981 92.1602 208.244C99.154 191.45 112.952 183.162 121.822 181.477L124.333 181.688L147.701 183.625L159.443 184.598V184.593Z" fill="#F0F0E6"/>
<path d="M121.615 222.495C121.615 222.495 121.592 222.495 121.582 222.495L98.196 219.209C98.1227 219.199 98.057 219.154 98.019 219.088C97.9811 219.022 97.9786 218.943 98.0064 218.875C98.9192 216.717 98.7852 214.308 97.6372 212.266C96.4792 210.204 94.4716 208.826 92.1276 208.485C92.0543 208.474 91.9886 208.429 91.9532 208.363C91.9153 208.297 91.9127 208.219 91.9405 208.15C99.5235 189.943 114.265 182.665 121.782 181.239C121.802 181.234 121.825 181.234 121.848 181.237L159.469 184.357C159.575 184.365 159.664 184.443 159.687 184.547C159.709 184.651 159.661 184.757 159.57 184.811C144.95 193.18 137.972 205.675 134.69 214.685C134.649 214.794 134.541 214.858 134.427 214.842C129.054 214.047 123.764 217.203 121.848 222.345C121.812 222.442 121.721 222.502 121.62 222.502L121.615 222.495ZM98.5677 218.769L121.458 221.986C123.486 216.801 128.831 213.609 134.298 214.326C137.585 205.394 144.462 193.149 158.657 184.77L121.837 181.718C114.447 183.136 100.032 190.267 92.5044 208.051C94.866 208.487 96.8787 209.923 98.0595 212.026C99.2302 214.108 99.4097 216.55 98.5703 218.771L98.5677 218.769Z" fill="black"/>
<path d="M116.613 207.183C119.82 207.183 122.421 205.366 122.421 203.125C122.421 200.883 119.82 199.067 116.613 199.067C113.405 199.067 110.805 200.883 110.805 203.125C110.805 205.366 113.405 207.183 116.613 207.183Z" fill="#3DC184"/>
<path d="M116.615 207.423C113.279 207.423 110.566 205.496 110.566 203.125C110.566 200.754 113.279 198.826 116.615 198.826C119.95 198.826 122.663 200.754 122.663 203.125C122.663 205.496 119.95 207.423 116.615 207.423ZM116.615 199.31C113.545 199.31 111.049 201.022 111.049 203.125C111.049 205.227 113.545 206.94 116.615 206.94C119.684 206.94 122.18 205.227 122.18 203.125C122.18 201.022 119.684 199.31 116.615 199.31Z" fill="black"/>
<path d="M148.031 186.32C147.546 191.012 141.712 194.251 134.994 193.555C128.276 192.858 123.226 188.491 123.712 183.8C123.788 183.053 124.003 182.344 124.334 181.68L147.702 183.618C148.006 184.489 148.125 185.393 148.031 186.318V186.32Z" fill="#3DC184"/>
<path d="M136.789 193.892C136.193 193.892 135.583 193.861 134.969 193.798C131.672 193.456 128.66 192.235 126.493 190.361C124.301 188.466 123.227 186.128 123.472 183.777C123.55 183.015 123.768 182.275 124.119 181.574C124.165 181.485 124.256 181.434 124.354 181.442L147.723 183.38C147.819 183.387 147.9 183.451 147.93 183.542C148.254 184.466 148.367 185.409 148.271 186.348C147.819 190.731 142.835 193.894 136.789 193.894V193.892ZM124.481 181.938C124.198 182.541 124.021 183.177 123.955 183.828C123.73 186.017 124.744 188.208 126.812 189.996C128.906 191.807 131.821 192.985 135.019 193.317C141.591 193.998 147.321 190.847 147.791 186.298C147.874 185.482 147.786 184.659 147.525 183.851L124.481 181.938Z" fill="black"/>
<path d="M168.273 75.7783V85.3178C168.273 88.1497 166.007 90.4573 163.175 90.508C149.033 90.7385 110.325 91.3743 110.325 91.3743C108.57 90.9867 107.293 89.396 107.293 87.5975V77.9669L168.275 75.7783H168.273Z" fill="black"/>
<path d="M110.324 91.6147C110.306 91.6147 110.288 91.6147 110.271 91.6097C108.402 91.1968 107.047 89.5098 107.047 87.5948V77.9641C107.047 77.8324 107.151 77.726 107.279 77.721L168.262 75.5324C168.328 75.5299 168.391 75.5552 168.439 75.6008C168.487 75.6464 168.512 75.7097 168.512 75.7756V85.315C168.512 88.2584 166.118 90.6952 163.177 90.7459C149.035 90.9764 110.326 91.6122 110.326 91.6122H110.321L110.324 91.6147ZM107.532 78.1972V87.5948C107.532 89.2717 108.716 90.7535 110.349 91.1284C111.537 91.1081 149.253 90.4901 163.172 90.2621C165.852 90.2139 168.032 87.995 168.032 85.315V76.0263L107.535 78.1972H107.532Z" fill="black"/>
<path d="M161.796 46.4479C161.152 45.265 160.297 44.3278 159.235 43.6388C158.17 42.9498 157.005 42.3697 155.733 41.896C155.035 41.6351 154.345 41.3844 153.662 41.1361V30.9558C154.213 31.085 154.696 31.2648 155.106 31.5004C155.996 32.0172 156.623 32.6631 156.987 33.4382C157.351 34.2133 157.536 35.0315 157.536 35.8927V36.602H162.031C162.067 36.4728 162.085 36.2904 162.085 36.0523V35.3734C162.085 34.1246 161.875 32.9417 161.457 31.8221C161.04 30.7025 160.393 29.7146 159.523 28.8534C158.651 27.9921 157.564 27.3259 156.256 26.8523C155.47 26.5686 154.605 26.371 153.662 26.257V20.7932H149.7V26.2646C148.823 26.3685 147.988 26.5382 147.209 26.7864C145.867 27.217 144.726 27.83 143.786 28.6254C142.845 29.4233 142.122 30.4011 141.616 31.5637C141.111 32.7264 140.858 34.0613 140.858 35.566C140.858 37.2454 141.128 38.6335 141.669 39.7303C142.211 40.8271 142.924 41.7314 143.814 42.4432C144.704 43.1524 145.705 43.735 146.82 44.1859C147.781 44.576 148.742 44.9357 149.703 45.2777V56.8588C149.134 56.7726 148.59 56.6511 148.077 56.4864C146.997 56.1419 146.15 55.5289 145.541 54.6474C144.931 53.7659 144.608 52.5703 144.572 51.0631V50.7085C144.572 50.6021 144.59 50.4603 144.625 50.288H140.077C140.041 50.4172 140.023 50.5793 140.023 50.7718V51.3215C140.023 52.9148 140.266 54.346 140.754 55.615C141.242 56.8841 141.958 57.9606 142.898 58.8421C143.839 59.7262 145.025 60.4025 146.453 60.8762C147.429 61.2004 148.514 61.4106 149.7 61.512V67.6445H153.662V61.4436C154.459 61.3423 155.22 61.1877 155.943 60.9724C157.318 60.5646 158.522 59.9288 159.551 59.0676C160.578 58.2063 161.372 57.1095 161.93 55.7746C162.487 54.4422 162.767 52.892 162.767 51.1265C162.767 49.1887 162.444 47.6309 161.799 46.4454L161.796 46.4479ZM148.777 39.3123C147.783 38.9248 146.989 38.4308 146.398 37.828C145.804 37.2251 145.508 36.3664 145.508 35.2443C145.508 34.5122 145.629 33.8789 145.874 33.3394C146.117 32.8024 146.484 32.3388 146.972 31.9513C147.46 31.5637 148.069 31.2623 148.802 31.047C149.078 30.9659 149.381 30.9051 149.697 30.8545V39.667C149.384 39.5454 149.075 39.4263 148.777 39.3098V39.3123ZM157.194 54.7107C156.62 55.4656 155.844 56.0355 154.868 56.4231C154.481 56.5776 154.074 56.6916 153.66 56.7853V46.719C153.766 46.757 153.875 46.7975 153.978 46.8355C155.197 47.2864 156.183 47.8791 156.931 48.6112C157.68 49.3432 158.057 50.44 158.057 51.9041C158.057 53.0237 157.768 53.961 157.194 54.7133V54.7107Z" fill="#F0F0E6"/>
<path d="M153.66 67.8875H149.698C149.564 67.8875 149.455 67.7786 149.455 67.6443V61.7322C148.33 61.6207 147.293 61.4105 146.373 61.104C144.916 60.6227 143.69 59.9211 142.727 59.0168C141.763 58.115 141.023 56.9979 140.522 55.6985C140.026 54.4092 139.773 52.9349 139.773 51.3188V50.7692C139.773 50.5513 139.794 50.3715 139.834 50.222C139.862 50.1156 139.958 50.0422 140.067 50.0422H144.616C144.689 50.0422 144.757 50.0751 144.803 50.1308C144.848 50.1866 144.866 50.2626 144.853 50.3335C144.823 50.488 144.805 50.6121 144.805 50.7058V51.0605C144.838 52.5068 145.149 53.667 145.731 54.5054C146.307 55.3388 147.116 55.9265 148.14 56.2532C148.547 56.3824 148.987 56.4888 149.453 56.5724V45.4472C148.477 45.0977 147.581 44.7582 146.722 44.4112C145.592 43.9527 144.56 43.3549 143.655 42.633C142.742 41.9035 141.999 40.9637 141.445 39.8391C140.891 38.7144 140.61 37.2756 140.61 35.5683C140.61 34.0358 140.873 32.6553 141.389 31.4673C141.905 30.2768 142.658 29.2585 143.624 28.4403C144.585 27.6272 145.766 26.994 147.131 26.5532C147.832 26.3303 148.611 26.1581 149.453 26.0466V20.7905C149.453 20.6563 149.561 20.5474 149.695 20.5474H153.657C153.791 20.5474 153.9 20.6563 153.9 20.7905V26.039C154.78 26.1581 155.599 26.3531 156.335 26.6191C157.67 27.1029 158.798 27.7944 159.69 28.6759C160.583 29.5599 161.253 30.5884 161.683 31.7333C162.11 32.8757 162.325 34.0992 162.325 35.3682V36.0471C162.325 36.3055 162.305 36.5056 162.264 36.6576C162.237 36.7639 162.141 36.8374 162.029 36.8374H157.534C157.4 36.8374 157.291 36.7285 157.291 36.5942V35.885C157.291 35.0643 157.114 34.274 156.765 33.5343C156.421 32.8073 155.822 32.1918 154.98 31.7029C154.674 31.5256 154.31 31.3761 153.9 31.2596V40.9587C154.532 41.1866 155.169 41.4197 155.814 41.6603C157.096 42.1391 158.29 42.7318 159.364 43.4259C160.457 44.1326 161.347 45.1078 162.007 46.3211C162.669 47.537 163.003 49.1505 163.003 51.1187C163.003 52.9071 162.715 54.5029 162.148 55.8606C161.579 57.2259 160.755 58.3632 159.701 59.2448C158.651 60.1237 157.41 60.7798 156.006 61.1952C155.352 61.3902 154.644 61.5422 153.9 61.6461V67.6342C153.9 67.7685 153.791 67.8774 153.657 67.8774L153.66 67.8875ZM149.941 67.4037H153.417V61.446C153.417 61.3244 153.508 61.2205 153.63 61.2053C154.426 61.104 155.18 60.947 155.872 60.7418C157.212 60.3441 158.396 59.7184 159.395 58.8825C160.388 58.0517 161.165 56.9751 161.706 55.6833C162.249 54.3838 162.522 52.8513 162.522 51.1289C162.522 49.2443 162.206 47.7067 161.584 46.5643C160.962 45.4219 160.125 44.5075 159.104 43.8438C158.06 43.1675 156.896 42.59 155.647 42.1239C154.949 41.8655 154.262 41.6122 153.579 41.3665C153.483 41.331 153.42 41.2398 153.42 41.1385V30.9582C153.42 30.8847 153.453 30.8138 153.511 30.7682C153.569 30.7226 153.645 30.7049 153.716 30.7226C154.297 30.8569 154.805 31.0494 155.225 31.2951C156.153 31.8346 156.818 32.5211 157.205 33.3393C157.584 34.1422 157.776 35.0035 157.776 35.8951V36.3637H161.827C161.835 36.2852 161.84 36.1864 161.84 36.0572V35.3784C161.84 34.165 161.635 32.9998 161.228 31.9132C160.823 30.8341 160.191 29.8639 159.349 29.0305C158.507 28.1997 157.438 27.5436 156.168 27.0852C155.407 26.8091 154.553 26.614 153.627 26.5026C153.506 26.4874 153.415 26.3835 153.415 26.2619V21.0413H149.938V26.2695C149.938 26.3911 149.847 26.495 149.726 26.5102C148.833 26.6165 148.011 26.7888 147.281 27.0244C145.976 27.4423 144.851 28.0477 143.938 28.8178C143.028 29.5878 142.32 30.5453 141.834 31.6674C141.344 32.7921 141.096 34.1068 141.096 35.5734C141.096 37.2072 141.361 38.5725 141.882 39.6314C142.403 40.6927 143.103 41.5767 143.961 42.2607C144.828 42.9522 145.819 43.5272 146.906 43.9679C147.806 44.3327 148.745 44.6873 149.779 45.0546C149.875 45.0901 149.941 45.1813 149.941 45.2826V56.8637C149.941 56.9346 149.91 57.0005 149.857 57.0486C149.804 57.0942 149.733 57.1145 149.662 57.1043C149.068 57.0157 148.509 56.8865 147.999 56.7244C146.871 56.3647 145.976 55.7137 145.339 54.7916C144.704 53.8747 144.363 52.6234 144.327 51.0757V50.716C144.327 50.6628 144.33 50.602 144.337 50.5387H140.274C140.267 50.6096 140.261 50.6906 140.261 50.7793V51.329C140.261 52.8868 140.502 54.3002 140.977 55.5364C141.45 56.7649 142.15 57.8212 143.06 58.6748C143.971 59.531 145.139 60.1972 146.527 60.6557C147.47 60.9698 148.545 61.18 149.721 61.2813C149.847 61.2915 149.943 61.3978 149.943 61.522V67.4113L149.941 67.4037ZM153.66 57.0258C153.604 57.0258 153.551 57.0081 153.508 56.9726C153.45 56.927 153.417 56.8561 153.417 56.7826V46.7163C153.417 46.6378 153.455 46.5618 153.521 46.5162C153.587 46.4706 153.668 46.4605 153.743 46.4883L154.065 46.6074C155.309 47.0684 156.333 47.6839 157.104 48.4362C157.898 49.2113 158.3 50.3791 158.3 51.9014C158.3 53.0717 157.994 54.0647 157.387 54.8575C156.788 55.6428 155.971 56.2431 154.957 56.6458C154.59 56.7902 154.183 56.9118 153.713 57.0182C153.695 57.0233 153.678 57.0233 153.66 57.0233V57.0258ZM153.903 47.0633V56.4761C154.226 56.3925 154.515 56.3013 154.78 56.1975C155.711 55.8277 156.459 55.278 157.003 54.5637C157.541 53.857 157.814 52.9628 157.814 51.904C157.814 50.5159 157.46 49.4672 156.762 48.7858C156.042 48.0816 155.078 47.5041 153.9 47.0659L153.903 47.0633ZM149.698 39.91C149.667 39.91 149.64 39.9049 149.612 39.8948C149.298 39.7732 148.99 39.6542 148.689 39.5376C147.667 39.1399 146.838 38.6207 146.226 37.9975C145.592 37.3516 145.268 36.4245 145.268 35.2441C145.268 34.4817 145.399 33.8079 145.655 33.2379C145.913 32.6655 146.307 32.169 146.823 31.7612C147.331 31.3584 147.976 31.0393 148.734 30.8138C148.992 30.7378 149.296 30.672 149.66 30.6137C149.731 30.6036 149.801 30.6238 149.855 30.6694C149.908 30.715 149.941 30.7834 149.941 30.8543V39.6668C149.941 39.7479 149.9 39.8213 149.834 39.8669C149.794 39.8948 149.746 39.91 149.698 39.91ZM149.455 31.1431C149.233 31.1836 149.04 31.2292 148.871 31.2799C148.171 31.4851 147.584 31.7764 147.124 32.1411C146.669 32.5034 146.322 32.939 146.095 33.438C145.867 33.9421 145.751 34.5501 145.751 35.2416C145.751 36.2903 146.026 37.1008 146.57 37.653C147.134 38.228 147.908 38.7093 148.866 39.0817C149.061 39.1577 149.258 39.2337 149.458 39.3122V31.1406L149.455 31.1431Z" fill="black"/>
<path d="M153.66 99.832H120.008C116.026 99.832 112.797 103.067 112.797 107.056C112.797 111.046 116.026 114.281 120.008 114.281H153.66C157.642 114.281 160.871 111.046 160.871 107.056C160.871 103.067 157.642 99.832 153.66 99.832Z" fill="#3DC184"/>
<path d="M153.66 114.521H120.009C115.9 114.521 112.555 111.173 112.555 107.054C112.555 102.935 115.897 99.5864 120.009 99.5864H153.66C157.769 99.5864 161.114 102.935 161.114 107.054C161.114 111.173 157.772 114.521 153.66 114.521ZM120.009 100.073C116.165 100.073 113.04 103.204 113.04 107.054C113.04 110.904 116.165 114.035 120.009 114.035H153.66C157.504 114.035 160.629 110.904 160.629 107.054C160.629 103.204 157.504 100.073 153.66 100.073H120.009Z" fill="black"/>
</svg>
