<?xml version="1.0" encoding="UTF-8"?>
<!DOCTYPE svg PUBLIC "-//W3C//DTD SVG 1.1//EN" "http://www.w3.org/Graphics/SVG/1.1/DTD/svg11.dtd">
<!-- Creator: CorelDRAW -->
<svg xmlns="http://www.w3.org/2000/svg" xml:space="preserve" width="162.56mm" height="167.04mm" version="1.1" style="shape-rendering:geometricPrecision; text-rendering:geometricPrecision; image-rendering:optimizeQuality; fill-rule:evenodd; clip-rule:evenodd"
viewBox="0 0 16255.98 16703.96"
 xmlns:xlink="http://www.w3.org/1999/xlink"
 xmlns:xodm="http://www.corel.com/coreldraw/odm/2003">
 <defs>
  <style type="text/css">
   <![CDATA[
    .fil0 {fill:#848688}
   ]]>
  </style>
 </defs>
 <g id="Camada_x0020_1">
  <metadata id="CorelCorpID_0Corel-Layer"/>
  <path class="fil0" d="M833.63 866.89c237.76,0 431.2,-193.42 431.2,-431.24 0,-237.66 -193.44,-431.08 -431.2,-431.08 -237.78,0 -431.2,193.42 -431.2,431.08 0,237.82 193.42,431.24 431.2,431.24l0 0zm0 -804.98c206.05,0 373.7,167.68 373.7,373.74 0,206.06 -167.65,373.74 -373.7,373.74 -206.04,0 -373.7,-167.68 -373.7,-373.74 0,-206.06 167.66,-373.74 373.7,-373.74z"/>
  <path class="fil0" d="M1236.08 809.39c-15.89,0 -28.75,12.95 -28.75,28.75 0,15.8 12.86,28.75 28.75,28.75 206.05,0 373.69,167.67 373.69,373.74 0,206 -167.64,373.66 -373.69,373.66l-804.9 0c-206.04,0 -373.69,-167.66 -373.69,-373.66 0,-206.07 167.65,-373.74 373.69,-373.74 15.9,0 28.75,-12.95 28.75,-28.75 0,-15.8 -12.85,-28.75 -28.75,-28.75 -237.79,0 -431.19,193.42 -431.19,431.24 0,237.71 193.4,431.14 431.19,431.14l804.9 0c237.76,0 431.19,-193.43 431.19,-431.14 0,-237.82 -193.43,-431.24 -431.19,-431.24z"/>
  <path class="fil0" d="M2500.91 852.59c118.89,0 215.59,-96.78 215.59,-215.69 0,-118.91 -96.7,-215.54 -215.59,-215.54 -118.89,0 -215.6,96.63 -215.6,215.54 0,118.91 96.71,215.69 215.6,215.69l0 0zm0 -402.49c103.02,0 186.86,83.84 186.86,186.8 0,103.1 -83.84,186.79 -186.86,186.79 -103.02,0 -186.85,-83.69 -186.85,-186.79 0,-102.96 83.83,-186.8 186.85,-186.8z"/>
  <path class="fil0" d="M2702.14 823.69c-7.94,0 -14.37,6.47 -14.37,14.45 0,7.98 6.43,14.45 14.37,14.45 103.02,0 186.84,83.69 186.84,186.79 0,102.96 -83.82,186.8 -186.84,186.8l-402.45 0c-103.02,0 -186.86,-83.84 -186.86,-186.8 0,-103.1 83.84,-186.79 186.86,-186.79 7.94,0 14.37,-6.47 14.37,-14.45 0,-7.98 -6.43,-14.45 -14.37,-14.45 -118.9,0 -215.6,96.78 -215.6,215.69 0,118.91 96.7,215.55 215.6,215.55l402.45 0c118.87,0 215.59,-96.64 215.59,-215.55 0,-118.91 -96.72,-215.69 -215.59,-215.69z"/>
  <path class="fil0" d="M4168.19 866.89c237.76,0 431.19,-193.42 431.19,-431.24 0,-237.66 -193.43,-431.08 -431.19,-431.08 -237.77,0 -431.18,193.42 -431.18,431.08 0,237.82 193.41,431.24 431.18,431.24l0 0zm0 -804.98c206.06,0 373.7,167.68 373.7,373.74 0,206.06 -167.64,373.74 -373.7,373.74 -206.04,0 -373.69,-167.68 -373.69,-373.74 0,-206.06 167.65,-373.74 373.69,-373.74z"/>
  <path class="fil0" d="M4570.65 809.39c-15.9,0 -28.76,12.95 -28.76,28.75 0,15.8 12.86,28.75 28.76,28.75 206.04,0 373.69,167.67 373.69,373.74 0,206 -167.65,373.66 -373.69,373.66l-804.9 0c-206.04,0 -373.7,-167.66 -373.7,-373.66 0,-206.07 167.66,-373.74 373.7,-373.74 15.9,0 28.75,-12.95 28.75,-28.75 0,-15.8 -12.85,-28.75 -28.75,-28.75 -237.79,0 -431.19,193.42 -431.19,431.24 0,237.71 193.4,431.14 431.19,431.14l804.9 0c237.75,0 431.19,-193.43 431.19,-431.14 0,-237.82 -193.44,-431.24 -431.19,-431.24z"/>
  <path class="fil0" d="M5835.47 852.59c118.88,0 215.6,-96.78 215.6,-215.69 0,-118.91 -96.72,-215.54 -215.6,-215.54 -118.88,0 -215.58,96.63 -215.58,215.54 0,118.91 96.7,215.69 215.58,215.69l0 0zm0 -402.49c103.03,0 186.86,83.84 186.86,186.8 0,103.1 -83.83,186.79 -186.86,186.79 -103.01,0 -186.84,-83.69 -186.84,-186.79 0,-102.96 83.83,-186.8 186.84,-186.8z"/>
  <path class="fil0" d="M6036.7 823.69c-7.95,0 -14.37,6.47 -14.37,14.45 0,7.98 6.42,14.45 14.37,14.45 103.03,0 186.85,83.69 186.85,186.79 0,102.96 -83.82,186.8 -186.85,186.8l-402.46 0c-103.01,0 -186.83,-83.84 -186.83,-186.8 0,-103.1 83.82,-186.79 186.83,-186.79 7.97,0 14.39,-6.47 14.39,-14.45 0,-7.98 -6.42,-14.45 -14.39,-14.45 -118.87,0 -215.58,96.78 -215.58,215.69 0,118.91 96.71,215.55 215.58,215.55l402.46 0c118.88,0 215.6,-96.64 215.6,-215.55 0,-118.91 -96.72,-215.69 -215.6,-215.69z"/>
  <path class="fil0" d="M7502.75 866.89c237.76,0 431.2,-193.42 431.2,-431.24 0,-237.66 -193.44,-431.08 -431.2,-431.08 -237.77,0 -431.19,193.42 -431.19,431.08 0,237.82 193.42,431.24 431.19,431.24l0 0zm0 -804.98c206.06,0 373.71,167.68 373.71,373.74 0,206.06 -167.65,373.74 -373.71,373.74 -206.03,0 -373.69,-167.68 -373.69,-373.74 0,-206.06 167.66,-373.74 373.69,-373.74z"/>
  <path class="fil0" d="M7905.21 809.39c-15.9,0 -28.75,12.95 -28.75,28.75 0,15.8 12.85,28.75 28.75,28.75 206.06,0 373.69,167.67 373.69,373.74 0,206 -167.63,373.66 -373.69,373.66l-804.9 0c-206.04,0 -373.69,-167.66 -373.69,-373.66 0,-206.07 167.65,-373.74 373.69,-373.74 15.9,0 28.75,-12.95 28.75,-28.75 0,-15.8 -12.85,-28.75 -28.75,-28.75 -237.79,0 -431.19,193.42 -431.19,431.24 0,237.71 193.4,431.14 431.19,431.14l804.9 0c237.76,0 431.19,-193.43 431.19,-431.14 0,-237.82 -193.43,-431.24 -431.19,-431.24z"/>
  <path class="fil0" d="M9170.03 852.59c118.89,0 215.6,-96.78 215.6,-215.69 0,-118.91 -96.71,-215.54 -215.6,-215.54 -118.88,0 -215.59,96.63 -215.59,215.54 0,118.91 96.71,215.69 215.59,215.69l0 0zm0 -402.49c103.04,0 186.87,83.84 186.87,186.8 0,103.1 -83.83,186.79 -186.87,186.79 -103.01,0 -186.84,-83.69 -186.84,-186.79 0,-102.96 83.83,-186.8 186.84,-186.8z"/>
  <path class="fil0" d="M9371.27 823.69c-7.96,0 -14.37,6.47 -14.37,14.45 0,7.98 6.41,14.45 14.37,14.45 103.02,0 186.84,83.69 186.84,186.79 0,102.96 -83.82,186.8 -186.84,186.8l-402.45 0c-103.02,0 -186.86,-83.84 -186.86,-186.8 0,-103.1 83.84,-186.79 186.86,-186.79 7.94,0 14.37,-6.47 14.37,-14.45 0,-7.98 -6.43,-14.45 -14.37,-14.45 -118.9,0 -215.59,96.78 -215.59,215.69 0,118.91 96.69,215.55 215.59,215.55l402.45 0c118.87,0 215.59,-96.64 215.59,-215.55 0,-118.91 -96.72,-215.69 -215.59,-215.69z"/>
  <path class="fil0" d="M10837.32 866.89c237.76,0 431.19,-193.42 431.19,-431.24 0,-237.66 -193.43,-431.08 -431.19,-431.08 -237.77,0 -431.19,193.42 -431.19,431.08 0,237.82 193.42,431.24 431.19,431.24l0 0zm0 -804.98c206.05,0 373.7,167.68 373.7,373.74 0,206.06 -167.65,373.74 -373.7,373.74 -206.04,0 -373.69,-167.68 -373.69,-373.74 0,-206.06 167.65,-373.74 373.69,-373.74z"/>
  <path class="fil0" d="M11239.78 809.39c-15.9,0 -28.76,12.95 -28.76,28.75 0,15.8 12.86,28.75 28.76,28.75 206.04,0 373.69,167.67 373.69,373.74 0,206 -167.65,373.66 -373.69,373.66l-804.9 0c-206.04,0 -373.71,-167.66 -373.71,-373.66 0,-206.07 167.67,-373.74 373.71,-373.74 15.9,0 28.75,-12.95 28.75,-28.75 0,-15.8 -12.85,-28.75 -28.75,-28.75 -237.8,0 -431.19,193.42 -431.19,431.24 0,237.71 193.39,431.14 431.19,431.14l804.9 0c237.74,0 431.19,-193.43 431.19,-431.14 0,-237.82 -193.45,-431.24 -431.19,-431.24z"/>
  <path class="fil0" d="M12504.6 852.59c118.88,0 215.6,-96.78 215.6,-215.69 0,-118.91 -96.72,-215.54 -215.6,-215.54 -118.88,0 -215.59,96.63 -215.59,215.54 0,118.91 96.71,215.69 215.59,215.69l0 0zm0 -402.49c103.03,0 186.85,83.84 186.85,186.8 0,103.1 -83.82,186.79 -186.85,186.79 -103.01,0 -186.85,-83.69 -186.85,-186.79 0,-102.96 83.84,-186.8 186.85,-186.8z"/>
  <path class="fil0" d="M12705.83 823.69c-7.95,0 -14.38,6.47 -14.38,14.45 0,7.98 6.43,14.45 14.38,14.45 103.03,0 186.85,83.69 186.85,186.79 0,102.96 -83.82,186.8 -186.85,186.8l-402.45 0c-103.02,0 -186.85,-83.84 -186.85,-186.8 0,-103.1 83.83,-186.79 186.85,-186.79 7.96,0 14.37,-6.47 14.37,-14.45 0,-7.98 -6.41,-14.45 -14.37,-14.45 -118.89,0 -215.59,96.78 -215.59,215.69 0,118.91 96.7,215.55 215.59,215.55l402.45 0c118.88,0 215.6,-96.64 215.6,-215.55 0,-118.91 -96.72,-215.69 -215.6,-215.69z"/>
  <path class="fil0" d="M14171.88 866.89c237.76,0 431.21,-193.42 431.21,-431.24 0,-237.66 -193.45,-431.08 -431.21,-431.08 -237.77,0 -431.19,193.42 -431.19,431.08 0,237.82 193.42,431.24 431.19,431.24l0 0zm0 -804.98c206.06,0 373.71,167.68 373.71,373.74 0,206.06 -167.65,373.74 -373.71,373.74 -206.03,0 -373.69,-167.68 -373.69,-373.74 0,-206.06 167.66,-373.74 373.69,-373.74z"/>
  <path class="fil0" d="M14574.34 809.39c-15.9,0 -28.75,12.95 -28.75,28.75 0,15.8 12.85,28.75 28.75,28.75 206.06,0 373.69,167.67 373.69,373.74 0,206 -167.63,373.66 -373.69,373.66l-804.9 0c-206.04,0 -373.69,-167.66 -373.69,-373.66 0,-206.07 167.65,-373.74 373.69,-373.74 15.89,0 28.75,-12.95 28.75,-28.75 0,-15.8 -12.86,-28.75 -28.75,-28.75 -237.79,0 -431.19,193.42 -431.19,431.24 0,237.71 193.4,431.14 431.19,431.14l804.9 0c237.74,0 431.19,-193.43 431.19,-431.14 0,-237.82 -193.45,-431.24 -431.19,-431.24z"/>
  <path class="fil0" d="M15839.21 852.59c118.9,0 215.54,-96.78 215.54,-215.69 0,-118.91 -96.64,-215.54 -215.54,-215.54 -118.92,0 -215.7,96.63 -215.7,215.54 0,118.91 96.78,215.69 215.7,215.69l0 0zm0 -402.49c102.95,0 186.79,83.84 186.79,186.8 0,103.1 -83.84,186.79 -186.79,186.79 -103.11,0 -186.95,-83.69 -186.95,-186.79 0,-102.96 83.84,-186.8 186.95,-186.8z"/>
  <path class="fil0" d="M16040.45 823.69c-7.98,0 -14.45,6.47 -14.45,14.45 0,7.98 6.47,14.45 14.45,14.45 102.95,0 186.79,83.69 186.79,186.79 0,102.96 -83.84,186.8 -186.79,186.8l-402.49 0c-103.1,0 -186.79,-83.84 -186.79,-186.8 0,-103.1 83.69,-186.79 186.79,-186.79 7.98,0 14.3,-6.47 14.3,-14.45 0,-7.98 -6.32,-14.45 -14.3,-14.45 -118.91,0 -215.54,96.78 -215.54,215.69 0,118.91 96.63,215.55 215.54,215.55l402.49 0c118.76,0 215.54,-96.64 215.54,-215.55 0,-118.91 -96.78,-215.69 -215.54,-215.69z"/>
  <path class="fil0" d="M15422.42 2537.64c237.67,0 431.08,-193.43 431.08,-431.2 0,-237.76 -193.41,-431.19 -431.08,-431.19 -237.82,0 -431.27,193.43 -431.27,431.19 0,237.77 193.45,431.2 431.27,431.2l0 0zm373.59 -431.2c0,206.09 -167.68,373.71 -373.59,373.71 -206.06,0 -373.77,-167.65 -373.77,-373.71 0,-206.06 167.71,-373.7 373.77,-373.7 205.91,0 373.59,167.62 373.59,373.7z"/>
  <path class="fil0" d="M15019.9 2480.15c15.9,0 28.75,12.88 28.75,28.74 0,15.87 -12.85,28.75 -28.75,28.75 -206.06,0 -373.69,167.65 -373.69,373.7 0,206.04 167.63,373.7 373.69,373.7l804.85 0c206.06,0 373.74,-167.66 373.74,-373.7 0,-206.05 -167.68,-373.7 -373.74,-373.7 -15.8,0 -28.74,-12.88 -28.74,-28.75 0,-15.86 12.94,-28.74 28.74,-28.74 237.82,0 431.24,193.43 431.24,431.19 0,237.75 -193.42,431.19 -431.24,431.19l-804.85 0c-237.76,0 -431.19,-193.44 -431.19,-431.19 0,-237.76 193.43,-431.19 431.19,-431.19z"/>
  <path class="fil0" d="M13755.07 2523.27c118.89,0 215.6,-96.72 215.6,-215.6 0,-118.88 -96.71,-215.59 -215.6,-215.59 -118.89,0 -215.59,96.71 -215.59,215.59 0,118.88 96.7,215.6 215.59,215.6l0 0zm186.85 -215.6c0,103.04 -83.83,186.85 -186.85,186.85 -103.02,0 -186.86,-83.82 -186.86,-186.85 0,-103.03 83.84,-186.85 186.86,-186.85 103.02,0 186.85,83.8 186.85,186.85z"/>
  <path class="fil0" d="M13553.84 2494.52c7.94,0 14.37,6.44 14.37,14.37 0,7.94 -6.43,14.38 -14.37,14.38 -103.02,0 -186.84,83.83 -186.84,186.84 0,103.03 83.82,186.85 186.84,186.85l402.45 0c103.02,0 186.86,-83.82 186.86,-186.85 0,-103.01 -83.84,-186.84 -186.86,-186.84 -7.94,0 -14.37,-6.44 -14.37,-14.38 0,-7.93 6.43,-14.37 14.37,-14.37 118.9,0 215.6,96.71 215.6,215.59 0,118.88 -96.7,215.6 -215.6,215.6l-402.45 0c-118.87,0 -215.59,-96.72 -215.59,-215.6 0,-118.88 96.72,-215.59 215.59,-215.59z"/>
  <path class="fil0" d="M12087.79 2537.64c237.79,0 431.18,-193.43 431.18,-431.2 0,-237.76 -193.39,-431.19 -431.18,-431.19 -237.76,0 -431.19,193.43 -431.19,431.19 0,237.77 193.43,431.2 431.19,431.2l0 0zm373.69 -431.2c0,206.09 -167.65,373.71 -373.69,373.71 -206.05,0 -373.7,-167.65 -373.7,-373.71 0,-206.06 167.65,-373.7 373.7,-373.7 206.04,0 373.69,167.62 373.69,373.7z"/>
  <path class="fil0" d="M11685.33 2480.15c15.9,0 28.76,12.88 28.76,28.74 0,15.87 -12.86,28.75 -28.76,28.75 -206.04,0 -373.69,167.65 -373.69,373.7 0,206.04 167.65,373.7 373.69,373.7l804.9 0c206.06,0 373.7,-167.66 373.7,-373.7 0,-206.05 -167.64,-373.7 -373.7,-373.7 -15.9,0 -28.75,-12.88 -28.75,-28.75 0,-15.86 12.85,-28.74 28.75,-28.74 237.8,0 431.2,193.43 431.2,431.19 0,237.75 -193.4,431.19 -431.2,431.19l-804.9 0c-237.75,0 -431.19,-193.44 -431.19,-431.19 0,-237.76 193.44,-431.19 431.19,-431.19z"/>
  <path class="fil0" d="M10420.51 2523.27c118.89,0 215.58,-96.72 215.58,-215.6 0,-118.88 -96.69,-215.59 -215.58,-215.59 -118.88,0 -215.6,96.71 -215.6,215.59 0,118.88 96.72,215.6 215.6,215.6l0 0zm186.84 -215.6c0,103.04 -83.83,186.85 -186.84,186.85 -103.03,0 -186.86,-83.82 -186.86,-186.85 0,-103.03 83.83,-186.85 186.86,-186.85 103.01,0 186.84,83.8 186.84,186.85z"/>
  <path class="fil0" d="M10219.28 2494.52c7.95,0 14.37,6.44 14.37,14.37 0,7.94 -6.42,14.38 -14.37,14.38 -103.03,0 -186.85,83.83 -186.85,186.84 0,103.03 83.82,186.85 186.85,186.85l402.46 0c103.01,0 186.83,-83.82 186.83,-186.85 0,-103.01 -83.82,-186.84 -186.83,-186.84 -7.97,0 -14.39,-6.44 -14.39,-14.38 0,-7.93 6.42,-14.37 14.39,-14.37 118.88,0 215.58,96.71 215.58,215.59 0,118.88 -96.7,215.6 -215.58,215.6l-402.46 0c-118.88,0 -215.59,-96.72 -215.59,-215.6 0,-118.88 96.71,-215.59 215.59,-215.59z"/>
  <path class="fil0" d="M8753.23 2537.64c237.77,0 431.19,-193.43 431.19,-431.2 0,-237.76 -193.42,-431.19 -431.19,-431.19 -237.76,0 -431.2,193.43 -431.2,431.19 0,237.77 193.44,431.2 431.2,431.2l0 0zm373.69 -431.2c0,206.09 -167.66,373.71 -373.69,373.71 -206.06,0 -373.71,-167.65 -373.71,-373.71 0,-206.06 167.65,-373.7 373.71,-373.7 206.03,0 373.69,167.62 373.69,373.7z"/>
  <path class="fil0" d="M8350.77 2480.15c15.9,0 28.75,12.88 28.75,28.74 0,15.87 -12.85,28.75 -28.75,28.75 -206.04,0 -373.69,167.65 -373.69,373.7 0,206.04 167.65,373.7 373.69,373.7l804.9 0c206.04,0 373.69,-167.66 373.69,-373.7 0,-206.05 -167.65,-373.7 -373.69,-373.7 -15.9,0 -28.75,-12.88 -28.75,-28.75 0,-15.86 12.85,-28.74 28.75,-28.74 237.79,0 431.19,193.43 431.19,431.19 0,237.75 -193.4,431.19 -431.19,431.19l-804.9 0c-237.76,0 -431.19,-193.44 -431.19,-431.19 0,-237.76 193.43,-431.19 431.19,-431.19z"/>
  <path class="fil0" d="M7085.95 2523.27c118.88,0 215.59,-96.72 215.59,-215.6 0,-118.88 -96.71,-215.59 -215.59,-215.59 -118.89,0 -215.6,96.71 -215.6,215.59 0,118.88 96.71,215.6 215.6,215.6l0 0zm186.84 -215.6c0,103.04 -83.82,186.85 -186.84,186.85 -103.03,0 -186.87,-83.82 -186.87,-186.85 0,-103.03 83.84,-186.85 186.87,-186.85 103.02,0 186.84,83.8 186.84,186.85z"/>
  <path class="fil0" d="M6884.71 2494.52c7.96,0 14.37,6.44 14.37,14.37 0,7.94 -6.41,14.38 -14.37,14.38 -103.02,0 -186.84,83.83 -186.84,186.84 0,103.03 83.82,186.85 186.84,186.85l402.45 0c103.02,0 186.86,-83.82 186.86,-186.85 0,-103.01 -83.84,-186.84 -186.86,-186.84 -7.94,0 -14.37,-6.44 -14.37,-14.38 0,-7.93 6.43,-14.37 14.37,-14.37 118.9,0 215.59,96.71 215.59,215.59 0,118.88 -96.69,215.6 -215.59,215.6l-402.45 0c-118.87,0 -215.59,-96.72 -215.59,-215.6 0,-118.88 96.72,-215.59 215.59,-215.59z"/>
  <path class="fil0" d="M5418.66 2537.64c237.79,0 431.19,-193.43 431.19,-431.2 0,-237.76 -193.4,-431.19 -431.19,-431.19 -237.76,0 -431.19,193.43 -431.19,431.19 0,237.77 193.43,431.2 431.19,431.2l0 0zm373.69 -431.2c0,206.09 -167.65,373.71 -373.69,373.71 -206.05,0 -373.69,-167.65 -373.69,-373.71 0,-206.06 167.64,-373.7 373.69,-373.7 206.04,0 373.69,167.62 373.69,373.7z"/>
  <path class="fil0" d="M5016.22 2480.15c15.88,0 28.75,12.88 28.75,28.74 0,15.87 -12.87,28.75 -28.75,28.75 -206.06,0 -373.71,167.65 -373.71,373.7 0,206.04 167.65,373.7 373.71,373.7l804.89 0c206.05,0 373.7,-167.66 373.7,-373.7 0,-206.05 -167.65,-373.7 -373.7,-373.7 -15.91,0 -28.76,-12.88 -28.76,-28.75 0,-15.86 12.85,-28.74 28.76,-28.74 237.79,0 431.19,193.43 431.19,431.19 0,237.75 -193.4,431.19 -431.19,431.19l-804.89 0c-237.76,0 -431.21,-193.44 -431.21,-431.19 0,-237.76 193.45,-431.19 431.21,-431.19z"/>
  <path class="fil0" d="M3751.38 2523.27c118.89,0 215.59,-96.72 215.59,-215.6 0,-118.88 -96.7,-215.59 -215.59,-215.59 -118.88,0 -215.6,96.71 -215.6,215.59 0,118.88 96.72,215.6 215.6,215.6l0 0zm186.85 -215.6c0,103.04 -83.84,186.85 -186.85,186.85 -103.03,0 -186.85,-83.82 -186.85,-186.85 0,-103.03 83.82,-186.85 186.85,-186.85 103.01,0 186.85,83.8 186.85,186.85z"/>
  <path class="fil0" d="M3550.15 2494.52c7.95,0 14.38,6.44 14.38,14.37 0,7.94 -6.43,14.38 -14.38,14.38 -103.03,0 -186.85,83.83 -186.85,186.84 0,103.03 83.82,186.85 186.85,186.85l402.45 0c103.02,0 186.85,-83.82 186.85,-186.85 0,-103.01 -83.83,-186.84 -186.85,-186.84 -7.96,0 -14.37,-6.44 -14.37,-14.38 0,-7.93 6.41,-14.37 14.37,-14.37 118.89,0 215.59,96.71 215.59,215.59 0,118.88 -96.7,215.6 -215.59,215.6l-402.45 0c-118.88,0 -215.59,-96.72 -215.59,-215.6 0,-118.88 96.71,-215.59 215.59,-215.59z"/>
  <path class="fil0" d="M2084.1 2537.64c237.77,0 431.19,-193.43 431.19,-431.2 0,-237.76 -193.42,-431.19 -431.19,-431.19 -237.76,0 -431.21,193.43 -431.21,431.19 0,237.77 193.45,431.2 431.21,431.2l0 0zm373.69 -431.2c0,206.09 -167.65,373.71 -373.69,373.71 -206.06,0 -373.71,-167.65 -373.71,-373.71 0,-206.06 167.65,-373.7 373.71,-373.7 206.04,0 373.69,167.62 373.69,373.7z"/>
  <path class="fil0" d="M1681.64 2480.15c15.9,0 28.75,12.88 28.75,28.74 0,15.87 -12.85,28.75 -28.75,28.75 -206.04,0 -373.69,167.65 -373.69,373.7 0,206.04 167.65,373.7 373.69,373.7l804.9 0c206.05,0 373.69,-167.66 373.69,-373.7 0,-206.05 -167.64,-373.7 -373.69,-373.7 -15.89,0 -28.75,-12.88 -28.75,-28.75 0,-15.86 12.86,-28.74 28.75,-28.74 237.79,0 431.19,193.43 431.19,431.19 0,237.75 -193.4,431.19 -431.19,431.19l-804.9 0c-237.75,0 -431.19,-193.44 -431.19,-431.19 0,-237.76 193.44,-431.19 431.19,-431.19z"/>
  <path class="fil0" d="M416.81 2523.27c118.89,0 215.6,-96.72 215.6,-215.6 0,-118.88 -96.71,-215.59 -215.6,-215.59 -118.87,0 -215.6,96.71 -215.6,215.59 0,118.88 96.73,215.6 215.6,215.6l0 0zm186.85 -215.6c0,103.04 -83.83,186.85 -186.85,186.85 -103.02,0 -186.85,-83.82 -186.85,-186.85 0,-103.03 83.83,-186.85 186.85,-186.85 103.02,0 186.85,83.8 186.85,186.85z"/>
  <path class="fil0" d="M215.58 2494.52c7.95,0 14.38,6.44 14.38,14.37 0,7.94 -6.43,14.38 -14.38,14.38 -103.02,0 -186.85,83.83 -186.85,186.84 0,103.03 83.83,186.85 186.85,186.85l402.45 0c103.03,0 186.85,-83.82 186.85,-186.85 0,-103.01 -83.82,-186.84 -186.85,-186.84 -7.95,0 -14.37,-6.44 -14.37,-14.38 0,-7.93 6.42,-14.37 14.37,-14.37 118.9,0 215.6,96.71 215.6,215.59 0,118.88 -96.7,215.6 -215.6,215.6l-402.45 0c-118.87,0 -215.59,-96.72 -215.59,-215.6 0,-118.88 96.72,-215.59 215.59,-215.59z"/>
  <path class="fil0" d="M833.63 4208.4c237.76,0 431.2,-193.43 431.2,-431.21 0,-237.76 -193.44,-431.18 -431.2,-431.18 -237.78,0 -431.2,193.42 -431.2,431.18 0,237.78 193.42,431.21 431.2,431.21l0 0zm0 -804.9c206.05,0 373.7,167.64 373.7,373.69 0,206.06 -167.65,373.71 -373.7,373.71 -206.04,0 -373.7,-167.62 -373.7,-373.71 0,-206.07 167.66,-373.69 373.7,-373.69z"/>
  <path class="fil0" d="M1236.08 4150.9c-15.89,0 -28.75,12.88 -28.75,28.75 0,15.87 12.86,28.75 28.75,28.75 206.05,0 373.69,167.65 373.69,373.69 0,206.05 -167.64,373.71 -373.69,373.71l-804.9 0c-206.04,0 -373.69,-167.66 -373.69,-373.71 0,-206.04 167.65,-373.69 373.69,-373.69 15.9,0 28.75,-12.88 28.75,-28.75 0,-15.87 -12.85,-28.75 -28.75,-28.75 -237.79,0 -431.19,193.43 -431.19,431.19 0,237.76 193.4,431.21 431.19,431.21l804.9 0c237.76,0 431.19,-193.45 431.19,-431.21 0,-237.76 -193.43,-431.19 -431.19,-431.19z"/>
  <path class="fil0" d="M2500.91 4194.03c118.89,0 215.59,-96.73 215.59,-215.61 0,-118.88 -96.7,-215.59 -215.59,-215.59 -118.89,0 -215.6,96.71 -215.6,215.59 0,118.88 96.71,215.61 215.6,215.61l0 0zm0 -402.46c103.02,0 186.86,83.82 186.86,186.85 0,103.03 -83.84,186.86 -186.86,186.86 -103.02,0 -186.85,-83.81 -186.85,-186.86 0,-103.04 83.83,-186.85 186.85,-186.85z"/>
  <path class="fil0" d="M2702.14 4165.28c-7.94,0 -14.37,6.44 -14.37,14.37 0,7.93 6.43,14.38 14.37,14.38 103.02,0 186.84,83.82 186.84,186.83 0,103.04 -83.82,186.86 -186.84,186.86l-402.45 0c-103.02,0 -186.86,-83.82 -186.86,-186.86 0,-103.01 83.84,-186.83 186.86,-186.83 7.94,0 14.37,-6.45 14.37,-14.38 0,-7.93 -6.43,-14.37 -14.37,-14.37 -118.9,0 -215.6,96.71 -215.6,215.58 0,118.88 96.7,215.61 215.6,215.61l402.45 0c118.87,0 215.59,-96.73 215.59,-215.61 0,-118.87 -96.72,-215.58 -215.59,-215.58z"/>
  <path class="fil0" d="M4168.19 4208.4c237.76,0 431.19,-193.43 431.19,-431.21 0,-237.76 -193.43,-431.18 -431.19,-431.18 -237.77,0 -431.18,193.42 -431.18,431.18 0,237.78 193.41,431.21 431.18,431.21l0 0zm0 -804.9c206.06,0 373.7,167.64 373.7,373.69 0,206.06 -167.64,373.71 -373.7,373.71 -206.04,0 -373.69,-167.62 -373.69,-373.71 0,-206.07 167.65,-373.69 373.69,-373.69z"/>
  <path class="fil0" d="M4570.65 4150.9c-15.9,0 -28.76,12.88 -28.76,28.75 0,15.87 12.86,28.75 28.76,28.75 206.04,0 373.69,167.65 373.69,373.69 0,206.05 -167.65,373.71 -373.69,373.71l-804.9 0c-206.04,0 -373.7,-167.66 -373.7,-373.71 0,-206.04 167.66,-373.69 373.7,-373.69 15.9,0 28.75,-12.88 28.75,-28.75 0,-15.87 -12.85,-28.75 -28.75,-28.75 -237.79,0 -431.19,193.43 -431.19,431.19 0,237.76 193.4,431.21 431.19,431.21l804.9 0c237.75,0 431.19,-193.45 431.19,-431.21 0,-237.76 -193.44,-431.19 -431.19,-431.19z"/>
  <path class="fil0" d="M5835.47 4194.03c118.88,0 215.6,-96.73 215.6,-215.61 0,-118.88 -96.72,-215.59 -215.6,-215.59 -118.88,0 -215.58,96.71 -215.58,215.59 0,118.88 96.7,215.61 215.58,215.61l0 0zm0 -402.46c103.03,0 186.86,83.82 186.86,186.85 0,103.03 -83.83,186.86 -186.86,186.86 -103.01,0 -186.84,-83.81 -186.84,-186.86 0,-103.04 83.83,-186.85 186.84,-186.85z"/>
  <path class="fil0" d="M6036.7 4165.28c-7.95,0 -14.37,6.44 -14.37,14.37 0,7.93 6.42,14.38 14.37,14.38 103.03,0 186.85,83.82 186.85,186.83 0,103.04 -83.82,186.86 -186.85,186.86l-402.46 0c-103.01,0 -186.83,-83.82 -186.83,-186.86 0,-103.01 83.82,-186.83 186.83,-186.83 7.97,0 14.39,-6.45 14.39,-14.38 0,-7.93 -6.42,-14.37 -14.39,-14.37 -118.87,0 -215.58,96.71 -215.58,215.58 0,118.88 96.71,215.61 215.58,215.61l402.46 0c118.88,0 215.6,-96.73 215.6,-215.61 0,-118.87 -96.72,-215.58 -215.6,-215.58z"/>
  <path class="fil0" d="M7502.75 4208.4c237.76,0 431.2,-193.43 431.2,-431.21 0,-237.76 -193.44,-431.18 -431.2,-431.18 -237.77,0 -431.19,193.42 -431.19,431.18 0,237.78 193.42,431.21 431.19,431.21l0 0zm0 -804.9c206.06,0 373.71,167.64 373.71,373.69 0,206.06 -167.65,373.71 -373.71,373.71 -206.03,0 -373.69,-167.62 -373.69,-373.71 0,-206.07 167.66,-373.69 373.69,-373.69z"/>
  <path class="fil0" d="M7905.21 4150.9c-15.9,0 -28.75,12.88 -28.75,28.75 0,15.87 12.85,28.75 28.75,28.75 206.06,0 373.69,167.65 373.69,373.69 0,206.05 -167.63,373.71 -373.69,373.71l-804.9 0c-206.04,0 -373.69,-167.66 -373.69,-373.71 0,-206.04 167.65,-373.69 373.69,-373.69 15.9,0 28.75,-12.88 28.75,-28.75 0,-15.87 -12.85,-28.75 -28.75,-28.75 -237.79,0 -431.19,193.43 -431.19,431.19 0,237.76 193.4,431.21 431.19,431.21l804.9 0c237.76,0 431.19,-193.45 431.19,-431.21 0,-237.76 -193.43,-431.19 -431.19,-431.19z"/>
  <path class="fil0" d="M9170.03 4194.03c118.89,0 215.6,-96.73 215.6,-215.61 0,-118.88 -96.71,-215.59 -215.6,-215.59 -118.88,0 -215.59,96.71 -215.59,215.59 0,118.88 96.71,215.61 215.59,215.61l0 0zm0 -402.46c103.04,0 186.87,83.82 186.87,186.85 0,103.03 -83.83,186.86 -186.87,186.86 -103.01,0 -186.84,-83.81 -186.84,-186.86 0,-103.04 83.83,-186.85 186.84,-186.85z"/>
  <path class="fil0" d="M9371.27 4165.28c-7.96,0 -14.37,6.44 -14.37,14.37 0,7.93 6.41,14.38 14.37,14.38 103.02,0 186.84,83.82 186.84,186.83 0,103.04 -83.82,186.86 -186.84,186.86l-402.45 0c-103.02,0 -186.86,-83.82 -186.86,-186.86 0,-103.01 83.84,-186.83 186.86,-186.83 7.94,0 14.37,-6.45 14.37,-14.38 0,-7.93 -6.43,-14.37 -14.37,-14.37 -118.9,0 -215.59,96.71 -215.59,215.58 0,118.88 96.69,215.61 215.59,215.61l402.45 0c118.87,0 215.59,-96.73 215.59,-215.61 0,-118.87 -96.72,-215.58 -215.59,-215.58z"/>
  <path class="fil0" d="M10837.32 4208.4c237.76,0 431.19,-193.43 431.19,-431.21 0,-237.76 -193.43,-431.18 -431.19,-431.18 -237.77,0 -431.19,193.42 -431.19,431.18 0,237.78 193.42,431.21 431.19,431.21l0 0zm0 -804.9c206.05,0 373.7,167.64 373.7,373.69 0,206.06 -167.65,373.71 -373.7,373.71 -206.04,0 -373.69,-167.62 -373.69,-373.71 0,-206.07 167.65,-373.69 373.69,-373.69z"/>
  <path class="fil0" d="M11239.78 4150.9c-15.9,0 -28.76,12.88 -28.76,28.75 0,15.87 12.86,28.75 28.76,28.75 206.04,0 373.69,167.65 373.69,373.69 0,206.05 -167.65,373.71 -373.69,373.71l-804.9 0c-206.04,0 -373.71,-167.66 -373.71,-373.71 0,-206.04 167.67,-373.69 373.71,-373.69 15.9,0 28.75,-12.88 28.75,-28.75 0,-15.87 -12.85,-28.75 -28.75,-28.75 -237.8,0 -431.19,193.43 -431.19,431.19 0,237.76 193.39,431.21 431.19,431.21l804.9 0c237.74,0 431.19,-193.45 431.19,-431.21 0,-237.76 -193.45,-431.19 -431.19,-431.19z"/>
  <path class="fil0" d="M12504.6 4194.03c118.88,0 215.6,-96.73 215.6,-215.61 0,-118.88 -96.72,-215.59 -215.6,-215.59 -118.88,0 -215.59,96.71 -215.59,215.59 0,118.88 96.71,215.61 215.59,215.61l0 0zm0 -402.46c103.03,0 186.85,83.82 186.85,186.85 0,103.03 -83.82,186.86 -186.85,186.86 -103.01,0 -186.85,-83.81 -186.85,-186.86 0,-103.04 83.84,-186.85 186.85,-186.85z"/>
  <path class="fil0" d="M12705.83 4165.28c-7.95,0 -14.38,6.44 -14.38,14.37 0,7.93 6.43,14.38 14.38,14.38 103.03,0 186.85,83.82 186.85,186.83 0,103.04 -83.82,186.86 -186.85,186.86l-402.45 0c-103.02,0 -186.85,-83.82 -186.85,-186.86 0,-103.01 83.83,-186.83 186.85,-186.83 7.96,0 14.37,-6.45 14.37,-14.38 0,-7.93 -6.41,-14.37 -14.37,-14.37 -118.89,0 -215.59,96.71 -215.59,215.58 0,118.88 96.7,215.61 215.59,215.61l402.45 0c118.88,0 215.6,-96.73 215.6,-215.61 0,-118.87 -96.72,-215.58 -215.6,-215.58z"/>
  <path class="fil0" d="M14171.88 4208.4c237.76,0 431.21,-193.43 431.21,-431.21 0,-237.76 -193.45,-431.18 -431.21,-431.18 -237.77,0 -431.19,193.42 -431.19,431.18 0,237.78 193.42,431.21 431.19,431.21l0 0zm0 -804.9c206.06,0 373.71,167.64 373.71,373.69 0,206.06 -167.65,373.71 -373.71,373.71 -206.03,0 -373.69,-167.62 -373.69,-373.71 0,-206.07 167.66,-373.69 373.69,-373.69z"/>
  <path class="fil0" d="M14574.34 4150.9c-15.9,0 -28.75,12.88 -28.75,28.75 0,15.87 12.85,28.75 28.75,28.75 206.06,0 373.69,167.65 373.69,373.69 0,206.05 -167.63,373.71 -373.69,373.71l-804.9 0c-206.04,0 -373.69,-167.66 -373.69,-373.71 0,-206.04 167.65,-373.69 373.69,-373.69 15.89,0 28.75,-12.88 28.75,-28.75 0,-15.87 -12.86,-28.75 -28.75,-28.75 -237.79,0 -431.19,193.43 -431.19,431.19 0,237.76 193.4,431.21 431.19,431.21l804.9 0c237.74,0 431.19,-193.45 431.19,-431.21 0,-237.76 -193.45,-431.19 -431.19,-431.19z"/>
  <path class="fil0" d="M15839.21 4194.03c118.9,0 215.54,-96.73 215.54,-215.61 0,-118.88 -96.64,-215.59 -215.54,-215.59 -118.92,0 -215.7,96.71 -215.7,215.59 0,118.88 96.78,215.61 215.7,215.61l0 0zm0 -402.46c102.95,0 186.79,83.82 186.79,186.85 0,103.03 -83.84,186.86 -186.79,186.86 -103.11,0 -186.95,-83.81 -186.95,-186.86 0,-103.04 83.84,-186.85 186.95,-186.85z"/>
  <path class="fil0" d="M16040.45 4165.28c-7.98,0 -14.45,6.44 -14.45,14.37 0,7.93 6.47,14.38 14.45,14.38 102.95,0 186.79,83.82 186.79,186.83 0,103.04 -83.84,186.86 -186.79,186.86l-402.49 0c-103.1,0 -186.79,-83.82 -186.79,-186.86 0,-103.01 83.69,-186.83 186.79,-186.83 7.98,0 14.3,-6.45 14.3,-14.38 0,-7.93 -6.32,-14.37 -14.3,-14.37 -118.91,0 -215.54,96.71 -215.54,215.58 0,118.88 96.63,215.61 215.54,215.61l402.49 0c118.76,0 215.54,-96.73 215.54,-215.61 0,-118.87 -96.78,-215.58 -215.54,-215.58z"/>
  <path class="fil0" d="M15422.42 5879.15c237.67,0 431.08,-193.42 431.08,-431.2 0,-237.76 -193.41,-431.19 -431.08,-431.19 -237.82,0 -431.27,193.43 -431.27,431.19 0,237.78 193.45,431.2 431.27,431.2l0 0zm373.59 -431.2c0,206.09 -167.68,373.71 -373.59,373.71 -206.06,0 -373.77,-167.65 -373.77,-373.71 0,-206.04 167.71,-373.69 373.77,-373.69 205.91,0 373.59,167.61 373.59,373.69z"/>
  <path class="fil0" d="M15019.9 5821.66c15.9,0 28.75,12.88 28.75,28.75 0,15.86 -12.85,28.74 -28.75,28.74 -206.06,0 -373.69,167.65 -373.69,373.7 0,206.04 167.63,373.71 373.69,373.71l804.85 0c206.06,0 373.74,-167.67 373.74,-373.71 0,-206.05 -167.68,-373.7 -373.74,-373.7 -15.8,0 -28.74,-12.88 -28.74,-28.74 0,-15.87 12.94,-28.75 28.74,-28.75 237.82,0 431.24,193.43 431.24,431.19 0,237.76 -193.42,431.2 -431.24,431.2l-804.85 0c-237.76,0 -431.19,-193.44 -431.19,-431.2 0,-237.76 193.43,-431.19 431.19,-431.19z"/>
  <path class="fil0" d="M13755.07 5864.78c118.89,0 215.6,-96.72 215.6,-215.6 0,-118.88 -96.71,-215.59 -215.6,-215.59 -118.89,0 -215.59,96.71 -215.59,215.59 0,118.88 96.7,215.6 215.59,215.6l0 0zm186.85 -215.6c0,103.04 -83.83,186.85 -186.85,186.85 -103.02,0 -186.86,-83.82 -186.86,-186.85 0,-103.03 83.84,-186.86 186.86,-186.86 103.02,0 186.85,83.83 186.85,186.86z"/>
  <path class="fil0" d="M13553.84 5836.03c7.94,0 14.37,6.44 14.37,14.38 0,7.93 -6.43,14.37 -14.37,14.37 -103.02,0 -186.84,83.82 -186.84,186.84 0,103.03 83.82,186.85 186.84,186.85l402.45 0c103.02,0 186.86,-83.82 186.86,-186.85 0,-103.02 -83.84,-186.84 -186.86,-186.84 -7.94,0 -14.37,-6.44 -14.37,-14.37 0,-7.94 6.43,-14.38 14.37,-14.38 118.9,0 215.6,96.71 215.6,215.59 0,118.88 -96.7,215.6 -215.6,215.6l-402.45 0c-118.87,0 -215.59,-96.72 -215.59,-215.6 0,-118.88 96.72,-215.59 215.59,-215.59z"/>
  <path class="fil0" d="M12087.79 5879.15c237.79,0 431.18,-193.42 431.18,-431.2 0,-237.76 -193.39,-431.19 -431.18,-431.19 -237.76,0 -431.19,193.43 -431.19,431.19 0,237.78 193.43,431.2 431.19,431.2l0 0zm373.69 -431.2c0,206.09 -167.65,373.71 -373.69,373.71 -206.05,0 -373.7,-167.65 -373.7,-373.71 0,-206.04 167.65,-373.69 373.7,-373.69 206.04,0 373.69,167.61 373.69,373.69z"/>
  <path class="fil0" d="M11685.33 5821.66c15.9,0 28.76,12.88 28.76,28.75 0,15.86 -12.86,28.74 -28.76,28.74 -206.04,0 -373.69,167.65 -373.69,373.7 0,206.04 167.65,373.71 373.69,373.71l804.9 0c206.06,0 373.7,-167.67 373.7,-373.71 0,-206.05 -167.64,-373.7 -373.7,-373.7 -15.9,0 -28.75,-12.88 -28.75,-28.74 0,-15.87 12.85,-28.75 28.75,-28.75 237.8,0 431.2,193.43 431.2,431.19 0,237.76 -193.4,431.2 -431.2,431.2l-804.9 0c-237.75,0 -431.19,-193.44 -431.19,-431.2 0,-237.76 193.44,-431.19 431.19,-431.19z"/>
  <path class="fil0" d="M10420.51 5864.78c118.89,0 215.58,-96.72 215.58,-215.6 0,-118.88 -96.69,-215.59 -215.58,-215.59 -118.88,0 -215.6,96.71 -215.6,215.59 0,118.88 96.72,215.6 215.6,215.6l0 0zm186.84 -215.6c0,103.04 -83.83,186.85 -186.84,186.85 -103.03,0 -186.86,-83.82 -186.86,-186.85 0,-103.03 83.83,-186.86 186.86,-186.86 103.01,0 186.84,83.83 186.84,186.86z"/>
  <path class="fil0" d="M10219.28 5836.03c7.95,0 14.37,6.44 14.37,14.38 0,7.93 -6.42,14.37 -14.37,14.37 -103.03,0 -186.85,83.82 -186.85,186.84 0,103.03 83.82,186.85 186.85,186.85l402.46 0c103.01,0 186.83,-83.82 186.83,-186.85 0,-103.02 -83.82,-186.84 -186.83,-186.84 -7.97,0 -14.39,-6.44 -14.39,-14.37 0,-7.94 6.42,-14.38 14.39,-14.38 118.88,0 215.58,96.71 215.58,215.59 0,118.88 -96.7,215.6 -215.58,215.6l-402.46 0c-118.88,0 -215.59,-96.72 -215.59,-215.6 0,-118.88 96.71,-215.59 215.59,-215.59z"/>
  <path class="fil0" d="M8753.23 5879.15c237.77,0 431.19,-193.42 431.19,-431.2 0,-237.76 -193.42,-431.19 -431.19,-431.19 -237.76,0 -431.2,193.43 -431.2,431.19 0,237.78 193.44,431.2 431.2,431.2l0 0zm373.69 -431.2c0,206.09 -167.66,373.71 -373.69,373.71 -206.06,0 -373.71,-167.65 -373.71,-373.71 0,-206.04 167.65,-373.69 373.71,-373.69 206.03,0 373.69,167.61 373.69,373.69z"/>
  <path class="fil0" d="M8350.77 5821.66c15.9,0 28.75,12.88 28.75,28.75 0,15.86 -12.85,28.74 -28.75,28.74 -206.04,0 -373.69,167.65 -373.69,373.7 0,206.04 167.65,373.71 373.69,373.71l804.9 0c206.04,0 373.69,-167.67 373.69,-373.71 0,-206.05 -167.65,-373.7 -373.69,-373.7 -15.9,0 -28.75,-12.88 -28.75,-28.74 0,-15.87 12.85,-28.75 28.75,-28.75 237.79,0 431.19,193.43 431.19,431.19 0,237.76 -193.4,431.2 -431.19,431.2l-804.9 0c-237.76,0 -431.19,-193.44 -431.19,-431.2 0,-237.76 193.43,-431.19 431.19,-431.19z"/>
  <path class="fil0" d="M7085.95 5864.78c118.88,0 215.59,-96.72 215.59,-215.6 0,-118.88 -96.71,-215.59 -215.59,-215.59 -118.89,0 -215.6,96.71 -215.6,215.59 0,118.88 96.71,215.6 215.6,215.6l0 0zm186.84 -215.6c0,103.04 -83.82,186.85 -186.84,186.85 -103.03,0 -186.87,-83.82 -186.87,-186.85 0,-103.03 83.84,-186.86 186.87,-186.86 103.02,0 186.84,83.83 186.84,186.86z"/>
  <path class="fil0" d="M6884.71 5836.03c7.96,0 14.37,6.44 14.37,14.38 0,7.93 -6.41,14.37 -14.37,14.37 -103.02,0 -186.84,83.82 -186.84,186.84 0,103.03 83.82,186.85 186.84,186.85l402.45 0c103.02,0 186.86,-83.82 186.86,-186.85 0,-103.02 -83.84,-186.84 -186.86,-186.84 -7.94,0 -14.37,-6.44 -14.37,-14.37 0,-7.94 6.43,-14.38 14.37,-14.38 118.9,0 215.59,96.71 215.59,215.59 0,118.88 -96.69,215.6 -215.59,215.6l-402.45 0c-118.87,0 -215.59,-96.72 -215.59,-215.6 0,-118.88 96.72,-215.59 215.59,-215.59z"/>
  <path class="fil0" d="M5418.66 5879.15c237.79,0 431.19,-193.42 431.19,-431.2 0,-237.76 -193.4,-431.19 -431.19,-431.19 -237.76,0 -431.19,193.43 -431.19,431.19 0,237.78 193.43,431.2 431.19,431.2l0 0zm373.69 -431.2c0,206.09 -167.65,373.71 -373.69,373.71 -206.05,0 -373.69,-167.65 -373.69,-373.71 0,-206.04 167.64,-373.69 373.69,-373.69 206.04,0 373.69,167.61 373.69,373.69z"/>
  <path class="fil0" d="M5016.22 5821.66c15.88,0 28.75,12.88 28.75,28.75 0,15.86 -12.87,28.74 -28.75,28.74 -206.06,0 -373.71,167.65 -373.71,373.7 0,206.04 167.65,373.71 373.71,373.71l804.89 0c206.05,0 373.7,-167.67 373.7,-373.71 0,-206.05 -167.65,-373.7 -373.7,-373.7 -15.91,0 -28.76,-12.88 -28.76,-28.74 0,-15.87 12.85,-28.75 28.76,-28.75 237.79,0 431.19,193.43 431.19,431.19 0,237.76 -193.4,431.2 -431.19,431.2l-804.89 0c-237.76,0 -431.21,-193.44 -431.21,-431.2 0,-237.76 193.45,-431.19 431.21,-431.19z"/>
  <path class="fil0" d="M3751.38 5864.78c118.89,0 215.59,-96.72 215.59,-215.6 0,-118.88 -96.7,-215.59 -215.59,-215.59 -118.88,0 -215.6,96.71 -215.6,215.59 0,118.88 96.72,215.6 215.6,215.6l0 0zm186.85 -215.6c0,103.04 -83.84,186.85 -186.85,186.85 -103.03,0 -186.85,-83.82 -186.85,-186.85 0,-103.03 83.82,-186.86 186.85,-186.86 103.01,0 186.85,83.83 186.85,186.86z"/>
  <path class="fil0" d="M3550.15 5836.03c7.95,0 14.38,6.44 14.38,14.38 0,7.93 -6.43,14.37 -14.38,14.37 -103.03,0 -186.85,83.82 -186.85,186.84 0,103.03 83.82,186.85 186.85,186.85l402.45 0c103.02,0 186.85,-83.82 186.85,-186.85 0,-103.02 -83.83,-186.84 -186.85,-186.84 -7.96,0 -14.37,-6.44 -14.37,-14.37 0,-7.94 6.41,-14.38 14.37,-14.38 118.89,0 215.59,96.71 215.59,215.59 0,118.88 -96.7,215.6 -215.59,215.6l-402.45 0c-118.88,0 -215.59,-96.72 -215.59,-215.6 0,-118.88 96.71,-215.59 215.59,-215.59z"/>
  <path class="fil0" d="M2084.1 5879.15c237.77,0 431.19,-193.42 431.19,-431.2 0,-237.76 -193.42,-431.19 -431.19,-431.19 -237.76,0 -431.21,193.43 -431.21,431.19 0,237.78 193.45,431.2 431.21,431.2l0 0zm373.69 -431.2c0,206.09 -167.65,373.71 -373.69,373.71 -206.06,0 -373.71,-167.65 -373.71,-373.71 0,-206.04 167.65,-373.69 373.71,-373.69 206.04,0 373.69,167.61 373.69,373.69z"/>
  <path class="fil0" d="M1681.64 5821.66c15.9,0 28.75,12.88 28.75,28.75 0,15.86 -12.85,28.74 -28.75,28.74 -206.04,0 -373.69,167.65 -373.69,373.7 0,206.04 167.65,373.71 373.69,373.71l804.9 0c206.05,0 373.69,-167.67 373.69,-373.71 0,-206.05 -167.64,-373.7 -373.69,-373.7 -15.89,0 -28.75,-12.88 -28.75,-28.74 0,-15.87 12.86,-28.75 28.75,-28.75 237.79,0 431.19,193.43 431.19,431.19 0,237.76 -193.4,431.2 -431.19,431.2l-804.9 0c-237.75,0 -431.19,-193.44 -431.19,-431.2 0,-237.76 193.44,-431.19 431.19,-431.19z"/>
  <path class="fil0" d="M416.81 5864.78c118.89,0 215.6,-96.72 215.6,-215.6 0,-118.88 -96.71,-215.59 -215.6,-215.59 -118.87,0 -215.6,96.71 -215.6,215.59 0,118.88 96.73,215.6 215.6,215.6l0 0zm186.85 -215.6c0,103.04 -83.83,186.85 -186.85,186.85 -103.02,0 -186.85,-83.82 -186.85,-186.85 0,-103.03 83.83,-186.86 186.85,-186.86 103.02,0 186.85,83.83 186.85,186.86z"/>
  <path class="fil0" d="M215.58 5836.03c7.95,0 14.38,6.44 14.38,14.38 0,7.93 -6.43,14.37 -14.38,14.37 -103.02,0 -186.85,83.82 -186.85,186.84 0,103.03 83.83,186.85 186.85,186.85l402.45 0c103.03,0 186.85,-83.82 186.85,-186.85 0,-103.02 -83.82,-186.84 -186.85,-186.84 -7.95,0 -14.37,-6.44 -14.37,-14.37 0,-7.94 6.42,-14.38 14.37,-14.38 118.9,0 215.6,96.71 215.6,215.59 0,118.88 -96.7,215.6 -215.6,215.6l-402.45 0c-118.87,0 -215.59,-96.72 -215.59,-215.6 0,-118.88 96.72,-215.59 215.59,-215.59z"/>
  <path class="fil0" d="M833.63 7549.91c237.76,0 431.2,-193.43 431.2,-431.2 0,-237.76 -193.44,-431.2 -431.2,-431.2 -237.78,0 -431.2,193.44 -431.2,431.2 0,237.77 193.42,431.2 431.2,431.2l0 0zm0 -804.9c206.05,0 373.7,167.65 373.7,373.7 0,206.06 -167.65,373.7 -373.7,373.7 -206.04,0 -373.7,-167.61 -373.7,-373.7 0,-206.08 167.66,-373.7 373.7,-373.7z"/>
  <path class="fil0" d="M1236.08 7492.41c-15.89,0 -28.75,12.89 -28.75,28.75 0,15.87 12.86,28.75 28.75,28.75 206.05,0 373.69,167.65 373.69,373.69 0,206.05 -167.64,373.71 -373.69,373.71l-804.9 0c-206.04,0 -373.69,-167.66 -373.69,-373.71 0,-206.04 167.65,-373.69 373.69,-373.69 15.9,0 28.75,-12.88 28.75,-28.75 0,-15.86 -12.85,-28.75 -28.75,-28.75 -237.79,0 -431.19,193.43 -431.19,431.19 0,237.76 193.4,431.19 431.19,431.19l804.9 0c237.76,0 431.19,-193.43 431.19,-431.19 0,-237.76 -193.43,-431.19 -431.19,-431.19z"/>
  <path class="fil0" d="M2500.91 7535.53c118.89,0 215.59,-96.72 215.59,-215.6 0,-118.88 -96.7,-215.59 -215.59,-215.59 -118.89,0 -215.6,96.71 -215.6,215.59 0,118.88 96.71,215.6 215.6,215.6l0 0zm0 -402.45c103.02,0 186.86,83.82 186.86,186.85 0,103.03 -83.84,186.86 -186.86,186.86 -103.02,0 -186.85,-83.81 -186.85,-186.86 0,-103.03 83.83,-186.85 186.85,-186.85z"/>
  <path class="fil0" d="M2702.14 7506.79c-7.94,0 -14.37,6.44 -14.37,14.37 0,7.93 6.43,14.37 14.37,14.37 103.02,0 186.84,83.83 186.84,186.85 0,103.02 -83.82,186.85 -186.84,186.85l-402.45 0c-103.02,0 -186.86,-83.83 -186.86,-186.85 0,-103.02 83.84,-186.85 186.86,-186.85 7.94,0 14.37,-6.44 14.37,-14.37 0,-7.93 -6.43,-14.37 -14.37,-14.37 -118.9,0 -215.6,96.7 -215.6,215.59 0,118.87 96.7,215.6 215.6,215.6l402.45 0c118.87,0 215.59,-96.73 215.59,-215.6 0,-118.89 -96.72,-215.59 -215.59,-215.59z"/>
  <path class="fil0" d="M4168.19 7549.91c237.76,0 431.19,-193.43 431.19,-431.2 0,-237.76 -193.43,-431.2 -431.19,-431.2 -237.77,0 -431.18,193.44 -431.18,431.2 0,237.77 193.41,431.2 431.18,431.2l0 0zm0 -804.9c206.06,0 373.7,167.65 373.7,373.7 0,206.06 -167.64,373.7 -373.7,373.7 -206.04,0 -373.69,-167.61 -373.69,-373.7 0,-206.08 167.65,-373.7 373.69,-373.7z"/>
  <path class="fil0" d="M4570.65 7492.41c-15.9,0 -28.76,12.89 -28.76,28.75 0,15.87 12.86,28.75 28.76,28.75 206.04,0 373.69,167.65 373.69,373.69 0,206.05 -167.65,373.71 -373.69,373.71l-804.9 0c-206.04,0 -373.7,-167.66 -373.7,-373.71 0,-206.04 167.66,-373.69 373.7,-373.69 15.9,0 28.75,-12.88 28.75,-28.75 0,-15.86 -12.85,-28.75 -28.75,-28.75 -237.79,0 -431.19,193.43 -431.19,431.19 0,237.76 193.4,431.19 431.19,431.19l804.9 0c237.75,0 431.19,-193.43 431.19,-431.19 0,-237.76 -193.44,-431.19 -431.19,-431.19z"/>
  <path class="fil0" d="M5835.47 7535.53c118.88,0 215.6,-96.72 215.6,-215.6 0,-118.88 -96.72,-215.59 -215.6,-215.59 -118.88,0 -215.58,96.71 -215.58,215.59 0,118.88 96.7,215.6 215.58,215.6l0 0zm0 -402.45c103.03,0 186.86,83.82 186.86,186.85 0,103.03 -83.83,186.86 -186.86,186.86 -103.01,0 -186.84,-83.81 -186.84,-186.86 0,-103.03 83.83,-186.85 186.84,-186.85z"/>
  <path class="fil0" d="M6036.7 7506.79c-7.95,0 -14.37,6.44 -14.37,14.37 0,7.93 6.42,14.37 14.37,14.37 103.03,0 186.85,83.83 186.85,186.85 0,103.02 -83.82,186.85 -186.85,186.85l-402.46 0c-103.01,0 -186.83,-83.83 -186.83,-186.85 0,-103.02 83.82,-186.85 186.83,-186.85 7.97,0 14.39,-6.44 14.39,-14.37 0,-7.93 -6.42,-14.37 -14.39,-14.37 -118.87,0 -215.58,96.7 -215.58,215.59 0,118.87 96.71,215.6 215.58,215.6l402.46 0c118.88,0 215.6,-96.73 215.6,-215.6 0,-118.89 -96.72,-215.59 -215.6,-215.59z"/>
  <path class="fil0" d="M7502.75 7549.91c237.76,0 431.2,-193.43 431.2,-431.2 0,-237.76 -193.44,-431.2 -431.2,-431.2 -237.77,0 -431.19,193.44 -431.19,431.2 0,237.77 193.42,431.2 431.19,431.2l0 0zm0 -804.9c206.06,0 373.71,167.65 373.71,373.7 0,206.06 -167.65,373.7 -373.71,373.7 -206.03,0 -373.69,-167.61 -373.69,-373.7 0,-206.08 167.66,-373.7 373.69,-373.7z"/>
  <path class="fil0" d="M7905.21 7492.41c-15.9,0 -28.75,12.89 -28.75,28.75 0,15.87 12.85,28.75 28.75,28.75 206.06,0 373.69,167.65 373.69,373.69 0,206.05 -167.63,373.71 -373.69,373.71l-804.9 0c-206.04,0 -373.69,-167.66 -373.69,-373.71 0,-206.04 167.65,-373.69 373.69,-373.69 15.9,0 28.75,-12.88 28.75,-28.75 0,-15.86 -12.85,-28.75 -28.75,-28.75 -237.79,0 -431.19,193.43 -431.19,431.19 0,237.76 193.4,431.19 431.19,431.19l804.9 0c237.76,0 431.19,-193.43 431.19,-431.19 0,-237.76 -193.43,-431.19 -431.19,-431.19z"/>
  <path class="fil0" d="M9170.03 7535.53c118.89,0 215.6,-96.72 215.6,-215.6 0,-118.88 -96.71,-215.59 -215.6,-215.59 -118.88,0 -215.59,96.71 -215.59,215.59 0,118.88 96.71,215.6 215.59,215.6l0 0zm0 -402.45c103.04,0 186.87,83.82 186.87,186.85 0,103.03 -83.83,186.86 -186.87,186.86 -103.01,0 -186.84,-83.81 -186.84,-186.86 0,-103.03 83.83,-186.85 186.84,-186.85z"/>
  <path class="fil0" d="M9371.27 7506.79c-7.96,0 -14.37,6.44 -14.37,14.37 0,7.93 6.41,14.37 14.37,14.37 103.02,0 186.84,83.83 186.84,186.85 0,103.02 -83.82,186.85 -186.84,186.85l-402.45 0c-103.02,0 -186.86,-83.83 -186.86,-186.85 0,-103.02 83.84,-186.85 186.86,-186.85 7.94,0 14.37,-6.44 14.37,-14.37 0,-7.93 -6.43,-14.37 -14.37,-14.37 -118.9,0 -215.59,96.7 -215.59,215.59 0,118.87 96.69,215.6 215.59,215.6l402.45 0c118.87,0 215.59,-96.73 215.59,-215.6 0,-118.89 -96.72,-215.59 -215.59,-215.59z"/>
  <path class="fil0" d="M10837.32 7549.91c237.76,0 431.19,-193.43 431.19,-431.2 0,-237.76 -193.43,-431.2 -431.19,-431.2 -237.77,0 -431.19,193.44 -431.19,431.2 0,237.77 193.42,431.2 431.19,431.2l0 0zm0 -804.9c206.05,0 373.7,167.65 373.7,373.7 0,206.06 -167.65,373.7 -373.7,373.7 -206.04,0 -373.69,-167.61 -373.69,-373.7 0,-206.08 167.65,-373.7 373.69,-373.7z"/>
  <path class="fil0" d="M11239.78 7492.41c-15.9,0 -28.76,12.89 -28.76,28.75 0,15.87 12.86,28.75 28.76,28.75 206.04,0 373.69,167.65 373.69,373.69 0,206.05 -167.65,373.71 -373.69,373.71l-804.9 0c-206.04,0 -373.71,-167.66 -373.71,-373.71 0,-206.04 167.67,-373.69 373.71,-373.69 15.9,0 28.75,-12.88 28.75,-28.75 0,-15.86 -12.85,-28.75 -28.75,-28.75 -237.8,0 -431.19,193.43 -431.19,431.19 0,237.76 193.39,431.19 431.19,431.19l804.9 0c237.74,0 431.19,-193.43 431.19,-431.19 0,-237.76 -193.45,-431.19 -431.19,-431.19z"/>
  <path class="fil0" d="M12504.6 7535.53c118.88,0 215.6,-96.72 215.6,-215.6 0,-118.88 -96.72,-215.59 -215.6,-215.59 -118.88,0 -215.59,96.71 -215.59,215.59 0,118.88 96.71,215.6 215.59,215.6l0 0zm0 -402.45c103.03,0 186.85,83.82 186.85,186.85 0,103.03 -83.82,186.86 -186.85,186.86 -103.01,0 -186.85,-83.81 -186.85,-186.86 0,-103.03 83.84,-186.85 186.85,-186.85z"/>
  <path class="fil0" d="M12705.83 7506.79c-7.95,0 -14.38,6.44 -14.38,14.37 0,7.93 6.43,14.37 14.38,14.37 103.03,0 186.85,83.83 186.85,186.85 0,103.02 -83.82,186.85 -186.85,186.85l-402.45 0c-103.02,0 -186.85,-83.83 -186.85,-186.85 0,-103.02 83.83,-186.85 186.85,-186.85 7.96,0 14.37,-6.44 14.37,-14.37 0,-7.93 -6.41,-14.37 -14.37,-14.37 -118.89,0 -215.59,96.7 -215.59,215.59 0,118.87 96.7,215.6 215.59,215.6l402.45 0c118.88,0 215.6,-96.73 215.6,-215.6 0,-118.89 -96.72,-215.59 -215.6,-215.59z"/>
  <path class="fil0" d="M14171.88 7549.91c237.76,0 431.21,-193.43 431.21,-431.2 0,-237.76 -193.45,-431.2 -431.21,-431.2 -237.77,0 -431.19,193.44 -431.19,431.2 0,237.77 193.42,431.2 431.19,431.2l0 0zm0 -804.9c206.06,0 373.71,167.65 373.71,373.7 0,206.06 -167.65,373.7 -373.71,373.7 -206.03,0 -373.69,-167.61 -373.69,-373.7 0,-206.08 167.66,-373.7 373.69,-373.7z"/>
  <path class="fil0" d="M14574.34 7492.41c-15.9,0 -28.75,12.89 -28.75,28.75 0,15.87 12.85,28.75 28.75,28.75 206.06,0 373.69,167.65 373.69,373.69 0,206.05 -167.63,373.71 -373.69,373.71l-804.9 0c-206.04,0 -373.69,-167.66 -373.69,-373.71 0,-206.04 167.65,-373.69 373.69,-373.69 15.89,0 28.75,-12.88 28.75,-28.75 0,-15.86 -12.86,-28.75 -28.75,-28.75 -237.79,0 -431.19,193.43 -431.19,431.19 0,237.76 193.4,431.19 431.19,431.19l804.9 0c237.74,0 431.19,-193.43 431.19,-431.19 0,-237.76 -193.45,-431.19 -431.19,-431.19z"/>
  <path class="fil0" d="M15839.21 7535.53c118.9,0 215.54,-96.72 215.54,-215.6 0,-118.88 -96.64,-215.59 -215.54,-215.59 -118.92,0 -215.7,96.71 -215.7,215.59 0,118.88 96.78,215.6 215.7,215.6l0 0zm0 -402.45c102.95,0 186.79,83.82 186.79,186.85 0,103.03 -83.84,186.86 -186.79,186.86 -103.11,0 -186.95,-83.81 -186.95,-186.86 0,-103.03 83.84,-186.85 186.95,-186.85z"/>
  <path class="fil0" d="M16040.45 7506.79c-7.98,0 -14.45,6.44 -14.45,14.37 0,7.93 6.47,14.37 14.45,14.37 102.95,0 186.79,83.83 186.79,186.85 0,103.02 -83.84,186.85 -186.79,186.85l-402.49 0c-103.1,0 -186.79,-83.83 -186.79,-186.85 0,-103.02 83.69,-186.85 186.79,-186.85 7.98,0 14.3,-6.44 14.3,-14.37 0,-7.93 -6.32,-14.37 -14.3,-14.37 -118.91,0 -215.54,96.7 -215.54,215.59 0,118.87 96.63,215.6 215.54,215.6l402.49 0c118.76,0 215.54,-96.73 215.54,-215.6 0,-118.89 -96.78,-215.59 -215.54,-215.59z"/>
  <path class="fil0" d="M15422.42 9220.67c237.67,0 431.08,-193.44 431.08,-431.21 0,-237.76 -193.41,-431.19 -431.08,-431.19 -237.82,0 -431.27,193.43 -431.27,431.19 0,237.77 193.45,431.21 431.27,431.21l0 0zm373.59 -431.21c0,206.09 -167.68,373.71 -373.59,373.71 -206.06,0 -373.77,-167.65 -373.77,-373.71 0,-206.05 167.71,-373.69 373.77,-373.69 205.91,0 373.59,167.61 373.59,373.69z"/>
  <path class="fil0" d="M15019.9 9163.17c15.9,0 28.75,12.88 28.75,28.75 0,15.86 -12.85,28.75 -28.75,28.75 -206.06,0 -373.69,167.64 -373.69,373.69 0,206.04 167.63,373.71 373.69,373.71l804.85 0c206.06,0 373.74,-167.67 373.74,-373.71 0,-206.05 -167.68,-373.69 -373.74,-373.69 -15.8,0 -28.74,-12.89 -28.74,-28.75 0,-15.87 12.94,-28.75 28.74,-28.75 237.82,0 431.24,193.43 431.24,431.19 0,237.76 -193.42,431.19 -431.24,431.19l-804.85 0c-237.76,0 -431.19,-193.43 -431.19,-431.19 0,-237.76 193.43,-431.19 431.19,-431.19z"/>
  <path class="fil0" d="M13755.07 9206.29c118.89,0 215.6,-96.72 215.6,-215.6 0,-118.88 -96.71,-215.59 -215.6,-215.59 -118.89,0 -215.59,96.71 -215.59,215.59 0,118.88 96.7,215.6 215.59,215.6l0 0zm186.85 -215.6c0,103.04 -83.83,186.85 -186.85,186.85 -103.02,0 -186.86,-83.82 -186.86,-186.85 0,-103.03 83.84,-186.86 186.86,-186.86 103.02,0 186.85,83.83 186.85,186.86z"/>
  <path class="fil0" d="M13553.84 9177.54c7.94,0 14.37,6.45 14.37,14.38 0,7.93 -6.43,14.37 -14.37,14.37 -103.02,0 -186.84,83.83 -186.84,186.84 0,103.03 83.82,186.85 186.84,186.85l402.45 0c103.02,0 186.86,-83.82 186.86,-186.85 0,-103.01 -83.84,-186.84 -186.86,-186.84 -7.94,0 -14.37,-6.44 -14.37,-14.37 0,-7.93 6.43,-14.38 14.37,-14.38 118.9,0 215.6,96.71 215.6,215.59 0,118.88 -96.7,215.6 -215.6,215.6l-402.45 0c-118.87,0 -215.59,-96.72 -215.59,-215.6 0,-118.88 96.72,-215.59 215.59,-215.59z"/>
  <path class="fil0" d="M12087.79 9220.67c237.79,0 431.18,-193.44 431.18,-431.21 0,-237.76 -193.39,-431.19 -431.18,-431.19 -237.76,0 -431.19,193.43 -431.19,431.19 0,237.77 193.43,431.21 431.19,431.21l0 0zm373.69 -431.21c0,206.09 -167.65,373.71 -373.69,373.71 -206.05,0 -373.7,-167.65 -373.7,-373.71 0,-206.05 167.65,-373.69 373.7,-373.69 206.04,0 373.69,167.61 373.69,373.69z"/>
  <path class="fil0" d="M11685.33 9163.17c15.9,0 28.76,12.88 28.76,28.75 0,15.86 -12.86,28.75 -28.76,28.75 -206.04,0 -373.69,167.64 -373.69,373.69 0,206.04 167.65,373.71 373.69,373.71l804.9 0c206.06,0 373.7,-167.67 373.7,-373.71 0,-206.05 -167.64,-373.69 -373.7,-373.69 -15.9,0 -28.75,-12.89 -28.75,-28.75 0,-15.87 12.85,-28.75 28.75,-28.75 237.8,0 431.2,193.43 431.2,431.19 0,237.76 -193.4,431.19 -431.2,431.19l-804.9 0c-237.75,0 -431.19,-193.43 -431.19,-431.19 0,-237.76 193.44,-431.19 431.19,-431.19z"/>
  <path class="fil0" d="M10420.51 9206.29c118.89,0 215.58,-96.72 215.58,-215.6 0,-118.88 -96.69,-215.59 -215.58,-215.59 -118.88,0 -215.6,96.71 -215.6,215.59 0,118.88 96.72,215.6 215.6,215.6l0 0zm186.84 -215.6c0,103.04 -83.83,186.85 -186.84,186.85 -103.03,0 -186.86,-83.82 -186.86,-186.85 0,-103.03 83.83,-186.86 186.86,-186.86 103.01,0 186.84,83.83 186.84,186.86z"/>
  <path class="fil0" d="M10219.28 9177.54c7.95,0 14.37,6.45 14.37,14.38 0,7.93 -6.42,14.37 -14.37,14.37 -103.03,0 -186.85,83.83 -186.85,186.84 0,103.03 83.82,186.85 186.85,186.85l402.46 0c103.01,0 186.83,-83.82 186.83,-186.85 0,-103.01 -83.82,-186.84 -186.83,-186.84 -7.97,0 -14.39,-6.44 -14.39,-14.37 0,-7.93 6.42,-14.38 14.39,-14.38 118.88,0 215.58,96.71 215.58,215.59 0,118.88 -96.7,215.6 -215.58,215.6l-402.46 0c-118.88,0 -215.59,-96.72 -215.59,-215.6 0,-118.88 96.71,-215.59 215.59,-215.59z"/>
  <path class="fil0" d="M8753.23 9220.67c237.77,0 431.19,-193.44 431.19,-431.21 0,-237.76 -193.42,-431.19 -431.19,-431.19 -237.76,0 -431.2,193.43 -431.2,431.19 0,237.77 193.44,431.21 431.2,431.21l0 0zm373.69 -431.21c0,206.09 -167.66,373.71 -373.69,373.71 -206.06,0 -373.71,-167.65 -373.71,-373.71 0,-206.05 167.65,-373.69 373.71,-373.69 206.03,0 373.69,167.61 373.69,373.69z"/>
  <path class="fil0" d="M8350.77 9163.17c15.9,0 28.75,12.88 28.75,28.75 0,15.86 -12.85,28.75 -28.75,28.75 -206.04,0 -373.69,167.64 -373.69,373.69 0,206.04 167.65,373.71 373.69,373.71l804.9 0c206.04,0 373.69,-167.67 373.69,-373.71 0,-206.05 -167.65,-373.69 -373.69,-373.69 -15.9,0 -28.75,-12.89 -28.75,-28.75 0,-15.87 12.85,-28.75 28.75,-28.75 237.79,0 431.19,193.43 431.19,431.19 0,237.76 -193.4,431.19 -431.19,431.19l-804.9 0c-237.76,0 -431.19,-193.43 -431.19,-431.19 0,-237.76 193.43,-431.19 431.19,-431.19z"/>
  <path class="fil0" d="M7085.95 9206.29c118.88,0 215.59,-96.72 215.59,-215.6 0,-118.88 -96.71,-215.59 -215.59,-215.59 -118.89,0 -215.6,96.71 -215.6,215.59 0,118.88 96.71,215.6 215.6,215.6l0 0zm186.84 -215.6c0,103.04 -83.82,186.85 -186.84,186.85 -103.03,0 -186.87,-83.82 -186.87,-186.85 0,-103.03 83.84,-186.86 186.87,-186.86 103.02,0 186.84,83.83 186.84,186.86z"/>
  <path class="fil0" d="M6884.71 9177.54c7.96,0 14.37,6.45 14.37,14.38 0,7.93 -6.41,14.37 -14.37,14.37 -103.02,0 -186.84,83.83 -186.84,186.84 0,103.03 83.82,186.85 186.84,186.85l402.45 0c103.02,0 186.86,-83.82 186.86,-186.85 0,-103.01 -83.84,-186.84 -186.86,-186.84 -7.94,0 -14.37,-6.44 -14.37,-14.37 0,-7.93 6.43,-14.38 14.37,-14.38 118.9,0 215.59,96.71 215.59,215.59 0,118.88 -96.69,215.6 -215.59,215.6l-402.45 0c-118.87,0 -215.59,-96.72 -215.59,-215.6 0,-118.88 96.72,-215.59 215.59,-215.59z"/>
  <path class="fil0" d="M5418.66 9220.67c237.79,0 431.19,-193.44 431.19,-431.21 0,-237.76 -193.4,-431.19 -431.19,-431.19 -237.76,0 -431.19,193.43 -431.19,431.19 0,237.77 193.43,431.21 431.19,431.21l0 0zm373.69 -431.21c0,206.09 -167.65,373.71 -373.69,373.71 -206.05,0 -373.69,-167.65 -373.69,-373.71 0,-206.05 167.64,-373.69 373.69,-373.69 206.04,0 373.69,167.61 373.69,373.69z"/>
  <path class="fil0" d="M5016.22 9163.17c15.88,0 28.75,12.88 28.75,28.75 0,15.86 -12.87,28.75 -28.75,28.75 -206.06,0 -373.71,167.64 -373.71,373.69 0,206.04 167.65,373.71 373.71,373.71l804.89 0c206.05,0 373.7,-167.67 373.7,-373.71 0,-206.05 -167.65,-373.69 -373.7,-373.69 -15.91,0 -28.76,-12.89 -28.76,-28.75 0,-15.87 12.85,-28.75 28.76,-28.75 237.79,0 431.19,193.43 431.19,431.19 0,237.76 -193.4,431.19 -431.19,431.19l-804.89 0c-237.76,0 -431.21,-193.43 -431.21,-431.19 0,-237.76 193.45,-431.19 431.21,-431.19z"/>
  <path class="fil0" d="M3751.38 9206.29c118.89,0 215.59,-96.72 215.59,-215.6 0,-118.88 -96.7,-215.59 -215.59,-215.59 -118.88,0 -215.6,96.71 -215.6,215.59 0,118.88 96.72,215.6 215.6,215.6l0 0zm186.85 -215.6c0,103.04 -83.84,186.85 -186.85,186.85 -103.03,0 -186.85,-83.82 -186.85,-186.85 0,-103.03 83.82,-186.86 186.85,-186.86 103.01,0 186.85,83.83 186.85,186.86z"/>
  <path class="fil0" d="M3550.15 9177.54c7.95,0 14.38,6.45 14.38,14.38 0,7.93 -6.43,14.37 -14.38,14.37 -103.03,0 -186.85,83.83 -186.85,186.84 0,103.03 83.82,186.85 186.85,186.85l402.45 0c103.02,0 186.85,-83.82 186.85,-186.85 0,-103.01 -83.83,-186.84 -186.85,-186.84 -7.96,0 -14.37,-6.44 -14.37,-14.37 0,-7.93 6.41,-14.38 14.37,-14.38 118.89,0 215.59,96.71 215.59,215.59 0,118.88 -96.7,215.6 -215.59,215.6l-402.45 0c-118.88,0 -215.59,-96.72 -215.59,-215.6 0,-118.88 96.71,-215.59 215.59,-215.59z"/>
  <path class="fil0" d="M2084.1 9220.67c237.77,0 431.19,-193.44 431.19,-431.21 0,-237.76 -193.42,-431.19 -431.19,-431.19 -237.76,0 -431.21,193.43 -431.21,431.19 0,237.77 193.45,431.21 431.21,431.21l0 0zm373.69 -431.21c0,206.09 -167.65,373.71 -373.69,373.71 -206.06,0 -373.71,-167.65 -373.71,-373.71 0,-206.05 167.65,-373.69 373.71,-373.69 206.04,0 373.69,167.61 373.69,373.69z"/>
  <path class="fil0" d="M1681.64 9163.17c15.9,0 28.75,12.88 28.75,28.75 0,15.86 -12.85,28.75 -28.75,28.75 -206.04,0 -373.69,167.64 -373.69,373.69 0,206.04 167.65,373.71 373.69,373.71l804.9 0c206.05,0 373.69,-167.67 373.69,-373.71 0,-206.05 -167.64,-373.69 -373.69,-373.69 -15.89,0 -28.75,-12.89 -28.75,-28.75 0,-15.87 12.86,-28.75 28.75,-28.75 237.79,0 431.19,193.43 431.19,431.19 0,237.76 -193.4,431.19 -431.19,431.19l-804.9 0c-237.75,0 -431.19,-193.43 -431.19,-431.19 0,-237.76 193.44,-431.19 431.19,-431.19z"/>
  <path class="fil0" d="M416.81 9206.29c118.89,0 215.6,-96.72 215.6,-215.6 0,-118.88 -96.71,-215.59 -215.6,-215.59 -118.87,0 -215.6,96.71 -215.6,215.59 0,118.88 96.73,215.6 215.6,215.6l0 0zm186.85 -215.6c0,103.04 -83.83,186.85 -186.85,186.85 -103.02,0 -186.85,-83.82 -186.85,-186.85 0,-103.03 83.83,-186.86 186.85,-186.86 103.02,0 186.85,83.83 186.85,186.86z"/>
  <path class="fil0" d="M215.58 9177.54c7.95,0 14.38,6.45 14.38,14.38 0,7.93 -6.43,14.37 -14.38,14.37 -103.02,0 -186.85,83.83 -186.85,186.84 0,103.03 83.83,186.85 186.85,186.85l402.45 0c103.03,0 186.85,-83.82 186.85,-186.85 0,-103.01 -83.82,-186.84 -186.85,-186.84 -7.95,0 -14.37,-6.44 -14.37,-14.37 0,-7.93 6.42,-14.38 14.37,-14.38 118.9,0 215.6,96.71 215.6,215.59 0,118.88 -96.7,215.6 -215.6,215.6l-402.45 0c-118.87,0 -215.59,-96.72 -215.59,-215.6 0,-118.88 96.72,-215.59 215.59,-215.59z"/>
  <path class="fil0" d="M833.63 10891.42c237.76,0 431.2,-193.43 431.2,-431.21 0,-237.76 -193.44,-431.18 -431.2,-431.18 -237.78,0 -431.2,193.42 -431.2,431.18 0,237.78 193.42,431.21 431.2,431.21l0 0zm0 -804.9c206.05,0 373.7,167.65 373.7,373.69 0,206.07 -167.65,373.71 -373.7,373.71 -206.04,0 -373.7,-167.61 -373.7,-373.71 0,-206.07 167.66,-373.69 373.7,-373.69z"/>
  <path class="fil0" d="M1236.08 10833.92c-15.89,0 -28.75,12.89 -28.75,28.75 0,15.87 12.86,28.75 28.75,28.75 206.05,0 373.69,167.65 373.69,373.69 0,206.05 -167.64,373.71 -373.69,373.71l-804.9 0c-206.04,0 -373.69,-167.66 -373.69,-373.71 0,-206.04 167.65,-373.69 373.69,-373.69 15.9,0 28.75,-12.88 28.75,-28.75 0,-15.86 -12.85,-28.75 -28.75,-28.75 -237.79,0 -431.19,193.43 -431.19,431.19 0,237.76 193.4,431.19 431.19,431.19l804.9 0c237.76,0 431.19,-193.43 431.19,-431.19 0,-237.76 -193.43,-431.19 -431.19,-431.19z"/>
  <path class="fil0" d="M2500.91 10877.05c118.89,0 215.59,-96.72 215.59,-215.61 0,-118.87 -96.7,-215.58 -215.59,-215.58 -118.89,0 -215.6,96.71 -215.6,215.58 0,118.89 96.71,215.61 215.6,215.61l0 0zm0 -402.46c103.02,0 186.86,83.82 186.86,186.85 0,103.03 -83.84,186.86 -186.86,186.86 -103.02,0 -186.85,-83.81 -186.85,-186.86 0,-103.03 83.83,-186.85 186.85,-186.85z"/>
  <path class="fil0" d="M2702.14 10848.3c-7.94,0 -14.37,6.44 -14.37,14.37 0,7.93 6.43,14.38 14.37,14.38 103.02,0 186.84,83.82 186.84,186.83 0,103.03 -83.82,186.86 -186.84,186.86l-402.45 0c-103.02,0 -186.86,-83.83 -186.86,-186.86 0,-103.01 83.84,-186.83 186.86,-186.83 7.94,0 14.37,-6.45 14.37,-14.38 0,-7.93 -6.43,-14.37 -14.37,-14.37 -118.9,0 -215.6,96.71 -215.6,215.58 0,118.89 96.7,215.61 215.6,215.61l402.45 0c118.87,0 215.59,-96.72 215.59,-215.61 0,-118.87 -96.72,-215.58 -215.59,-215.58z"/>
  <path class="fil0" d="M4168.19 10891.42c237.76,0 431.19,-193.43 431.19,-431.21 0,-237.76 -193.43,-431.18 -431.19,-431.18 -237.77,0 -431.18,193.42 -431.18,431.18 0,237.78 193.41,431.21 431.18,431.21l0 0zm0 -804.9c206.06,0 373.7,167.65 373.7,373.69 0,206.07 -167.64,373.71 -373.7,373.71 -206.04,0 -373.69,-167.61 -373.69,-373.71 0,-206.07 167.65,-373.69 373.69,-373.69z"/>
  <path class="fil0" d="M4570.65 10833.92c-15.9,0 -28.76,12.89 -28.76,28.75 0,15.87 12.86,28.75 28.76,28.75 206.04,0 373.69,167.65 373.69,373.69 0,206.05 -167.65,373.71 -373.69,373.71l-804.9 0c-206.04,0 -373.7,-167.66 -373.7,-373.71 0,-206.04 167.66,-373.69 373.7,-373.69 15.9,0 28.75,-12.88 28.75,-28.75 0,-15.86 -12.85,-28.75 -28.75,-28.75 -237.79,0 -431.19,193.43 -431.19,431.19 0,237.76 193.4,431.19 431.19,431.19l804.9 0c237.75,0 431.19,-193.43 431.19,-431.19 0,-237.76 -193.44,-431.19 -431.19,-431.19z"/>
  <path class="fil0" d="M5835.47 10877.05c118.88,0 215.6,-96.72 215.6,-215.61 0,-118.87 -96.72,-215.58 -215.6,-215.58 -118.88,0 -215.58,96.71 -215.58,215.58 0,118.89 96.7,215.61 215.58,215.61l0 0zm0 -402.46c103.03,0 186.86,83.82 186.86,186.85 0,103.03 -83.83,186.86 -186.86,186.86 -103.01,0 -186.84,-83.81 -186.84,-186.86 0,-103.03 83.83,-186.85 186.84,-186.85z"/>
  <path class="fil0" d="M6036.7 10848.3c-7.95,0 -14.37,6.44 -14.37,14.37 0,7.93 6.42,14.38 14.37,14.38 103.03,0 186.85,83.82 186.85,186.83 0,103.03 -83.82,186.86 -186.85,186.86l-402.46 0c-103.01,0 -186.83,-83.83 -186.83,-186.86 0,-103.01 83.82,-186.83 186.83,-186.83 7.97,0 14.39,-6.45 14.39,-14.38 0,-7.93 -6.42,-14.37 -14.39,-14.37 -118.87,0 -215.58,96.71 -215.58,215.58 0,118.89 96.71,215.61 215.58,215.61l402.46 0c118.88,0 215.6,-96.72 215.6,-215.61 0,-118.87 -96.72,-215.58 -215.6,-215.58z"/>
  <path class="fil0" d="M7502.75 10891.42c237.76,0 431.2,-193.43 431.2,-431.21 0,-237.76 -193.44,-431.18 -431.2,-431.18 -237.77,0 -431.19,193.42 -431.19,431.18 0,237.78 193.42,431.21 431.19,431.21l0 0zm0 -804.9c206.06,0 373.71,167.65 373.71,373.69 0,206.07 -167.65,373.71 -373.71,373.71 -206.03,0 -373.69,-167.61 -373.69,-373.71 0,-206.07 167.66,-373.69 373.69,-373.69z"/>
  <path class="fil0" d="M7905.21 10833.92c-15.9,0 -28.75,12.89 -28.75,28.75 0,15.87 12.85,28.75 28.75,28.75 206.06,0 373.69,167.65 373.69,373.69 0,206.05 -167.63,373.71 -373.69,373.71l-804.9 0c-206.04,0 -373.69,-167.66 -373.69,-373.71 0,-206.04 167.65,-373.69 373.69,-373.69 15.9,0 28.75,-12.88 28.75,-28.75 0,-15.86 -12.85,-28.75 -28.75,-28.75 -237.79,0 -431.19,193.43 -431.19,431.19 0,237.76 193.4,431.19 431.19,431.19l804.9 0c237.76,0 431.19,-193.43 431.19,-431.19 0,-237.76 -193.43,-431.19 -431.19,-431.19z"/>
  <path class="fil0" d="M9170.03 10877.05c118.89,0 215.6,-96.72 215.6,-215.61 0,-118.87 -96.71,-215.58 -215.6,-215.58 -118.88,0 -215.59,96.71 -215.59,215.58 0,118.89 96.71,215.61 215.59,215.61l0 0zm0 -402.46c103.04,0 186.87,83.82 186.87,186.85 0,103.03 -83.83,186.86 -186.87,186.86 -103.01,0 -186.84,-83.81 -186.84,-186.86 0,-103.03 83.83,-186.85 186.84,-186.85z"/>
  <path class="fil0" d="M9371.27 10848.3c-7.96,0 -14.37,6.44 -14.37,14.37 0,7.93 6.41,14.38 14.37,14.38 103.02,0 186.84,83.82 186.84,186.83 0,103.03 -83.82,186.86 -186.84,186.86l-402.45 0c-103.02,0 -186.86,-83.83 -186.86,-186.86 0,-103.01 83.84,-186.83 186.86,-186.83 7.94,0 14.37,-6.45 14.37,-14.38 0,-7.93 -6.43,-14.37 -14.37,-14.37 -118.9,0 -215.59,96.71 -215.59,215.58 0,118.89 96.69,215.61 215.59,215.61l402.45 0c118.87,0 215.59,-96.72 215.59,-215.61 0,-118.87 -96.72,-215.58 -215.59,-215.58z"/>
  <path class="fil0" d="M10837.32 10891.42c237.76,0 431.19,-193.43 431.19,-431.21 0,-237.76 -193.43,-431.18 -431.19,-431.18 -237.77,0 -431.19,193.42 -431.19,431.18 0,237.78 193.42,431.21 431.19,431.21l0 0zm0 -804.9c206.05,0 373.7,167.65 373.7,373.69 0,206.07 -167.65,373.71 -373.7,373.71 -206.04,0 -373.69,-167.61 -373.69,-373.71 0,-206.07 167.65,-373.69 373.69,-373.69z"/>
  <path class="fil0" d="M11239.78 10833.92c-15.9,0 -28.76,12.89 -28.76,28.75 0,15.87 12.86,28.75 28.76,28.75 206.04,0 373.69,167.65 373.69,373.69 0,206.05 -167.65,373.71 -373.69,373.71l-804.9 0c-206.04,0 -373.71,-167.66 -373.71,-373.71 0,-206.04 167.67,-373.69 373.71,-373.69 15.9,0 28.75,-12.88 28.75,-28.75 0,-15.86 -12.85,-28.75 -28.75,-28.75 -237.8,0 -431.19,193.43 -431.19,431.19 0,237.76 193.39,431.19 431.19,431.19l804.9 0c237.74,0 431.19,-193.43 431.19,-431.19 0,-237.76 -193.45,-431.19 -431.19,-431.19z"/>
  <path class="fil0" d="M12504.6 10877.05c118.88,0 215.6,-96.72 215.6,-215.61 0,-118.87 -96.72,-215.58 -215.6,-215.58 -118.88,0 -215.59,96.71 -215.59,215.58 0,118.89 96.71,215.61 215.59,215.61l0 0zm0 -402.46c103.03,0 186.85,83.82 186.85,186.85 0,103.03 -83.82,186.86 -186.85,186.86 -103.01,0 -186.85,-83.81 -186.85,-186.86 0,-103.03 83.84,-186.85 186.85,-186.85z"/>
  <path class="fil0" d="M12705.83 10848.3c-7.95,0 -14.38,6.44 -14.38,14.37 0,7.93 6.43,14.38 14.38,14.38 103.03,0 186.85,83.82 186.85,186.83 0,103.03 -83.82,186.86 -186.85,186.86l-402.45 0c-103.02,0 -186.85,-83.83 -186.85,-186.86 0,-103.01 83.83,-186.83 186.85,-186.83 7.96,0 14.37,-6.45 14.37,-14.38 0,-7.93 -6.41,-14.37 -14.37,-14.37 -118.89,0 -215.59,96.71 -215.59,215.58 0,118.89 96.7,215.61 215.59,215.61l402.45 0c118.88,0 215.6,-96.72 215.6,-215.61 0,-118.87 -96.72,-215.58 -215.6,-215.58z"/>
  <path class="fil0" d="M14171.88 10891.42c237.76,0 431.21,-193.43 431.21,-431.21 0,-237.76 -193.45,-431.18 -431.21,-431.18 -237.77,0 -431.19,193.42 -431.19,431.18 0,237.78 193.42,431.21 431.19,431.21l0 0zm0 -804.9c206.06,0 373.71,167.65 373.71,373.69 0,206.07 -167.65,373.71 -373.71,373.71 -206.03,0 -373.69,-167.61 -373.69,-373.71 0,-206.07 167.66,-373.69 373.69,-373.69z"/>
  <path class="fil0" d="M14574.34 10833.92c-15.9,0 -28.75,12.89 -28.75,28.75 0,15.87 12.85,28.75 28.75,28.75 206.06,0 373.69,167.65 373.69,373.69 0,206.05 -167.63,373.71 -373.69,373.71l-804.9 0c-206.04,0 -373.69,-167.66 -373.69,-373.71 0,-206.04 167.65,-373.69 373.69,-373.69 15.89,0 28.75,-12.88 28.75,-28.75 0,-15.86 -12.86,-28.75 -28.75,-28.75 -237.79,0 -431.19,193.43 -431.19,431.19 0,237.76 193.4,431.19 431.19,431.19l804.9 0c237.74,0 431.19,-193.43 431.19,-431.19 0,-237.76 -193.45,-431.19 -431.19,-431.19z"/>
  <path class="fil0" d="M15839.21 10877.05c118.9,0 215.54,-96.72 215.54,-215.61 0,-118.87 -96.64,-215.58 -215.54,-215.58 -118.92,0 -215.7,96.71 -215.7,215.58 0,118.89 96.78,215.61 215.7,215.61l0 0zm0 -402.46c102.95,0 186.79,83.82 186.79,186.85 0,103.03 -83.84,186.86 -186.79,186.86 -103.11,0 -186.95,-83.81 -186.95,-186.86 0,-103.03 83.84,-186.85 186.95,-186.85z"/>
  <path class="fil0" d="M16040.45 10848.3c-7.98,0 -14.45,6.44 -14.45,14.37 0,7.93 6.47,14.38 14.45,14.38 102.95,0 186.79,83.82 186.79,186.83 0,103.03 -83.84,186.86 -186.79,186.86l-402.49 0c-103.1,0 -186.79,-83.83 -186.79,-186.86 0,-103.01 83.69,-186.83 186.79,-186.83 7.98,0 14.3,-6.45 14.3,-14.38 0,-7.93 -6.32,-14.37 -14.3,-14.37 -118.91,0 -215.54,96.71 -215.54,215.58 0,118.89 96.63,215.61 215.54,215.61l402.49 0c118.76,0 215.54,-96.72 215.54,-215.61 0,-118.87 -96.78,-215.58 -215.54,-215.58z"/>
  <path class="fil0" d="M15422.42 12562.17c237.67,0 431.08,-193.42 431.08,-431.2 0,-237.76 -193.41,-431.19 -431.08,-431.19 -237.82,0 -431.27,193.43 -431.27,431.19 0,237.78 193.45,431.2 431.27,431.2l0 0zm373.59 -431.2c0,206.09 -167.68,373.71 -373.59,373.71 -206.06,0 -373.77,-167.65 -373.77,-373.71 0,-206.04 167.71,-373.69 373.77,-373.69 205.91,0 373.59,167.62 373.59,373.69z"/>
  <path class="fil0" d="M15019.9 12504.68c15.9,0 28.75,12.88 28.75,28.75 0,15.86 -12.85,28.74 -28.75,28.74 -206.06,0 -373.69,167.65 -373.69,373.7 0,206.04 167.63,373.7 373.69,373.7l804.85 0c206.06,0 373.74,-167.66 373.74,-373.7 0,-206.05 -167.68,-373.7 -373.74,-373.7 -15.8,0 -28.74,-12.88 -28.74,-28.74 0,-15.87 12.94,-28.75 28.74,-28.75 237.82,0 431.24,193.43 431.24,431.19 0,237.76 -193.42,431.19 -431.24,431.19l-804.85 0c-237.76,0 -431.19,-193.43 -431.19,-431.19 0,-237.76 193.43,-431.19 431.19,-431.19z"/>
  <path class="fil0" d="M13755.07 12547.8c118.89,0 215.6,-96.72 215.6,-215.6 0,-118.88 -96.71,-215.59 -215.6,-215.59 -118.89,0 -215.59,96.71 -215.59,215.59 0,118.88 96.7,215.6 215.59,215.6l0 0zm186.85 -215.6c0,103.05 -83.83,186.85 -186.85,186.85 -103.02,0 -186.86,-83.82 -186.86,-186.85 0,-103.03 83.84,-186.85 186.86,-186.85 103.02,0 186.85,83.82 186.85,186.85z"/>
  <path class="fil0" d="M13553.84 12519.05c7.94,0 14.37,6.44 14.37,14.38 0,7.93 -6.43,14.37 -14.37,14.37 -103.02,0 -186.84,83.83 -186.84,186.84 0,103.03 83.82,186.86 186.84,186.86l402.45 0c103.02,0 186.86,-83.83 186.86,-186.86 0,-103.01 -83.84,-186.84 -186.86,-186.84 -7.94,0 -14.37,-6.44 -14.37,-14.37 0,-7.94 6.43,-14.38 14.37,-14.38 118.9,0 215.6,96.71 215.6,215.59 0,118.88 -96.7,215.6 -215.6,215.6l-402.45 0c-118.87,0 -215.59,-96.72 -215.59,-215.6 0,-118.88 96.72,-215.59 215.59,-215.59z"/>
  <path class="fil0" d="M12087.79 12562.17c237.79,0 431.18,-193.42 431.18,-431.2 0,-237.76 -193.39,-431.19 -431.18,-431.19 -237.76,0 -431.19,193.43 -431.19,431.19 0,237.78 193.43,431.2 431.19,431.2l0 0zm373.69 -431.2c0,206.09 -167.65,373.71 -373.69,373.71 -206.05,0 -373.7,-167.65 -373.7,-373.71 0,-206.04 167.65,-373.69 373.7,-373.69 206.04,0 373.69,167.62 373.69,373.69z"/>
  <path class="fil0" d="M11685.33 12504.68c15.9,0 28.76,12.88 28.76,28.75 0,15.86 -12.86,28.74 -28.76,28.74 -206.04,0 -373.69,167.65 -373.69,373.7 0,206.04 167.65,373.7 373.69,373.7l804.9 0c206.06,0 373.7,-167.66 373.7,-373.7 0,-206.05 -167.64,-373.7 -373.7,-373.7 -15.9,0 -28.75,-12.88 -28.75,-28.74 0,-15.87 12.85,-28.75 28.75,-28.75 237.8,0 431.2,193.43 431.2,431.19 0,237.76 -193.4,431.19 -431.2,431.19l-804.9 0c-237.75,0 -431.19,-193.43 -431.19,-431.19 0,-237.76 193.44,-431.19 431.19,-431.19z"/>
  <path class="fil0" d="M10420.51 12547.8c118.89,0 215.58,-96.72 215.58,-215.6 0,-118.88 -96.69,-215.59 -215.58,-215.59 -118.88,0 -215.6,96.71 -215.6,215.59 0,118.88 96.72,215.6 215.6,215.6l0 0zm186.84 -215.6c0,103.05 -83.83,186.85 -186.84,186.85 -103.03,0 -186.86,-83.82 -186.86,-186.85 0,-103.03 83.83,-186.85 186.86,-186.85 103.01,0 186.84,83.82 186.84,186.85z"/>
  <path class="fil0" d="M10219.28 12519.05c7.95,0 14.37,6.44 14.37,14.38 0,7.93 -6.42,14.37 -14.37,14.37 -103.03,0 -186.85,83.83 -186.85,186.84 0,103.03 83.82,186.86 186.85,186.86l402.46 0c103.01,0 186.83,-83.83 186.83,-186.86 0,-103.01 -83.82,-186.84 -186.83,-186.84 -7.97,0 -14.39,-6.44 -14.39,-14.37 0,-7.94 6.42,-14.38 14.39,-14.38 118.88,0 215.58,96.71 215.58,215.59 0,118.88 -96.7,215.6 -215.58,215.6l-402.46 0c-118.88,0 -215.59,-96.72 -215.59,-215.6 0,-118.88 96.71,-215.59 215.59,-215.59z"/>
  <path class="fil0" d="M8753.23 12562.17c237.77,0 431.19,-193.42 431.19,-431.2 0,-237.76 -193.42,-431.19 -431.19,-431.19 -237.76,0 -431.2,193.43 -431.2,431.19 0,237.78 193.44,431.2 431.2,431.2l0 0zm373.69 -431.2c0,206.09 -167.66,373.71 -373.69,373.71 -206.06,0 -373.71,-167.65 -373.71,-373.71 0,-206.04 167.65,-373.69 373.71,-373.69 206.03,0 373.69,167.62 373.69,373.69z"/>
  <path class="fil0" d="M8350.77 12504.68c15.9,0 28.75,12.88 28.75,28.75 0,15.86 -12.85,28.74 -28.75,28.74 -206.04,0 -373.69,167.65 -373.69,373.7 0,206.04 167.65,373.7 373.69,373.7l804.9 0c206.04,0 373.69,-167.66 373.69,-373.7 0,-206.05 -167.65,-373.7 -373.69,-373.7 -15.9,0 -28.75,-12.88 -28.75,-28.74 0,-15.87 12.85,-28.75 28.75,-28.75 237.79,0 431.19,193.43 431.19,431.19 0,237.76 -193.4,431.19 -431.19,431.19l-804.9 0c-237.76,0 -431.19,-193.43 -431.19,-431.19 0,-237.76 193.43,-431.19 431.19,-431.19z"/>
  <path class="fil0" d="M7085.95 12547.8c118.88,0 215.59,-96.72 215.59,-215.6 0,-118.88 -96.71,-215.59 -215.59,-215.59 -118.89,0 -215.6,96.71 -215.6,215.59 0,118.88 96.71,215.6 215.6,215.6l0 0zm186.84 -215.6c0,103.05 -83.82,186.85 -186.84,186.85 -103.03,0 -186.87,-83.82 -186.87,-186.85 0,-103.03 83.84,-186.85 186.87,-186.85 103.02,0 186.84,83.82 186.84,186.85z"/>
  <path class="fil0" d="M6884.71 12519.05c7.96,0 14.37,6.44 14.37,14.38 0,7.93 -6.41,14.37 -14.37,14.37 -103.02,0 -186.84,83.83 -186.84,186.84 0,103.03 83.82,186.86 186.84,186.86l402.45 0c103.02,0 186.86,-83.83 186.86,-186.86 0,-103.01 -83.84,-186.84 -186.86,-186.84 -7.94,0 -14.37,-6.44 -14.37,-14.37 0,-7.94 6.43,-14.38 14.37,-14.38 118.9,0 215.59,96.71 215.59,215.59 0,118.88 -96.69,215.6 -215.59,215.6l-402.45 0c-118.87,0 -215.59,-96.72 -215.59,-215.6 0,-118.88 96.72,-215.59 215.59,-215.59z"/>
  <path class="fil0" d="M5418.66 12562.17c237.79,0 431.19,-193.42 431.19,-431.2 0,-237.76 -193.4,-431.19 -431.19,-431.19 -237.76,0 -431.19,193.43 -431.19,431.19 0,237.78 193.43,431.2 431.19,431.2l0 0zm373.69 -431.2c0,206.09 -167.65,373.71 -373.69,373.71 -206.05,0 -373.69,-167.65 -373.69,-373.71 0,-206.04 167.64,-373.69 373.69,-373.69 206.04,0 373.69,167.62 373.69,373.69z"/>
  <path class="fil0" d="M5016.22 12504.68c15.88,0 28.75,12.88 28.75,28.75 0,15.86 -12.87,28.74 -28.75,28.74 -206.06,0 -373.71,167.65 -373.71,373.7 0,206.04 167.65,373.7 373.71,373.7l804.89 0c206.05,0 373.7,-167.66 373.7,-373.7 0,-206.05 -167.65,-373.7 -373.7,-373.7 -15.91,0 -28.76,-12.88 -28.76,-28.74 0,-15.87 12.85,-28.75 28.76,-28.75 237.79,0 431.19,193.43 431.19,431.19 0,237.76 -193.4,431.19 -431.19,431.19l-804.89 0c-237.76,0 -431.21,-193.43 -431.21,-431.19 0,-237.76 193.45,-431.19 431.21,-431.19z"/>
  <path class="fil0" d="M3751.38 12547.8c118.89,0 215.59,-96.72 215.59,-215.6 0,-118.88 -96.7,-215.59 -215.59,-215.59 -118.88,0 -215.6,96.71 -215.6,215.59 0,118.88 96.72,215.6 215.6,215.6l0 0zm186.85 -215.6c0,103.05 -83.84,186.85 -186.85,186.85 -103.03,0 -186.85,-83.82 -186.85,-186.85 0,-103.03 83.82,-186.85 186.85,-186.85 103.01,0 186.85,83.82 186.85,186.85z"/>
  <path class="fil0" d="M3550.15 12519.05c7.95,0 14.38,6.44 14.38,14.38 0,7.93 -6.43,14.37 -14.38,14.37 -103.03,0 -186.85,83.83 -186.85,186.84 0,103.03 83.82,186.86 186.85,186.86l402.45 0c103.02,0 186.85,-83.83 186.85,-186.86 0,-103.01 -83.83,-186.84 -186.85,-186.84 -7.96,0 -14.37,-6.44 -14.37,-14.37 0,-7.94 6.41,-14.38 14.37,-14.38 118.89,0 215.59,96.71 215.59,215.59 0,118.88 -96.7,215.6 -215.59,215.6l-402.45 0c-118.88,0 -215.59,-96.72 -215.59,-215.6 0,-118.88 96.71,-215.59 215.59,-215.59z"/>
  <path class="fil0" d="M2084.1 12562.17c237.77,0 431.19,-193.42 431.19,-431.2 0,-237.76 -193.42,-431.19 -431.19,-431.19 -237.76,0 -431.21,193.43 -431.21,431.19 0,237.78 193.45,431.2 431.21,431.2l0 0zm373.69 -431.2c0,206.09 -167.65,373.71 -373.69,373.71 -206.06,0 -373.71,-167.65 -373.71,-373.71 0,-206.04 167.65,-373.69 373.71,-373.69 206.04,0 373.69,167.62 373.69,373.69z"/>
  <path class="fil0" d="M1681.64 12504.68c15.9,0 28.75,12.88 28.75,28.75 0,15.86 -12.85,28.74 -28.75,28.74 -206.04,0 -373.69,167.65 -373.69,373.7 0,206.04 167.65,373.7 373.69,373.7l804.9 0c206.05,0 373.69,-167.66 373.69,-373.7 0,-206.05 -167.64,-373.7 -373.69,-373.7 -15.89,0 -28.75,-12.88 -28.75,-28.74 0,-15.87 12.86,-28.75 28.75,-28.75 237.79,0 431.19,193.43 431.19,431.19 0,237.76 -193.4,431.19 -431.19,431.19l-804.9 0c-237.75,0 -431.19,-193.43 -431.19,-431.19 0,-237.76 193.44,-431.19 431.19,-431.19z"/>
  <path class="fil0" d="M416.81 12547.8c118.89,0 215.6,-96.72 215.6,-215.6 0,-118.88 -96.71,-215.59 -215.6,-215.59 -118.87,0 -215.6,96.71 -215.6,215.59 0,118.88 96.73,215.6 215.6,215.6l0 0zm186.85 -215.6c0,103.05 -83.83,186.85 -186.85,186.85 -103.02,0 -186.85,-83.82 -186.85,-186.85 0,-103.03 83.83,-186.85 186.85,-186.85 103.02,0 186.85,83.82 186.85,186.85z"/>
  <path class="fil0" d="M215.58 12519.05c7.95,0 14.38,6.44 14.38,14.38 0,7.93 -6.43,14.37 -14.38,14.37 -103.02,0 -186.85,83.83 -186.85,186.84 0,103.03 83.83,186.86 186.85,186.86l402.45 0c103.03,0 186.85,-83.83 186.85,-186.86 0,-103.01 -83.82,-186.84 -186.85,-186.84 -7.95,0 -14.37,-6.44 -14.37,-14.37 0,-7.94 6.42,-14.38 14.37,-14.38 118.9,0 215.6,96.71 215.6,215.59 0,118.88 -96.7,215.6 -215.6,215.6l-402.45 0c-118.87,0 -215.59,-96.72 -215.59,-215.6 0,-118.88 96.72,-215.59 215.59,-215.59z"/>
  <path class="fil0" d="M833.63 14232.93c237.76,0 431.2,-193.43 431.2,-431.2 0,-237.76 -193.44,-431.19 -431.2,-431.19 -237.78,0 -431.2,193.43 -431.2,431.19 0,237.77 193.42,431.2 431.2,431.2l0 0zm0 -804.9c206.05,0 373.7,167.64 373.7,373.7 0,206.05 -167.65,373.71 -373.7,373.71 -206.04,0 -373.7,-167.63 -373.7,-373.71 0,-206.08 167.66,-373.7 373.7,-373.7z"/>
  <path class="fil0" d="M1236.08 14175.44c-15.89,0 -28.75,12.88 -28.75,28.74 0,15.87 12.86,28.75 28.75,28.75 206.05,0 373.69,167.65 373.69,373.69 0,206.05 -167.64,373.71 -373.69,373.71l-804.9 0c-206.04,0 -373.69,-167.66 -373.69,-373.71 0,-206.04 167.65,-373.69 373.69,-373.69 15.9,0 28.75,-12.88 28.75,-28.75 0,-15.86 -12.85,-28.74 -28.75,-28.74 -237.79,0 -431.19,193.42 -431.19,431.18 0,237.76 193.4,431.2 431.19,431.2l804.9 0c237.76,0 431.19,-193.44 431.19,-431.2 0,-237.76 -193.43,-431.18 -431.19,-431.18z"/>
  <path class="fil0" d="M2500.91 14218.56c118.89,0 215.59,-96.73 215.59,-215.6 0,-118.89 -96.7,-215.6 -215.59,-215.6 -118.89,0 -215.6,96.71 -215.6,215.6 0,118.87 96.71,215.6 215.6,215.6l0 0zm0 -402.46c103.02,0 186.86,83.82 186.86,186.86 0,103.02 -83.84,186.85 -186.86,186.85 -103.02,0 -186.85,-83.81 -186.85,-186.85 0,-103.05 83.83,-186.86 186.85,-186.86z"/>
  <path class="fil0" d="M2702.14 14189.81c-7.94,0 -14.37,6.44 -14.37,14.37 0,7.94 6.43,14.38 14.37,14.38 103.02,0 186.84,83.82 186.84,186.84 0,103.03 -83.82,186.85 -186.84,186.85l-402.45 0c-103.02,0 -186.86,-83.82 -186.86,-186.85 0,-103.02 83.84,-186.84 186.86,-186.84 7.94,0 14.37,-6.44 14.37,-14.38 0,-7.93 -6.43,-14.37 -14.37,-14.37 -118.9,0 -215.6,96.71 -215.6,215.59 0,118.87 96.7,215.6 215.6,215.6l402.45 0c118.87,0 215.59,-96.73 215.59,-215.6 0,-118.88 -96.72,-215.59 -215.59,-215.59z"/>
  <path class="fil0" d="M4168.19 14232.93c237.76,0 431.19,-193.43 431.19,-431.2 0,-237.76 -193.43,-431.19 -431.19,-431.19 -237.77,0 -431.18,193.43 -431.18,431.19 0,237.77 193.41,431.2 431.18,431.2l0 0zm0 -804.9c206.06,0 373.7,167.64 373.7,373.7 0,206.05 -167.64,373.71 -373.7,373.71 -206.04,0 -373.69,-167.63 -373.69,-373.71 0,-206.08 167.65,-373.7 373.69,-373.7z"/>
  <path class="fil0" d="M4570.65 14175.44c-15.9,0 -28.76,12.88 -28.76,28.74 0,15.87 12.86,28.75 28.76,28.75 206.04,0 373.69,167.65 373.69,373.69 0,206.05 -167.65,373.71 -373.69,373.71l-804.9 0c-206.04,0 -373.7,-167.66 -373.7,-373.71 0,-206.04 167.66,-373.69 373.7,-373.69 15.9,0 28.75,-12.88 28.75,-28.75 0,-15.86 -12.85,-28.74 -28.75,-28.74 -237.79,0 -431.19,193.42 -431.19,431.18 0,237.76 193.4,431.2 431.19,431.2l804.9 0c237.75,0 431.19,-193.44 431.19,-431.2 0,-237.76 -193.44,-431.18 -431.19,-431.18z"/>
  <path class="fil0" d="M5835.47 14218.56c118.88,0 215.6,-96.73 215.6,-215.6 0,-118.89 -96.72,-215.6 -215.6,-215.6 -118.88,0 -215.58,96.71 -215.58,215.6 0,118.87 96.7,215.6 215.58,215.6l0 0zm0 -402.46c103.03,0 186.86,83.82 186.86,186.86 0,103.02 -83.83,186.85 -186.86,186.85 -103.01,0 -186.84,-83.81 -186.84,-186.85 0,-103.05 83.83,-186.86 186.84,-186.86z"/>
  <path class="fil0" d="M6036.7 14189.81c-7.95,0 -14.37,6.44 -14.37,14.37 0,7.94 6.42,14.38 14.37,14.38 103.03,0 186.85,83.82 186.85,186.84 0,103.03 -83.82,186.85 -186.85,186.85l-402.46 0c-103.01,0 -186.83,-83.82 -186.83,-186.85 0,-103.02 83.82,-186.84 186.83,-186.84 7.97,0 14.39,-6.44 14.39,-14.38 0,-7.93 -6.42,-14.37 -14.39,-14.37 -118.87,0 -215.58,96.71 -215.58,215.59 0,118.87 96.71,215.6 215.58,215.6l402.46 0c118.88,0 215.6,-96.73 215.6,-215.6 0,-118.88 -96.72,-215.59 -215.6,-215.59z"/>
  <path class="fil0" d="M7502.75 14232.93c237.76,0 431.2,-193.43 431.2,-431.2 0,-237.76 -193.44,-431.19 -431.2,-431.19 -237.77,0 -431.19,193.43 -431.19,431.19 0,237.77 193.42,431.2 431.19,431.2l0 0zm0 -804.9c206.06,0 373.71,167.64 373.71,373.7 0,206.05 -167.65,373.71 -373.71,373.71 -206.03,0 -373.69,-167.63 -373.69,-373.71 0,-206.08 167.66,-373.7 373.69,-373.7z"/>
  <path class="fil0" d="M7905.21 14175.44c-15.9,0 -28.75,12.88 -28.75,28.74 0,15.87 12.85,28.75 28.75,28.75 206.06,0 373.69,167.65 373.69,373.69 0,206.05 -167.63,373.71 -373.69,373.71l-804.9 0c-206.04,0 -373.69,-167.66 -373.69,-373.71 0,-206.04 167.65,-373.69 373.69,-373.69 15.9,0 28.75,-12.88 28.75,-28.75 0,-15.86 -12.85,-28.74 -28.75,-28.74 -237.79,0 -431.19,193.42 -431.19,431.18 0,237.76 193.4,431.2 431.19,431.2l804.9 0c237.76,0 431.19,-193.44 431.19,-431.2 0,-237.76 -193.43,-431.18 -431.19,-431.18z"/>
  <path class="fil0" d="M9170.03 14218.56c118.89,0 215.6,-96.73 215.6,-215.6 0,-118.89 -96.71,-215.6 -215.6,-215.6 -118.88,0 -215.59,96.71 -215.59,215.6 0,118.87 96.71,215.6 215.59,215.6l0 0zm0 -402.46c103.04,0 186.87,83.82 186.87,186.86 0,103.02 -83.83,186.85 -186.87,186.85 -103.01,0 -186.84,-83.81 -186.84,-186.85 0,-103.05 83.83,-186.86 186.84,-186.86z"/>
  <path class="fil0" d="M9371.27 14189.81c-7.96,0 -14.37,6.44 -14.37,14.37 0,7.94 6.41,14.38 14.37,14.38 103.02,0 186.84,83.82 186.84,186.84 0,103.03 -83.82,186.85 -186.84,186.85l-402.45 0c-103.02,0 -186.86,-83.82 -186.86,-186.85 0,-103.02 83.84,-186.84 186.86,-186.84 7.94,0 14.37,-6.44 14.37,-14.38 0,-7.93 -6.43,-14.37 -14.37,-14.37 -118.9,0 -215.59,96.71 -215.59,215.59 0,118.87 96.69,215.6 215.59,215.6l402.45 0c118.87,0 215.59,-96.73 215.59,-215.6 0,-118.88 -96.72,-215.59 -215.59,-215.59z"/>
  <path class="fil0" d="M10837.32 14232.93c237.76,0 431.19,-193.43 431.19,-431.2 0,-237.76 -193.43,-431.19 -431.19,-431.19 -237.77,0 -431.19,193.43 -431.19,431.19 0,237.77 193.42,431.2 431.19,431.2l0 0zm0 -804.9c206.05,0 373.7,167.64 373.7,373.7 0,206.05 -167.65,373.71 -373.7,373.71 -206.04,0 -373.69,-167.63 -373.69,-373.71 0,-206.08 167.65,-373.7 373.69,-373.7z"/>
  <path class="fil0" d="M11239.78 14175.44c-15.9,0 -28.76,12.88 -28.76,28.74 0,15.87 12.86,28.75 28.76,28.75 206.04,0 373.69,167.65 373.69,373.69 0,206.05 -167.65,373.71 -373.69,373.71l-804.9 0c-206.04,0 -373.71,-167.66 -373.71,-373.71 0,-206.04 167.67,-373.69 373.71,-373.69 15.9,0 28.75,-12.88 28.75,-28.75 0,-15.86 -12.85,-28.74 -28.75,-28.74 -237.8,0 -431.19,193.42 -431.19,431.18 0,237.76 193.39,431.2 431.19,431.2l804.9 0c237.74,0 431.19,-193.44 431.19,-431.2 0,-237.76 -193.45,-431.18 -431.19,-431.18z"/>
  <path class="fil0" d="M12504.6 14218.56c118.88,0 215.6,-96.73 215.6,-215.6 0,-118.89 -96.72,-215.6 -215.6,-215.6 -118.88,0 -215.59,96.71 -215.59,215.6 0,118.87 96.71,215.6 215.59,215.6l0 0zm0 -402.46c103.03,0 186.85,83.82 186.85,186.86 0,103.02 -83.82,186.85 -186.85,186.85 -103.01,0 -186.85,-83.81 -186.85,-186.85 0,-103.05 83.84,-186.86 186.85,-186.86z"/>
  <path class="fil0" d="M12705.83 14189.81c-7.95,0 -14.38,6.44 -14.38,14.37 0,7.94 6.43,14.38 14.38,14.38 103.03,0 186.85,83.82 186.85,186.84 0,103.03 -83.82,186.85 -186.85,186.85l-402.45 0c-103.02,0 -186.85,-83.82 -186.85,-186.85 0,-103.02 83.83,-186.84 186.85,-186.84 7.96,0 14.37,-6.44 14.37,-14.38 0,-7.93 -6.41,-14.37 -14.37,-14.37 -118.89,0 -215.59,96.71 -215.59,215.59 0,118.87 96.7,215.6 215.59,215.6l402.45 0c118.88,0 215.6,-96.73 215.6,-215.6 0,-118.88 -96.72,-215.59 -215.6,-215.59z"/>
  <path class="fil0" d="M14171.88 14232.93c237.76,0 431.21,-193.43 431.21,-431.2 0,-237.76 -193.45,-431.19 -431.21,-431.19 -237.77,0 -431.19,193.43 -431.19,431.19 0,237.77 193.42,431.2 431.19,431.2l0 0zm0 -804.9c206.06,0 373.71,167.64 373.71,373.7 0,206.05 -167.65,373.71 -373.71,373.71 -206.03,0 -373.69,-167.63 -373.69,-373.71 0,-206.08 167.66,-373.7 373.69,-373.7z"/>
  <path class="fil0" d="M14574.34 14175.44c-15.9,0 -28.75,12.88 -28.75,28.74 0,15.87 12.85,28.75 28.75,28.75 206.06,0 373.69,167.65 373.69,373.69 0,206.05 -167.63,373.71 -373.69,373.71l-804.9 0c-206.04,0 -373.69,-167.66 -373.69,-373.71 0,-206.04 167.65,-373.69 373.69,-373.69 15.89,0 28.75,-12.88 28.75,-28.75 0,-15.86 -12.86,-28.74 -28.75,-28.74 -237.79,0 -431.19,193.42 -431.19,431.18 0,237.76 193.4,431.2 431.19,431.2l804.9 0c237.74,0 431.19,-193.44 431.19,-431.2 0,-237.76 -193.45,-431.18 -431.19,-431.18z"/>
  <path class="fil0" d="M15839.21 14218.56c118.9,0 215.54,-96.73 215.54,-215.6 0,-118.89 -96.64,-215.6 -215.54,-215.6 -118.92,0 -215.7,96.71 -215.7,215.6 0,118.87 96.78,215.6 215.7,215.6l0 0zm0 -402.46c102.95,0 186.79,83.82 186.79,186.86 0,103.02 -83.84,186.85 -186.79,186.85 -103.11,0 -186.95,-83.81 -186.95,-186.85 0,-103.05 83.84,-186.86 186.95,-186.86z"/>
  <path class="fil0" d="M16040.45 14189.81c-7.98,0 -14.45,6.44 -14.45,14.37 0,7.94 6.47,14.38 14.45,14.38 102.95,0 186.79,83.82 186.79,186.84 0,103.03 -83.84,186.85 -186.79,186.85l-402.49 0c-103.1,0 -186.79,-83.82 -186.79,-186.85 0,-103.02 83.69,-186.84 186.79,-186.84 7.98,0 14.3,-6.44 14.3,-14.38 0,-7.93 -6.32,-14.37 -14.3,-14.37 -118.91,0 -215.54,96.71 -215.54,215.59 0,118.87 96.63,215.6 215.54,215.6l402.49 0c118.76,0 215.54,-96.73 215.54,-215.6 0,-118.88 -96.78,-215.59 -215.54,-215.59z"/>
  <path class="fil0" d="M15422.42 15903.68c237.67,0 431.08,-193.43 431.08,-431.19 0,-237.77 -193.41,-431.19 -431.08,-431.19 -237.82,0 -431.27,193.42 -431.27,431.19 0,237.76 193.45,431.19 431.27,431.19l0 0zm373.59 -431.19c0,206.07 -167.68,373.69 -373.59,373.69 -206.06,0 -373.77,-167.64 -373.77,-373.69 0,-206.06 167.71,-373.71 373.77,-373.71 205.91,0 373.59,167.62 373.59,373.71z"/>
  <path class="fil0" d="M15019.9 15846.18c15.9,0 28.75,12.89 28.75,28.75 0,15.87 -12.85,28.75 -28.75,28.75 -206.06,0 -373.69,167.65 -373.69,373.7 0,206.05 167.63,373.7 373.69,373.7l804.85 0c206.06,0 373.74,-167.65 373.74,-373.7 0,-206.05 -167.68,-373.7 -373.74,-373.7 -15.8,0 -28.74,-12.88 -28.74,-28.75 0,-15.86 12.94,-28.75 28.74,-28.75 237.82,0 431.24,193.44 431.24,431.2 0,237.76 -193.42,431.2 -431.24,431.2l-804.85 0c-237.76,0 -431.19,-193.44 -431.19,-431.2 0,-237.76 193.43,-431.2 431.19,-431.2z"/>
  <path class="fil0" d="M13755.07 15889.31c118.89,0 215.6,-96.71 215.6,-215.6 0,-118.88 -96.71,-215.59 -215.6,-215.59 -118.89,0 -215.59,96.71 -215.59,215.59 0,118.89 96.7,215.6 215.59,215.6l0 0zm186.85 -215.6c0,103.04 -83.83,186.85 -186.85,186.85 -103.02,0 -186.86,-83.82 -186.86,-186.85 0,-103.02 83.84,-186.85 186.86,-186.85 103.02,0 186.85,83.81 186.85,186.85z"/>
  <path class="fil0" d="M13553.84 15860.56c7.94,0 14.37,6.45 14.37,14.38 0,7.93 -6.43,14.37 -14.37,14.37 -103.02,0 -186.84,83.83 -186.84,186.85 0,103.03 83.82,186.85 186.84,186.85l402.45 0c103.02,0 186.86,-83.82 186.86,-186.85 0,-103.02 -83.84,-186.85 -186.86,-186.85 -7.94,0 -14.37,-6.44 -14.37,-14.37 0,-7.93 6.43,-14.38 14.37,-14.38 118.9,0 215.6,96.72 215.6,215.6 0,118.88 -96.7,215.6 -215.6,215.6l-402.45 0c-118.87,0 -215.59,-96.72 -215.59,-215.6 0,-118.88 96.72,-215.6 215.59,-215.6z"/>
  <path class="fil0" d="M12087.79 15903.68c237.79,0 431.18,-193.43 431.18,-431.19 0,-237.77 -193.39,-431.19 -431.18,-431.19 -237.76,0 -431.19,193.42 -431.19,431.19 0,237.76 193.43,431.19 431.19,431.19l0 0zm373.69 -431.19c0,206.07 -167.65,373.69 -373.69,373.69 -206.05,0 -373.7,-167.64 -373.7,-373.69 0,-206.06 167.65,-373.71 373.7,-373.71 206.04,0 373.69,167.62 373.69,373.71z"/>
  <path class="fil0" d="M11685.33 15846.18c15.9,0 28.76,12.89 28.76,28.75 0,15.87 -12.86,28.75 -28.76,28.75 -206.04,0 -373.69,167.65 -373.69,373.7 0,206.05 167.65,373.7 373.69,373.7l804.9 0c206.06,0 373.7,-167.65 373.7,-373.7 0,-206.05 -167.64,-373.7 -373.7,-373.7 -15.9,0 -28.75,-12.88 -28.75,-28.75 0,-15.86 12.85,-28.75 28.75,-28.75 237.8,0 431.2,193.44 431.2,431.2 0,237.76 -193.4,431.2 -431.2,431.2l-804.9 0c-237.75,0 -431.19,-193.44 -431.19,-431.2 0,-237.76 193.44,-431.2 431.19,-431.2z"/>
  <path class="fil0" d="M10420.51 15889.31c118.89,0 215.58,-96.71 215.58,-215.6 0,-118.88 -96.69,-215.59 -215.58,-215.59 -118.88,0 -215.6,96.71 -215.6,215.59 0,118.89 96.72,215.6 215.6,215.6l0 0zm186.84 -215.6c0,103.04 -83.83,186.85 -186.84,186.85 -103.03,0 -186.86,-83.82 -186.86,-186.85 0,-103.02 83.83,-186.85 186.86,-186.85 103.01,0 186.84,83.81 186.84,186.85z"/>
  <path class="fil0" d="M10219.28 15860.56c7.95,0 14.37,6.45 14.37,14.38 0,7.93 -6.42,14.37 -14.37,14.37 -103.03,0 -186.85,83.83 -186.85,186.85 0,103.03 83.82,186.85 186.85,186.85l402.46 0c103.01,0 186.83,-83.82 186.83,-186.85 0,-103.02 -83.82,-186.85 -186.83,-186.85 -7.97,0 -14.39,-6.44 -14.39,-14.37 0,-7.93 6.42,-14.38 14.39,-14.38 118.88,0 215.58,96.72 215.58,215.6 0,118.88 -96.7,215.6 -215.58,215.6l-402.46 0c-118.88,0 -215.59,-96.72 -215.59,-215.6 0,-118.88 96.71,-215.6 215.59,-215.6z"/>
  <path class="fil0" d="M8753.23 15903.68c237.77,0 431.19,-193.43 431.19,-431.19 0,-237.77 -193.42,-431.19 -431.19,-431.19 -237.76,0 -431.2,193.42 -431.2,431.19 0,237.76 193.44,431.19 431.2,431.19l0 0zm373.69 -431.19c0,206.07 -167.66,373.69 -373.69,373.69 -206.06,0 -373.71,-167.64 -373.71,-373.69 0,-206.06 167.65,-373.71 373.71,-373.71 206.03,0 373.69,167.62 373.69,373.71z"/>
  <path class="fil0" d="M8350.77 15846.18c15.9,0 28.75,12.89 28.75,28.75 0,15.87 -12.85,28.75 -28.75,28.75 -206.04,0 -373.69,167.65 -373.69,373.7 0,206.05 167.65,373.7 373.69,373.7l804.9 0c206.04,0 373.69,-167.65 373.69,-373.7 0,-206.05 -167.65,-373.7 -373.69,-373.7 -15.9,0 -28.75,-12.88 -28.75,-28.75 0,-15.86 12.85,-28.75 28.75,-28.75 237.79,0 431.19,193.44 431.19,431.2 0,237.76 -193.4,431.2 -431.19,431.2l-804.9 0c-237.76,0 -431.19,-193.44 -431.19,-431.2 0,-237.76 193.43,-431.2 431.19,-431.2z"/>
  <path class="fil0" d="M7085.95 15889.31c118.88,0 215.59,-96.71 215.59,-215.6 0,-118.88 -96.71,-215.59 -215.59,-215.59 -118.89,0 -215.6,96.71 -215.6,215.59 0,118.89 96.71,215.6 215.6,215.6l0 0zm186.84 -215.6c0,103.04 -83.82,186.85 -186.84,186.85 -103.03,0 -186.87,-83.82 -186.87,-186.85 0,-103.02 83.84,-186.85 186.87,-186.85 103.02,0 186.84,83.81 186.84,186.85z"/>
  <path class="fil0" d="M6884.71 15860.56c7.96,0 14.37,6.45 14.37,14.38 0,7.93 -6.41,14.37 -14.37,14.37 -103.02,0 -186.84,83.83 -186.84,186.85 0,103.03 83.82,186.85 186.84,186.85l402.45 0c103.02,0 186.86,-83.82 186.86,-186.85 0,-103.02 -83.84,-186.85 -186.86,-186.85 -7.94,0 -14.37,-6.44 -14.37,-14.37 0,-7.93 6.43,-14.38 14.37,-14.38 118.9,0 215.59,96.72 215.59,215.6 0,118.88 -96.69,215.6 -215.59,215.6l-402.45 0c-118.87,0 -215.59,-96.72 -215.59,-215.6 0,-118.88 96.72,-215.6 215.59,-215.6z"/>
  <path class="fil0" d="M5418.66 15903.68c237.79,0 431.19,-193.43 431.19,-431.19 0,-237.77 -193.4,-431.19 -431.19,-431.19 -237.76,0 -431.19,193.42 -431.19,431.19 0,237.76 193.43,431.19 431.19,431.19l0 0zm373.69 -431.19c0,206.07 -167.65,373.69 -373.69,373.69 -206.05,0 -373.69,-167.64 -373.69,-373.69 0,-206.06 167.64,-373.71 373.69,-373.71 206.04,0 373.69,167.62 373.69,373.71z"/>
  <path class="fil0" d="M5016.22 15846.18c15.88,0 28.75,12.89 28.75,28.75 0,15.87 -12.87,28.75 -28.75,28.75 -206.06,0 -373.71,167.65 -373.71,373.7 0,206.05 167.65,373.7 373.71,373.7l804.89 0c206.05,0 373.7,-167.65 373.7,-373.7 0,-206.05 -167.65,-373.7 -373.7,-373.7 -15.91,0 -28.76,-12.88 -28.76,-28.75 0,-15.86 12.85,-28.75 28.76,-28.75 237.79,0 431.19,193.44 431.19,431.2 0,237.76 -193.4,431.2 -431.19,431.2l-804.89 0c-237.76,0 -431.21,-193.44 -431.21,-431.2 0,-237.76 193.45,-431.2 431.21,-431.2z"/>
  <path class="fil0" d="M3751.38 15889.31c118.89,0 215.59,-96.71 215.59,-215.6 0,-118.88 -96.7,-215.59 -215.59,-215.59 -118.88,0 -215.6,96.71 -215.6,215.59 0,118.89 96.72,215.6 215.6,215.6l0 0zm186.85 -215.6c0,103.04 -83.84,186.85 -186.85,186.85 -103.03,0 -186.85,-83.82 -186.85,-186.85 0,-103.02 83.82,-186.85 186.85,-186.85 103.01,0 186.85,83.81 186.85,186.85z"/>
  <path class="fil0" d="M3550.15 15860.56c7.95,0 14.38,6.45 14.38,14.38 0,7.93 -6.43,14.37 -14.38,14.37 -103.03,0 -186.85,83.83 -186.85,186.85 0,103.03 83.82,186.85 186.85,186.85l402.45 0c103.02,0 186.85,-83.82 186.85,-186.85 0,-103.02 -83.83,-186.85 -186.85,-186.85 -7.96,0 -14.37,-6.44 -14.37,-14.37 0,-7.93 6.41,-14.38 14.37,-14.38 118.89,0 215.59,96.72 215.59,215.6 0,118.88 -96.7,215.6 -215.59,215.6l-402.45 0c-118.88,0 -215.59,-96.72 -215.59,-215.6 0,-118.88 96.71,-215.6 215.59,-215.6z"/>
  <path class="fil0" d="M2084.1 15903.68c237.77,0 431.19,-193.43 431.19,-431.19 0,-237.77 -193.42,-431.19 -431.19,-431.19 -237.76,0 -431.21,193.42 -431.21,431.19 0,237.76 193.45,431.19 431.21,431.19l0 0zm373.69 -431.19c0,206.07 -167.65,373.69 -373.69,373.69 -206.06,0 -373.71,-167.64 -373.71,-373.69 0,-206.06 167.65,-373.71 373.71,-373.71 206.04,0 373.69,167.62 373.69,373.71z"/>
  <path class="fil0" d="M1681.64 15846.18c15.9,0 28.75,12.89 28.75,28.75 0,15.87 -12.85,28.75 -28.75,28.75 -206.04,0 -373.69,167.65 -373.69,373.7 0,206.05 167.65,373.7 373.69,373.7l804.9 0c206.05,0 373.69,-167.65 373.69,-373.7 0,-206.05 -167.64,-373.7 -373.69,-373.7 -15.89,0 -28.75,-12.88 -28.75,-28.75 0,-15.86 12.86,-28.75 28.75,-28.75 237.79,0 431.19,193.44 431.19,431.2 0,237.76 -193.4,431.2 -431.19,431.2l-804.9 0c-237.75,0 -431.19,-193.44 -431.19,-431.2 0,-237.76 193.44,-431.2 431.19,-431.2z"/>
  <path class="fil0" d="M416.81 15889.31c118.89,0 215.6,-96.71 215.6,-215.6 0,-118.88 -96.71,-215.59 -215.6,-215.59 -118.87,0 -215.6,96.71 -215.6,215.59 0,118.89 96.73,215.6 215.6,215.6l0 0zm186.85 -215.6c0,103.04 -83.83,186.85 -186.85,186.85 -103.02,0 -186.85,-83.82 -186.85,-186.85 0,-103.02 83.83,-186.85 186.85,-186.85 103.02,0 186.85,83.81 186.85,186.85z"/>
  <path class="fil0" d="M215.58 15860.56c7.95,0 14.38,6.45 14.38,14.38 0,7.93 -6.43,14.37 -14.38,14.37 -103.02,0 -186.85,83.83 -186.85,186.85 0,103.03 83.83,186.85 186.85,186.85l402.45 0c103.03,0 186.85,-83.82 186.85,-186.85 0,-103.02 -83.82,-186.85 -186.85,-186.85 -7.95,0 -14.37,-6.44 -14.37,-14.37 0,-7.93 6.42,-14.38 14.37,-14.38 118.9,0 215.6,96.72 215.6,215.6 0,118.88 -96.7,215.6 -215.6,215.6l-402.45 0c-118.87,0 -215.59,-96.72 -215.59,-215.6 0,-118.88 96.72,-215.6 215.59,-215.6z"/>
 </g>
</svg>
